<svg width="31" height="35" viewBox="0 0 31 35" fill="none" xmlns="http://www.w3.org/2000/svg">
<path d="M14.9894 22.9792L11.1238 33.5882C10.952 34.1466 10.5225 34.5761 10.0071 34.7909C8.93326 35.3063 7.64471 34.8338 7.17224 33.76C6.91453 33.2446 6.91453 32.6433 7.08634 32.1279L9.74934 24.6972C9.9641 24.1388 10.1359 23.5805 10.2648 22.9792C10.3936 22.3778 10.4366 21.7765 10.4795 21.1752C10.5654 20.1014 10.6513 18.8987 10.6943 17.782C10.7372 16.6653 10.7802 15.5485 10.8231 14.6465C10.8661 13.5298 10.5654 13.4439 9.66344 13.2291L9.49163 13.1862L1.76033 11.7258C1.20196 11.6399 0.686538 11.2963 0.385876 10.8238C-0.301351 9.83594 -0.0436409 8.50443 0.944248 7.81721C1.41672 7.47359 1.97509 7.38769 2.57641 7.47359L10.8661 9.01985C11.2097 9.06281 11.5104 9.10576 11.854 9.10576C12.8848 9.23461 13.9157 9.32052 14.9465 9.32052C16.235 9.27756 17.5236 9.19166 18.7692 9.01985C19.1558 8.9769 19.5423 8.93395 19.8859 8.891L27.7031 7.43064C28.2615 7.30179 28.8199 7.43064 29.3353 7.7313C30.3232 8.37558 30.5809 9.75003 29.8937 10.695C29.8937 10.695 29.8937 10.695 29.8937 10.7379C29.5501 11.2104 29.0776 11.5111 28.5192 11.6399L21.0456 13.0573C20.7879 13.1003 20.5732 13.1432 20.3584 13.1862C19.5853 13.315 19.1987 13.4009 19.2417 14.5177C19.2846 15.3338 19.3705 16.3216 19.4994 17.3095C19.6282 18.5122 19.843 19.7578 20.0577 20.9175C20.1866 21.6906 20.3155 22.2919 20.4873 22.8932C20.6591 23.4946 20.8309 24.0959 21.0886 24.7831L23.7086 32.042C24.0952 33.1587 23.5368 34.4043 22.4201 34.7909C21.8617 35.0056 21.3033 34.9627 20.7879 34.705C20.2725 34.4473 19.8859 34.0177 19.6712 33.5023L15.8055 22.8932L15.376 22.1201L14.9894 22.9792ZM15.1613 0C17.2659 0 18.941 1.67512 18.941 3.77975C18.941 5.88438 17.2659 7.5595 15.1613 7.5595C13.0566 7.5595 11.3815 5.88438 11.3815 3.77975C11.3815 2.79186 11.7681 1.80397 12.4983 1.11674C13.2284 0.386565 14.1734 0 15.1613 0Z" fill="black"/>
</svg>
