<?xml version="1.0" encoding="UTF-8"?><svg xmlns="http://www.w3.org/2000/svg" xmlns:xlink="http://www.w3.org/1999/xlink" viewBox="0 0 226.87 37.98"><defs><style>.w{fill:url(#u);}.x{fill:url(#t);}.y{fill:url(#v);}.a`{fill:url(#f);}.aa{fill:url(#p);}.ab{fill:url(#o);}.ac{fill:url(#s);}.ad{fill:url(#q);}.ae{fill:url(#i);}.af{fill:url(#h);}.ag{fill:url(#k);}.ah{fill:url(#j);}.ai{fill:url(#m);}.aj{fill:url(#l);}.ak{fill:url(#n);}.al{fill:url(#e);}.al,.am,.an{isolation:isolate;opacity:.93;}.am{fill:url(#g);}.an{fill:url(#r);}</style><linearGradient id="e" x1="2.04" y1="78.1" x2="39.41" y2="78.1" gradientTransform="translate(0 97.2) scale(1 -1)" gradientUnits="userSpaceOnUse"><stop offset="0" stop-color="#000"/><stop offset=".13" stop-color="#030103"/><stop offset=".25" stop-color="#0f040f"/><stop offset=".37" stop-color="#210923"/><stop offset=".49" stop-color="#3c113f"/><stop offset=".61" stop-color="#5e1b63"/><stop offset=".73" stop-color="#87278f"/><stop offset=".74" stop-color="#882890"/><stop offset=".99" stop-color="#50025a"/></linearGradient><linearGradient id="f" x1="-13.91" y1="78.21" x2="53.49" y2="78.21" gradientTransform="translate(0 97.2) scale(1 -1)" gradientUnits="userSpaceOnUse"><stop offset="0" stop-color="#67287f"/><stop offset=".16" stop-color="#692a80"/><stop offset=".26" stop-color="#713385"/><stop offset=".35" stop-color="#7f428d"/><stop offset=".42" stop-color="#935799"/><stop offset=".47" stop-color="#a469a3"/><stop offset=".5" stop-color="#965d99"/><stop offset=".58" stop-color="#7a4686"/><stop offset=".66" stop-color="#643376"/><stop offset=".75" stop-color="#54266c"/><stop offset=".85" stop-color="#4b1f65"/><stop offset="1" stop-color="#491d64"/></linearGradient><linearGradient id="g" x1="28.06" x2="67.57" xlink:href="#e"/><linearGradient id="h" x1="11.42" x2="78.83" xlink:href="#f"/><linearGradient id="i" x1="106.77" y1="101.9" x2="106.77" y2="66.54" gradientTransform="translate(0 97.2) scale(1 -1)" gradientUnits="userSpaceOnUse"><stop offset="0" stop-color="#561b6a"/><stop offset=".1" stop-color="#5a1f6d"/><stop offset=".19" stop-color="#662b76"/><stop offset=".29" stop-color="#7a3f85"/><stop offset=".39" stop-color="#965b9b"/><stop offset=".46" stop-color="#b075af"/><stop offset=".55" stop-color="#935c9c"/><stop offset=".67" stop-color="#764289"/><stop offset=".78" stop-color="#61307b"/><stop offset=".89" stop-color="#552573"/><stop offset="1" stop-color="#512271"/></linearGradient><linearGradient id="j" x1="120.84" x2="120.84" xlink:href="#i"/><linearGradient id="k" x1="132.24" x2="132.24" xlink:href="#i"/><linearGradient id="l" x1="147.94" x2="147.94" xlink:href="#i"/><linearGradient id="m" x1="165.42" x2="165.42" xlink:href="#i"/><linearGradient id="n" x1="180.28" x2="180.28" xlink:href="#i"/><linearGradient id="o" x1="191.88" x2="191.88" xlink:href="#i"/><linearGradient id="p" x1="202.61" x2="202.61" xlink:href="#i"/><linearGradient id="q" x1="218.75" x2="218.75" xlink:href="#i"/><linearGradient id="r" x1="53.39" x2="94.81" xlink:href="#e"/><linearGradient id="s" x1="36.76" x2="104.16" xlink:href="#f"/><linearGradient id="t" x1="18.56" y1="65.75" x2="18.56" y2="92.25" gradientTransform="translate(0 97.2) scale(1 -1)" gradientUnits="userSpaceOnUse"><stop offset="0" stop-color="#e5e2df"/><stop offset="0" stop-color="#ded9d6"/><stop offset=".04" stop-color="#cfcbc9"/><stop offset=".11" stop-color="#a8a8a7"/><stop offset=".21" stop-color="#697071"/><stop offset=".26" stop-color="#465053"/><stop offset=".37" stop-color="#878d8e"/><stop offset=".46" stop-color="#b7b9ba"/><stop offset=".53" stop-color="#d4d5d5"/><stop offset=".57" stop-color="#e0e0e0"/><stop offset=".63" stop-color="#d6d7d7"/><stop offset=".73" stop-color="#bcbfc1"/><stop offset=".86" stop-color="#91989d"/><stop offset=".88" stop-color="#8b9298"/><stop offset="1" stop-color="#d1d3d4"/><stop offset="1" stop-color="#a7a9ac"/></linearGradient><linearGradient id="u" x1="44.8" x2="44.8" xlink:href="#t"/><linearGradient id="v" x1="70.16" x2="70.16" xlink:href="#t"/></defs><g id="a"/><g id="b"><g id="c"><g id="d"><g><path class="al" d="M34.52,19.1c0,8.97-7.27,16.24-16.24,16.24S2.04,28.07,2.04,19.1,9.31,2.86,18.28,2.86s16.24,7.27,16.24,16.24Z"/><g><path class="a`" d="M18.99,37.98C8.52,37.98,0,29.46,0,18.99S8.52,0,18.99,0s18.99,8.52,18.99,18.99-8.52,18.99-18.99,18.99h0Zm0-33.13c-7.8,0-14.14,6.34-14.14,14.14s6.35,14.14,14.14,14.14,14.14-6.34,14.14-14.14-6.34-14.14-14.14-14.14h0Z"/><path d="M18.99,.99C9.07,.99,.99,9.06,.99,18.99s8.07,18,18,18,18-8.07,18-18S28.92,.99,18.99,.99Zm0,33.13c-8.35,0-15.13-6.79-15.13-15.14S10.65,3.85,18.99,3.85s15.13,6.79,15.13,15.13-6.79,15.14-15.13,15.14Z"/></g><path class="am" d="M60.54,19.1c0,8.97-7.27,16.24-16.24,16.24s-16.24-7.27-16.24-16.24S35.33,2.86,44.3,2.86s16.24,7.27,16.24,16.24Z"/><g><path d="M148.98,31.15v-4.24h1.03c.42,0,.81-.02,1.18,.22,.36,.24,.58,.64,.58,1.07s-.18,.82-.52,1.08c-.36,.28-.87,.26-1.3,.26h-.16v1.61h-.81Zm.95-2.37c.2,0,.43,0,.62-.05,.24-.07,.4-.28,.4-.52s-.18-.44-.42-.5c-.18-.05-.42-.03-.6-.03h-.15v1.11h.15Z"/><path d="M153.57,26.91h1.26c.41,0,.8,.03,1.13,.3,.31,.25,.51,.65,.51,1.05,0,.31-.15,.69-.36,.92-.21,.22-.48,.34-.77,.41l1.18,1.57h-1l-1.13-1.62h0v1.62h-.81v-4.24h0Zm1.25,2.01c.21,0,.48-.03,.64-.18,.13-.12,.2-.28,.2-.46s-.08-.37-.24-.48c-.19-.14-.38-.14-.6-.14h-.45v1.26h.45Z"/><path d="M162.59,29.05c0,1.23-1.03,2.2-2.27,2.2s-2.27-.98-2.27-2.2,1.01-2.22,2.27-2.22,2.27,.99,2.27,2.22Zm-3.73-.02c0,.79,.66,1.46,1.46,1.46s1.46-.67,1.46-1.46-.65-1.44-1.46-1.44-1.46,.64-1.46,1.44Z"/><path d="M164.52,31.15v-4.24h1.03c.42,0,.81-.02,1.18,.22,.36,.24,.58,.64,.58,1.07s-.18,.82-.52,1.08c-.36,.28-.87,.26-1.3,.26h-.16v1.61h-.81Zm.95-2.37c.2,0,.43,0,.62-.05,.24-.07,.39-.28,.39-.52s-.18-.44-.42-.5c-.18-.05-.42-.03-.6-.03h-.15v1.11h.16Z"/><path d="M169.23,26.91h2.34v.76h-1.53v.97h1.47v.76h-1.47v.98h1.53v.76h-2.34v-4.24h0Z"/><path d="M173.59,26.91h1.26c.41,0,.8,.03,1.13,.3,.31,.25,.51,.65,.51,1.05,0,.31-.15,.69-.36,.92-.21,.22-.48,.34-.77,.41l1.18,1.57h-1l-1.13-1.62h0v1.62h-.81v-4.24h0Zm1.25,2.01c.21,0,.48-.03,.64-.18,.13-.12,.2-.28,.2-.46s-.08-.37-.24-.48c-.19-.14-.38-.14-.6-.14h-.45v1.26h.45Z"/><path d="M178.97,27.67h-.8v-.76h2.42v.76h-.81v3.48h-.81v-3.48Z"/><path d="M183.58,29.58l-1.43-2.67h.89l.95,1.95,.95-1.95h.88l-1.43,2.67v1.57h-.81v-1.57h0Z"/><path d="M190.94,29.95c0,.34,.28,.53,.61,.53s.57-.22,.57-.53c0-.47-.4-.6-.76-.72-.29-.09-.54-.17-.75-.39-.21-.21-.34-.52-.34-.82,0-.69,.59-1.2,1.28-1.2s1.28,.54,1.27,1.2h-.83c0-.26-.24-.44-.49-.44s-.44,.2-.43,.45c0,.31,.29,.43,.55,.52,.31,.1,.6,.19,.85,.39,.31,.24,.46,.55,.46,.96,0,.76-.64,1.34-1.41,1.34s-1.41-.56-1.41-1.3h.83Z"/><path d="M194.78,26.91h2.34v.76h-1.53v.97h1.47v.76h-1.47v.98h1.53v.76h-2.34v-4.24h0Z"/><path d="M199.13,26.91h1.26c.41,0,.8,.03,1.13,.3,.31,.25,.5,.65,.5,1.05,0,.31-.15,.69-.36,.92-.21,.22-.48,.34-.77,.41l1.18,1.57h-.99l-1.13-1.62h0v1.62h-.81v-4.24h0Zm1.25,2.01c.21,0,.48-.03,.64-.18,.13-.12,.2-.28,.2-.46s-.08-.37-.24-.48c-.19-.14-.38-.14-.6-.14h-.45v1.26h.45Z"/><path d="M203.34,26.91h.85l1.17,3.22,1.17-3.22h.85l-1.68,4.24h-.67l-1.69-4.24h0Z"/><path d="M209.1,26.91h.81v4.24h-.81v-4.24Z"/><path d="M216.1,29.99c-.33,.77-1.18,1.26-2.02,1.26-1.25,0-2.26-1.02-2.26-2.23s1.02-2.2,2.23-2.2c.87,0,1.73,.49,2.07,1.29h-.92c-.27-.32-.71-.53-1.14-.53-.79,0-1.43,.67-1.43,1.46s.66,1.44,1.44,1.44c.43,0,.8-.19,1.1-.49h.93Z"/><path d="M217.93,26.91h2.34v.76h-1.53v.97h1.47v.76h-1.47v.98h1.53v.76h-2.34v-4.24h0Z"/><path d="M222.81,29.95c0,.34,.28,.53,.61,.53s.57-.22,.57-.53c0-.47-.4-.6-.76-.72-.29-.09-.54-.17-.75-.39-.21-.21-.34-.52-.34-.82,0-.69,.59-1.2,1.28-1.2s1.28,.54,1.27,1.2h-.83c0-.26-.23-.44-.49-.44s-.44,.2-.43,.45c0,.31,.29,.43,.55,.52,.31,.1,.6,.19,.85,.39,.31,.24,.46,.55,.46,.96,0,.76-.64,1.34-1.41,1.34s-1.41-.56-1.41-1.3h.83Z"/></g><g><path class="af" d="M44.32,37.98c-10.47,0-18.99-8.52-18.99-18.99S33.85,0,44.32,0s18.99,8.52,18.99,18.99-8.52,18.99-18.99,18.99h0Zm0-33.13c-7.8,0-14.14,6.34-14.14,14.14s6.34,14.14,14.14,14.14,14.14-6.34,14.14-14.14-6.34-14.14-14.14-14.14h0Z"/><path d="M44.32,.99c-9.92,0-18,8.07-18,18s8.07,18,18,18,18-8.07,18-18S54.25,.99,44.32,.99Zm0,33.13c-8.35,0-15.13-6.79-15.13-15.14s6.79-15.13,15.13-15.13,15.13,6.79,15.13,15.13-6.79,15.14-15.13,15.14Z"/></g><g><path class="ae" d="M116.59,6.02l-.79,1.73c-.27,.6-.34,.8-1.1,.8-1.19,0-2.36-.27-3.52-.43,1.44,.9,2.43,2.33,2.43,4.03,0,3.76-4.17,4.93-7.28,5.2-.48,.03-1.4,.33-1.4,.9,0,.73,1.61,.63,2.05,.63,5.91,0,9.06,1.57,9.06,4.86,0,3.76-4.27,5.86-9.61,5.86-5.02,0-9.47-1.9-9.47-4.73,0-1.86,1.54-2.7,3.28-2.7,.72,0,1.3,.13,1.95,.43-.85,.17-1.3,.63-1.3,1.5,0,2.8,3.42,3.3,5.64,3.3s6.05-.63,6.05-3.43-4.89-3.1-6.97-3.1l-2.36,.07c-1.5,.03-2.5-1.17-2.5-2.37,0-.97,1.98-1.43,2.7-1.77-2.46-.47-4.51-2.63-4.51-5.13,0-3.86,3.83-5.66,7.35-5.66h10.3Zm-9.98,9.14c2.05,0,3.56-1.3,3.56-3.23,0-2.13-1.85-3.7-4.27-3.7-1.88,0-3.49,1-3.49,2.93,0,2.16,1.98,4,4.21,4h-.01Z"/><path class="ah" d="M118.23,6.45c.79,0,1.61-.03,2.09-.43h.1v2.53c.75-1.5,2.33-2.53,4.03-2.53l1.23,.1v3.06c-.38-.4-.99-.53-1.57-.53-2.6,0-3.69,1.33-3.69,4.76v4.66c0,1.53-.2,2.77,1.3,3.6v.1h-5.71v-.1c1.5-.83,1.3-2.06,1.3-3.6v-7.96c0-1.53,.2-2.73-1.26-3.56v-.1h2.18Z"/><path class="ag" d="M138.87,22.21c-2.26-.13-4.51-.8-4.51-3.46v-5.26c-.99,.5-2.15,.77-3.28,1.03-1.64,.37-3.49,.73-3.49,2.76s1.91,2.73,3.72,2.73c.82,0,1.64-.23,2.46-.47l-2.02,2.5c-.58,.1-1.2,.17-1.78,.17-3.45,0-5.85-2.13-5.85-4.9,0-6.2,10.22-3.33,10.22-6.96,0-1.6-2.02-2.13-3.28-2.13-1.74,0-3.11,.63-4.65,1.33l2.29-3.33,2.22-.2c3.69,0,6.49,1.03,6.53,5.06v5c0,2.63,.07,3.63,2.91,3.93l-1.51,2.2h.02Z"/><path class="aj" d="M141.27,6.45c.75,0,1.57-.07,2.05-.43h.1v2.37c1.16-1.57,3.69-2.37,5.61-2.37,4.75,0,7.83,3.56,7.83,7.93,0,4.63-3.45,8.26-8.24,8.26-.89,0-1.74-.13-2.53-.43l-1.85-2.73c1.2,.57,2.43,.97,3.73,.97,3.62,0,5.44-2.37,5.44-5.7,0-3.1-1.71-5.96-5.23-5.96-1.44,0-2.84,.57-3.79,1.6-.99,1.03-.96,2.23-.96,3.56v13.84c0,1.53-.21,2.73,1.3,3.56v.1h-5.71v-.1c1.5-.83,1.3-2.03,1.3-3.56V10.12c0-1.53,.21-2.76-1.3-3.56v-.1h2.25Z"/><path class="ai" d="M160.99,13.58c.07,4.06,2.97,6.43,6.84,6.43,2.05,0,4.04-.57,5.61-1.77h.1l-1.71,3.13c-1.47,.6-3.11,.83-4.72,.83-5.81,0-9.81-3.56-9.81-8.19s3.45-8,8.54-8c4.65,0,7.83,3.26,7.69,7.56h-12.54Zm8.96-1.92c-.37-2.33-1.95-3.43-4.41-3.43-2.29,0-4,1.33-4.41,3.43h8.82Z"/><path class="ak" d="M172.79,6.45c1.06,0,2.05,.1,2.8-.4h.1c.03,.4,.27,1.1,.55,1.67l4.96,10.76,3.93-8.23c.68-1.4,1.44-2.96-.38-3.7v-.1h4.86l-7.76,15.92c-1.95-1.1-2.84-1.5-3.73-3.46l-4.14-8.79c-.82-1.8-.92-2.47-3.04-3.56v-.1h1.85Z"/><path class="ab" d="M191.11,6.45c.79,0,1.64-.03,2.22-.53h.1v12.16c0,1.53-.21,2.77,1.3,3.6v.1h-5.71v-.1c1.5-.83,1.3-2.06,1.3-3.6v-7.96c0-1.53,.21-2.73-1.3-3.56v-.1h2.09Zm.65-2.01c-1.26,0-2.22-.97-2.22-2.2s1.09-1.97,2.22-1.97,2.05,.97,2.05,2.07-.89,2.1-2.05,2.1Z"/><path class="aa" d="M196.34,6.45c.75,0,1.57-.03,2.29-.43h.1v2.57c1.2-1.6,2.6-2.57,4.82-2.57,1.91,0,4.1,.73,5.2,2.3,.96,1.33,.85,3.4,.85,4.96v4.83c0,1.53-.21,2.73,1.3,3.56v.1h-5.71v-.1c1.5-.83,1.3-2.06,1.3-3.56v-4.5c0-3.56-1.03-5.4-4.14-5.4s-3.62,2.03-3.62,4v5.9c0,1.53-.21,2.73,1.3,3.56v.1h-5.71v-.1c1.5-.83,1.3-2.06,1.3-3.6v-7.93c0-1.53,.2-2.77-1.3-3.6v-.1h2.02Z"/><path class="ad" d="M214.32,13.58c.07,4.06,2.97,6.43,6.84,6.43,2.05,0,4.03-.57,5.61-1.77h.1l-1.71,3.13c-1.47,.6-3.11,.83-4.72,.83-5.81,0-9.81-3.56-9.81-8.19s3.45-8,8.55-8c4.65,0,7.83,3.26,7.69,7.56h-12.55Zm8.96-1.92c-.37-2.33-1.95-3.43-4.41-3.43-2.29,0-4,1.33-4.41,3.43h8.82Z"/></g><path class="an" d="M85.87,19.1c0,8.97-7.27,16.24-16.24,16.24s-16.24-7.27-16.24-16.24S60.66,2.86,69.63,2.86s16.24,7.27,16.24,16.24Z"/><g><path class="ac" d="M69.65,37.98c-10.47,0-18.99-8.52-18.99-18.99S59.18,0,69.65,0s18.99,8.52,18.99,18.99-8.52,18.99-18.99,18.99h0Zm0-33.13c-7.8,0-14.14,6.34-14.14,14.14s6.34,14.14,14.14,14.14,14.14-6.34,14.14-14.14-6.34-14.14-14.14-14.14h0Z"/><path d="M69.65,.99c-9.92,0-18,8.07-18,18s8.07,18,18,18,18-8.07,18-18S79.58,.99,69.65,.99Zm0,33.13c-8.35,0-15.14-6.79-15.14-15.14s6.79-15.13,15.14-15.13,15.13,6.79,15.13,15.13-6.79,15.14-15.13,15.14Z"/></g><g><path class="x" d="M23.01,15.55h-.05c-.74-.69-2.11-.9-3.21-.9-2.81,0-4.95,1.53-4.95,3.94s2.31,4.24,5.15,4.24c.83,0,1.69-.09,2.5-.28v-2.16c0-.69-.02-1.42-.83-1.69v-.04h2.76v.04c-.09,.18-.09,.42-.09,.64v3.45c0,.22-.02,.46,.09,.67-1.44,.22-2.85,.45-4.3,.45-4.61,0-7.33-2.1-7.33-5.11,0-3.22,3.08-5.23,7.44-5.23,.95,0,1.89,.09,2.83,.25v1.72h-.01Z"/><path class="w" d="M44.93,13.82c2.34,0,4.13,.94,4.13,2.62s-1.93,2.81-3.96,2.81c-.45,0-.9-.05-1.31-.21,1.55-.07,3.22-.87,3.22-2.31,0-1.32-1.12-1.84-2.56-1.84-.43,0-.85,.03-1.26,.09v6.75c0,.84-.02,1.44,.94,1.89v.04h-3.59v-.04c.92-.27,.81-1.38,.81-2.05v-5.65c0-.67,.11-1.77-.79-2.07v-.05h4.38v.02Z"/><path class="y" d="M73.4,15.6c-.7-.6-1.82-.94-2.83-.94s-2.32,.33-2.32,1.36c0,2.05,6.2,2.02,6.2,4.79,0,1.6-2.02,3.1-4.83,3.1-1.1,0-2.2-.14-3.22-.45l-.52-1.87c1.06,.76,2.54,1.24,3.94,1.24,1.03,0,2.58-.51,2.58-1.56,0-2.34-6.2-1.92-6.2-5.09,0-1.89,2.32-2.61,4.52-2.61,.9,0,1.82,.1,2.68,.33v1.69h0Z"/></g></g></g></g></g></svg>