<svg width="420" height="260" viewBox="0 0 420 260" fill="none" xmlns="http://www.w3.org/2000/svg">
<g filter="url(#filter0_d_2_493)">
<rect x="8" y="8" width="400" height="240" rx="10" fill="white" fill-opacity="0.7"/>
<path d="M38.468 88L42.356 76.696H44.066L47.864 88H46.388L45.434 85.102H40.934L39.944 88H38.468ZM41.294 84.004H45.074L43.184 78.406L41.294 84.004ZM49.8839 88V79.378H51.2879V88H49.8839ZM50.8559 84.112C50.8559 83.02 50.9609 82.114 51.1709 81.394C51.3809 80.668 51.6869 80.128 52.0889 79.774C52.4969 79.414 52.9919 79.234 53.5739 79.234C53.7659 79.234 53.9399 79.249 54.0959 79.279C54.2579 79.303 54.4199 79.342 54.5819 79.396L54.4919 80.782C54.3239 80.728 54.1409 80.683 53.9429 80.647C53.7449 80.605 53.5679 80.584 53.4119 80.584C52.9019 80.584 52.4909 80.731 52.1789 81.025C51.8669 81.313 51.6389 81.721 51.4949 82.249C51.3569 82.777 51.2879 83.398 51.2879 84.112H50.8559ZM59.1058 88.216C58.3618 88.216 57.6958 88.027 57.1078 87.649C56.5258 87.265 56.0638 86.734 55.7218 86.056C55.3858 85.378 55.2178 84.598 55.2178 83.716C55.2178 82.774 55.3858 81.964 55.7218 81.286C56.0578 80.608 56.5168 80.089 57.0988 79.729C57.6868 79.363 58.3558 79.18 59.1058 79.18C59.7598 79.18 60.3178 79.312 60.7798 79.576C61.2418 79.84 61.6138 80.197 61.8958 80.647C62.1778 81.097 62.3728 81.607 62.4808 82.177C62.5948 82.741 62.6278 83.326 62.5798 83.932H56.3518V83.068H61.6528L61.2388 83.338C61.2568 82.984 61.2358 82.63 61.1758 82.276C61.1218 81.922 61.0168 81.598 60.8608 81.304C60.7048 81.004 60.4858 80.764 60.2038 80.584C59.9218 80.404 59.5618 80.314 59.1238 80.314C58.5718 80.314 58.1098 80.455 57.7378 80.737C57.3658 81.019 57.0868 81.391 56.9008 81.853C56.7148 82.309 56.6218 82.804 56.6218 83.338V83.914C56.6218 84.514 56.7118 85.051 56.8918 85.525C57.0778 85.999 57.3538 86.374 57.7198 86.65C58.0858 86.926 58.5478 87.064 59.1058 87.064C59.6638 87.064 60.1228 86.929 60.4828 86.659C60.8428 86.389 61.0618 85.99 61.1398 85.462H62.5978C62.5078 86.032 62.3038 86.524 61.9858 86.938C61.6678 87.346 61.2628 87.661 60.7708 87.883C60.2788 88.105 59.7238 88.216 59.1058 88.216ZM67.6734 79.396H69.2394L72.0474 86.776H71.7234L73.9014 79.396H75.3414L72.1014 89.728C71.8314 90.592 71.4714 91.258 71.0214 91.726C70.5714 92.194 69.9954 92.428 69.2934 92.428C68.9154 92.428 68.5554 92.374 68.2134 92.266C67.8774 92.158 67.5294 92.002 67.1694 91.798V90.502C67.4874 90.754 67.7934 90.934 68.0874 91.042C68.3874 91.15 68.6994 91.204 69.0234 91.204C69.3834 91.204 69.6834 91.09 69.9234 90.862C70.1694 90.634 70.3734 90.34 70.5354 89.98C70.6974 89.626 70.8354 89.254 70.9494 88.864L71.2014 88L67.6734 79.396ZM80.3242 88.216C79.5502 88.216 78.8602 88.045 78.2542 87.703C77.6542 87.361 77.1802 86.854 76.8322 86.182C76.4842 85.51 76.3102 84.682 76.3102 83.698C76.3102 82.708 76.4842 81.88 76.8322 81.214C77.1802 80.542 77.6542 80.035 78.2542 79.693C78.8602 79.351 79.5502 79.18 80.3242 79.18C81.0922 79.18 81.7762 79.351 82.3762 79.693C82.9822 80.035 83.4562 80.542 83.7982 81.214C84.1462 81.88 84.3202 82.708 84.3202 83.698C84.3202 84.682 84.1462 85.51 83.7982 86.182C83.4562 86.854 82.9822 87.361 82.3762 87.703C81.7762 88.045 81.0922 88.216 80.3242 88.216ZM80.2882 86.992C80.8462 86.992 81.3202 86.86 81.7102 86.596C82.1002 86.326 82.3942 85.945 82.5922 85.453C82.7962 84.961 82.8982 84.376 82.8982 83.698C82.8982 82.672 82.6852 81.865 82.2592 81.277C81.8332 80.683 81.2002 80.386 80.3602 80.386C79.7962 80.386 79.3192 80.521 78.9292 80.791C78.5452 81.055 78.2512 81.436 78.0472 81.934C77.8492 82.426 77.7502 83.014 77.7502 83.698C77.7502 84.712 77.9632 85.516 78.3892 86.11C78.8212 86.698 79.4542 86.992 80.2882 86.992ZM92.6339 79.378H94.0379V88H92.6339V79.378ZM86.5319 79.378H87.9359V84.742C87.9359 85.462 88.1099 86.008 88.4579 86.38C88.8119 86.752 89.3159 86.938 89.9699 86.938C90.5099 86.938 90.9779 86.794 91.3739 86.506C91.7759 86.218 92.0849 85.822 92.3009 85.318C92.5229 84.808 92.6339 84.226 92.6339 83.572H93.1559C93.1559 84.538 93.0149 85.363 92.7329 86.047C92.4569 86.731 92.0639 87.256 91.5539 87.622C91.0499 87.982 90.4559 88.162 89.7719 88.162C89.1239 88.162 88.5569 88.042 88.0709 87.802C87.5849 87.562 87.2069 87.199 86.9369 86.713C86.6669 86.221 86.5319 85.6 86.5319 84.85V79.378ZM106.742 88L106.562 86.11V82.42C106.562 81.646 106.397 81.091 106.067 80.755C105.737 80.413 105.242 80.242 104.582 80.242C104.21 80.242 103.871 80.296 103.565 80.404C103.265 80.512 103.025 80.68 102.845 80.908C102.671 81.13 102.584 81.418 102.584 81.772H101.018C101.018 81.148 101.171 80.647 101.477 80.269C101.783 79.885 102.203 79.609 102.737 79.441C103.277 79.267 103.892 79.18 104.582 79.18C105.242 79.18 105.827 79.291 106.337 79.513C106.847 79.735 107.246 80.089 107.534 80.575C107.822 81.055 107.966 81.682 107.966 82.456V88H106.742ZM103.808 88.216C103.1 88.216 102.515 88.09 102.053 87.838C101.591 87.586 101.246 87.259 101.018 86.857C100.79 86.455 100.676 86.032 100.676 85.588C100.676 85.006 100.82 84.532 101.108 84.166C101.402 83.8 101.801 83.533 102.305 83.365C102.809 83.191 103.376 83.104 104.006 83.104C104.456 83.104 104.906 83.149 105.356 83.239C105.812 83.329 106.256 83.452 106.688 83.608V84.49C106.328 84.346 105.92 84.232 105.464 84.148C105.014 84.064 104.6 84.022 104.222 84.022C103.646 84.022 103.16 84.142 102.764 84.382C102.368 84.616 102.17 85.018 102.17 85.588C102.17 86.008 102.32 86.368 102.62 86.668C102.926 86.968 103.412 87.118 104.078 87.118C104.546 87.118 104.966 87.01 105.338 86.794C105.716 86.572 106.013 86.296 106.229 85.966C106.451 85.636 106.562 85.306 106.562 84.976H106.904C106.904 85.552 106.778 86.086 106.526 86.578C106.28 87.07 105.926 87.466 105.464 87.766C105.002 88.066 104.45 88.216 103.808 88.216ZM121.179 88V82.942C121.179 82.12 120.981 81.496 120.585 81.07C120.195 80.638 119.661 80.422 118.983 80.422C118.467 80.422 118.02 80.563 117.642 80.845C117.264 81.127 116.973 81.532 116.769 82.06C116.565 82.582 116.463 83.206 116.463 83.932H115.923C115.923 82.93 116.055 82.075 116.319 81.367C116.583 80.659 116.967 80.119 117.471 79.747C117.981 79.369 118.599 79.18 119.325 79.18C120.003 79.18 120.582 79.333 121.062 79.639C121.548 79.939 121.92 80.371 122.178 80.935C122.436 81.499 122.565 82.168 122.565 82.942V88H121.179ZM115.059 88V75.724H116.463V88H115.059ZM128.767 88.216C127.993 88.216 127.303 88.045 126.697 87.703C126.097 87.361 125.623 86.854 125.275 86.182C124.927 85.51 124.753 84.682 124.753 83.698C124.753 82.708 124.927 81.88 125.275 81.214C125.623 80.542 126.097 80.035 126.697 79.693C127.303 79.351 127.993 79.18 128.767 79.18C129.535 79.18 130.219 79.351 130.819 79.693C131.425 80.035 131.899 80.542 132.241 81.214C132.589 81.88 132.763 82.708 132.763 83.698C132.763 84.682 132.589 85.51 132.241 86.182C131.899 86.854 131.425 87.361 130.819 87.703C130.219 88.045 129.535 88.216 128.767 88.216ZM128.731 86.992C129.289 86.992 129.763 86.86 130.153 86.596C130.543 86.326 130.837 85.945 131.035 85.453C131.239 84.961 131.341 84.376 131.341 83.698C131.341 82.672 131.128 81.865 130.702 81.277C130.276 80.683 129.643 80.386 128.803 80.386C128.239 80.386 127.762 80.521 127.372 80.791C126.988 81.055 126.694 81.436 126.49 81.934C126.292 82.426 126.193 83.014 126.193 83.698C126.193 84.712 126.406 85.516 126.832 86.11C127.264 86.698 127.897 86.992 128.731 86.992ZM147.322 88V82.942C147.322 82.12 147.124 81.496 146.728 81.07C146.338 80.638 145.81 80.422 145.144 80.422C144.364 80.422 143.767 80.725 143.353 81.331C142.939 81.931 142.732 82.762 142.732 83.824H142.084C142.084 83.05 142.159 82.372 142.309 81.79C142.465 81.208 142.69 80.725 142.984 80.341C143.278 79.951 143.635 79.66 144.055 79.468C144.475 79.276 144.952 79.18 145.486 79.18C146.164 79.18 146.743 79.333 147.223 79.639C147.709 79.939 148.081 80.371 148.339 80.935C148.597 81.499 148.726 82.168 148.726 82.942V88H147.322ZM135.226 88V79.396H136.432L136.594 81.124C136.864 80.5 137.242 80.02 137.728 79.684C138.22 79.348 138.808 79.18 139.492 79.18C140.17 79.18 140.749 79.333 141.229 79.639C141.715 79.939 142.087 80.371 142.345 80.935C142.603 81.499 142.732 82.168 142.732 82.942V88H141.346V82.942C141.346 82.12 141.148 81.496 140.752 81.07C140.362 80.638 139.828 80.422 139.15 80.422C138.634 80.422 138.187 80.563 137.809 80.845C137.431 81.127 137.14 81.532 136.936 82.06C136.732 82.582 136.63 83.206 136.63 83.932V88H135.226ZM154.784 88.216C154.04 88.216 153.374 88.027 152.786 87.649C152.204 87.265 151.742 86.734 151.4 86.056C151.064 85.378 150.896 84.598 150.896 83.716C150.896 82.774 151.064 81.964 151.4 81.286C151.736 80.608 152.195 80.089 152.777 79.729C153.365 79.363 154.034 79.18 154.784 79.18C155.438 79.18 155.996 79.312 156.458 79.576C156.92 79.84 157.292 80.197 157.574 80.647C157.856 81.097 158.051 81.607 158.159 82.177C158.273 82.741 158.306 83.326 158.258 83.932H152.03V83.068H157.331L156.917 83.338C156.935 82.984 156.914 82.63 156.854 82.276C156.8 81.922 156.695 81.598 156.539 81.304C156.383 81.004 156.164 80.764 155.882 80.584C155.6 80.404 155.24 80.314 154.802 80.314C154.25 80.314 153.788 80.455 153.416 80.737C153.044 81.019 152.765 81.391 152.579 81.853C152.393 82.309 152.3 82.804 152.3 83.338V83.914C152.3 84.514 152.39 85.051 152.57 85.525C152.756 85.999 153.032 86.374 153.398 86.65C153.764 86.926 154.226 87.064 154.784 87.064C155.342 87.064 155.801 86.929 156.161 86.659C156.521 86.389 156.74 85.99 156.818 85.462H158.276C158.186 86.032 157.982 86.524 157.664 86.938C157.346 87.346 156.941 87.661 156.449 87.883C155.957 88.105 155.402 88.216 154.784 88.216ZM163.886 88.216C163.112 88.216 162.422 88.045 161.816 87.703C161.216 87.361 160.742 86.854 160.394 86.182C160.046 85.51 159.872 84.682 159.872 83.698C159.872 82.708 160.046 81.88 160.394 81.214C160.742 80.542 161.216 80.035 161.816 79.693C162.422 79.351 163.112 79.18 163.886 79.18C164.654 79.18 165.338 79.351 165.938 79.693C166.544 80.035 167.018 80.542 167.36 81.214C167.708 81.88 167.882 82.708 167.882 83.698C167.882 84.682 167.708 85.51 167.36 86.182C167.018 86.854 166.544 87.361 165.938 87.703C165.338 88.045 164.654 88.216 163.886 88.216ZM163.85 86.992C164.408 86.992 164.882 86.86 165.272 86.596C165.662 86.326 165.956 85.945 166.154 85.453C166.358 84.961 166.46 84.376 166.46 83.698C166.46 82.672 166.247 81.865 165.821 81.277C165.395 80.683 164.762 80.386 163.922 80.386C163.358 80.386 162.881 80.521 162.491 80.791C162.107 81.055 161.813 81.436 161.609 81.934C161.411 82.426 161.312 83.014 161.312 83.698C161.312 84.712 161.525 85.516 161.951 86.11C162.383 86.698 163.016 86.992 163.85 86.992ZM168.852 79.396H170.31L172.506 86.578H172.326L174.468 79.81H175.638L177.762 86.596H177.6L179.796 79.396H181.2L178.374 88H177.006L174.918 81.646H175.134L173.064 88H171.696L168.852 79.396ZM189.239 88V82.942C189.239 82.12 189.041 81.496 188.645 81.07C188.255 80.638 187.721 80.422 187.043 80.422C186.527 80.422 186.08 80.563 185.702 80.845C185.324 81.127 185.033 81.532 184.829 82.06C184.625 82.582 184.523 83.206 184.523 83.932H183.983C183.983 82.93 184.115 82.075 184.379 81.367C184.643 80.659 185.027 80.119 185.531 79.747C186.041 79.369 186.659 79.18 187.385 79.18C188.063 79.18 188.642 79.333 189.122 79.639C189.608 79.939 189.98 80.371 190.238 80.935C190.496 81.499 190.625 82.168 190.625 82.942V88H189.239ZM183.119 88V79.396H184.325L184.523 81.376V88H183.119ZM196.7 88.216C195.956 88.216 195.29 88.027 194.702 87.649C194.12 87.265 193.658 86.734 193.316 86.056C192.98 85.378 192.812 84.598 192.812 83.716C192.812 82.774 192.98 81.964 193.316 81.286C193.652 80.608 194.111 80.089 194.693 79.729C195.281 79.363 195.95 79.18 196.7 79.18C197.354 79.18 197.912 79.312 198.374 79.576C198.836 79.84 199.208 80.197 199.49 80.647C199.772 81.097 199.967 81.607 200.075 82.177C200.189 82.741 200.222 83.326 200.174 83.932H193.946V83.068H199.247L198.833 83.338C198.851 82.984 198.83 82.63 198.77 82.276C198.716 81.922 198.611 81.598 198.455 81.304C198.299 81.004 198.08 80.764 197.798 80.584C197.516 80.404 197.156 80.314 196.718 80.314C196.166 80.314 195.704 80.455 195.332 80.737C194.96 81.019 194.681 81.391 194.495 81.853C194.309 82.309 194.216 82.804 194.216 83.338V83.914C194.216 84.514 194.306 85.051 194.486 85.525C194.672 85.999 194.948 86.374 195.314 86.65C195.68 86.926 196.142 87.064 196.7 87.064C197.258 87.064 197.717 86.929 198.077 86.659C198.437 86.389 198.656 85.99 198.734 85.462H200.192C200.102 86.032 199.898 86.524 199.58 86.938C199.262 87.346 198.857 87.661 198.365 87.883C197.873 88.105 197.318 88.216 196.7 88.216ZM202.688 88V79.378H204.092V88H202.688ZM203.66 84.112C203.66 83.02 203.765 82.114 203.975 81.394C204.185 80.668 204.491 80.128 204.893 79.774C205.301 79.414 205.796 79.234 206.378 79.234C206.57 79.234 206.744 79.249 206.9 79.279C207.062 79.303 207.224 79.342 207.386 79.396L207.296 80.782C207.128 80.728 206.945 80.683 206.747 80.647C206.549 80.605 206.372 80.584 206.216 80.584C205.706 80.584 205.295 80.731 204.983 81.025C204.671 81.313 204.443 81.721 204.299 82.249C204.161 82.777 204.092 83.398 204.092 84.112H203.66ZM211.43 79.396H212.888L215.084 86.578H214.904L217.046 79.81H218.216L220.34 86.596H220.178L222.374 79.396H223.778L220.952 88H219.584L217.496 81.646H217.712L215.642 88H214.274L211.43 79.396ZM231.817 88V82.942C231.817 82.12 231.619 81.496 231.223 81.07C230.833 80.638 230.299 80.422 229.621 80.422C229.105 80.422 228.658 80.563 228.28 80.845C227.902 81.127 227.611 81.532 227.407 82.06C227.203 82.582 227.101 83.206 227.101 83.932H226.561C226.561 82.93 226.693 82.075 226.957 81.367C227.221 80.659 227.605 80.119 228.109 79.747C228.619 79.369 229.237 79.18 229.963 79.18C230.641 79.18 231.22 79.333 231.7 79.639C232.186 79.939 232.558 80.371 232.816 80.935C233.074 81.499 233.203 82.168 233.203 82.942V88H231.817ZM225.697 88V75.724H227.101V88H225.697ZM239.404 88.216C238.63 88.216 237.94 88.045 237.334 87.703C236.734 87.361 236.26 86.854 235.912 86.182C235.564 85.51 235.39 84.682 235.39 83.698C235.39 82.708 235.564 81.88 235.912 81.214C236.26 80.542 236.734 80.035 237.334 79.693C237.94 79.351 238.63 79.18 239.404 79.18C240.172 79.18 240.856 79.351 241.456 79.693C242.062 80.035 242.536 80.542 242.878 81.214C243.226 81.88 243.4 82.708 243.4 83.698C243.4 84.682 243.226 85.51 242.878 86.182C242.536 86.854 242.062 87.361 241.456 87.703C240.856 88.045 240.172 88.216 239.404 88.216ZM239.368 86.992C239.926 86.992 240.4 86.86 240.79 86.596C241.18 86.326 241.474 85.945 241.672 85.453C241.876 84.961 241.978 84.376 241.978 83.698C241.978 82.672 241.765 81.865 241.339 81.277C240.913 80.683 240.28 80.386 239.44 80.386C238.876 80.386 238.399 80.521 238.009 80.791C237.625 81.055 237.331 81.436 237.127 81.934C236.929 82.426 236.83 83.014 236.83 83.698C236.83 84.712 237.043 85.516 237.469 86.11C237.901 86.698 238.534 86.992 239.368 86.992ZM255.985 88V82.942C255.985 82.12 255.787 81.496 255.391 81.07C255.001 80.638 254.467 80.422 253.789 80.422C253.273 80.422 252.826 80.563 252.448 80.845C252.07 81.127 251.779 81.532 251.575 82.06C251.371 82.582 251.269 83.206 251.269 83.932H250.729C250.729 82.93 250.861 82.075 251.125 81.367C251.389 80.659 251.773 80.119 252.277 79.747C252.787 79.369 253.405 79.18 254.131 79.18C254.809 79.18 255.388 79.333 255.868 79.639C256.354 79.939 256.726 80.371 256.984 80.935C257.242 81.499 257.371 82.168 257.371 82.942V88H255.985ZM249.865 88V79.396H251.071L251.269 81.376V88H249.865ZM263.447 88.216C262.703 88.216 262.037 88.027 261.449 87.649C260.867 87.265 260.405 86.734 260.063 86.056C259.727 85.378 259.559 84.598 259.559 83.716C259.559 82.774 259.727 81.964 260.063 81.286C260.399 80.608 260.858 80.089 261.44 79.729C262.028 79.363 262.697 79.18 263.447 79.18C264.101 79.18 264.659 79.312 265.121 79.576C265.583 79.84 265.955 80.197 266.237 80.647C266.519 81.097 266.714 81.607 266.822 82.177C266.936 82.741 266.969 83.326 266.921 83.932H260.693V83.068H265.994L265.58 83.338C265.598 82.984 265.577 82.63 265.517 82.276C265.463 81.922 265.358 81.598 265.202 81.304C265.046 81.004 264.827 80.764 264.545 80.584C264.263 80.404 263.903 80.314 263.465 80.314C262.913 80.314 262.451 80.455 262.079 80.737C261.707 81.019 261.428 81.391 261.242 81.853C261.056 82.309 260.963 82.804 260.963 83.338V83.914C260.963 84.514 261.053 85.051 261.233 85.525C261.419 85.999 261.695 86.374 262.061 86.65C262.427 86.926 262.889 87.064 263.447 87.064C264.005 87.064 264.464 86.929 264.824 86.659C265.184 86.389 265.403 85.99 265.481 85.462H266.939C266.849 86.032 266.645 86.524 266.327 86.938C266.009 87.346 265.604 87.661 265.112 87.883C264.62 88.105 264.065 88.216 263.447 88.216ZM272.423 88.216C271.679 88.216 271.013 88.027 270.425 87.649C269.843 87.265 269.381 86.734 269.039 86.056C268.703 85.378 268.535 84.598 268.535 83.716C268.535 82.774 268.703 81.964 269.039 81.286C269.375 80.608 269.834 80.089 270.416 79.729C271.004 79.363 271.673 79.18 272.423 79.18C273.077 79.18 273.635 79.312 274.097 79.576C274.559 79.84 274.931 80.197 275.213 80.647C275.495 81.097 275.69 81.607 275.798 82.177C275.912 82.741 275.945 83.326 275.897 83.932H269.669V83.068H274.97L274.556 83.338C274.574 82.984 274.553 82.63 274.493 82.276C274.439 81.922 274.334 81.598 274.178 81.304C274.022 81.004 273.803 80.764 273.521 80.584C273.239 80.404 272.879 80.314 272.441 80.314C271.889 80.314 271.427 80.455 271.055 80.737C270.683 81.019 270.404 81.391 270.218 81.853C270.032 82.309 269.939 82.804 269.939 83.338V83.914C269.939 84.514 270.029 85.051 270.209 85.525C270.395 85.999 270.671 86.374 271.037 86.65C271.403 86.926 271.865 87.064 272.423 87.064C272.981 87.064 273.44 86.929 273.8 86.659C274.16 86.389 274.379 85.99 274.457 85.462H275.915C275.825 86.032 275.621 86.524 275.303 86.938C274.985 87.346 274.58 87.661 274.088 87.883C273.596 88.105 273.041 88.216 272.423 88.216ZM281.489 88.216C280.793 88.216 280.154 88.03 279.572 87.658C278.99 87.28 278.525 86.752 278.177 86.074C277.829 85.39 277.655 84.586 277.655 83.662C277.655 82.744 277.826 81.949 278.168 81.277C278.51 80.605 278.963 80.089 279.527 79.729C280.097 79.363 280.721 79.18 281.399 79.18C282.029 79.18 282.581 79.333 283.055 79.639C283.535 79.945 283.907 80.386 284.171 80.962C284.435 81.538 284.567 82.234 284.567 83.05H284.027C284.027 82.48 283.913 82 283.685 81.61C283.463 81.22 283.172 80.926 282.812 80.728C282.452 80.524 282.065 80.422 281.651 80.422C281.183 80.422 280.754 80.554 280.364 80.818C279.98 81.076 279.671 81.448 279.437 81.934C279.209 82.414 279.095 82.99 279.095 83.662C279.095 84.346 279.209 84.934 279.437 85.426C279.671 85.918 279.98 86.296 280.364 86.56C280.754 86.824 281.183 86.956 281.651 86.956C282.041 86.956 282.416 86.854 282.776 86.65C283.142 86.446 283.442 86.149 283.676 85.759C283.91 85.363 284.027 84.886 284.027 84.328H284.567C284.567 85.162 284.429 85.87 284.153 86.452C283.883 87.028 283.514 87.466 283.046 87.766C282.584 88.066 282.065 88.216 281.489 88.216ZM284.261 88L284.027 85.984V75.724H285.431V88H284.261ZM291.907 88.216C291.073 88.216 290.377 88.099 289.819 87.865C289.261 87.625 288.838 87.298 288.55 86.884C288.262 86.464 288.109 85.984 288.091 85.444H289.441C289.471 85.99 289.69 86.401 290.098 86.677C290.512 86.947 291.073 87.082 291.781 87.082C292.153 87.082 292.495 87.022 292.807 86.902C293.119 86.782 293.368 86.617 293.554 86.407C293.74 86.197 293.833 85.96 293.833 85.696C293.833 85.36 293.71 85.096 293.464 84.904C293.218 84.712 292.825 84.544 292.285 84.4L290.611 83.86C289.885 83.632 289.327 83.32 288.937 82.924C288.553 82.522 288.361 82.042 288.361 81.484C288.361 80.788 288.667 80.23 289.279 79.81C289.891 79.39 290.695 79.18 291.691 79.18C292.747 79.18 293.566 79.396 294.148 79.828C294.73 80.26 295.033 80.8 295.057 81.448H293.671C293.617 81.07 293.425 80.785 293.095 80.593C292.765 80.395 292.297 80.296 291.691 80.296C291.109 80.296 290.653 80.428 290.323 80.692C289.999 80.95 289.837 81.238 289.837 81.556C289.837 82.15 290.347 82.588 291.367 82.87L293.077 83.446C293.815 83.668 294.379 83.959 294.769 84.319C295.165 84.679 295.363 85.138 295.363 85.696C295.363 86.128 295.222 86.536 294.94 86.92C294.658 87.304 294.259 87.616 293.743 87.856C293.227 88.096 292.615 88.216 291.907 88.216ZM305.041 92.428C304.159 92.428 303.394 92.302 302.746 92.05C302.098 91.804 301.594 91.471 301.234 91.051C300.88 90.637 300.703 90.178 300.703 89.674C300.703 89.008 300.946 88.498 301.432 88.144C301.924 87.796 302.557 87.622 303.331 87.622L304.105 88.108C303.457 88.108 302.956 88.243 302.602 88.513C302.248 88.783 302.071 89.152 302.071 89.62C302.071 90.088 302.323 90.484 302.827 90.808C303.331 91.132 304.069 91.294 305.041 91.294C305.761 91.294 306.391 91.189 306.931 90.979C307.477 90.775 307.9 90.505 308.2 90.169C308.506 89.839 308.659 89.482 308.659 89.098C308.659 88.828 308.56 88.594 308.362 88.396C308.164 88.204 307.861 88.108 307.453 88.108H304.105C303.523 88.108 303.019 88.021 302.593 87.847C302.173 87.667 301.849 87.433 301.621 87.145C301.393 86.857 301.279 86.542 301.279 86.2C301.279 85.84 301.381 85.534 301.585 85.282C301.789 85.03 302.053 84.838 302.377 84.706C302.707 84.574 303.061 84.508 303.439 84.508L303.709 85.03C303.529 85.03 303.346 85.072 303.16 85.156C302.98 85.234 302.827 85.354 302.701 85.516C302.581 85.672 302.521 85.87 302.521 86.11C302.521 86.386 302.635 86.617 302.863 86.803C303.091 86.989 303.505 87.082 304.105 87.082H307.453C308.263 87.082 308.899 87.253 309.361 87.595C309.829 87.937 310.063 88.414 310.063 89.026C310.063 89.59 309.862 90.13 309.46 90.646C309.058 91.168 308.482 91.594 307.732 91.924C306.982 92.26 306.085 92.428 305.041 92.428ZM305.293 85.48C304.633 85.48 304.036 85.348 303.502 85.084C302.974 84.82 302.554 84.451 302.242 83.977C301.936 83.503 301.783 82.954 301.783 82.33C301.783 81.7 301.936 81.148 302.242 80.674C302.554 80.2 302.974 79.834 303.502 79.576C304.036 79.312 304.633 79.18 305.293 79.18C305.935 79.18 306.517 79.312 307.039 79.576C307.567 79.834 307.987 80.2 308.299 80.674C308.611 81.148 308.767 81.7 308.767 82.33C308.767 82.954 308.611 83.503 308.299 83.977C307.987 84.451 307.567 84.82 307.039 85.084C306.517 85.348 305.935 85.48 305.293 85.48ZM305.293 84.472C305.953 84.472 306.466 84.268 306.832 83.86C307.198 83.452 307.381 82.942 307.381 82.33C307.381 81.7 307.198 81.19 306.832 80.8C306.466 80.404 305.953 80.206 305.293 80.206C304.639 80.206 304.123 80.404 303.745 80.8C303.373 81.19 303.187 81.7 303.187 82.33C303.187 82.942 303.373 83.452 303.745 83.86C304.123 84.268 304.639 84.472 305.293 84.472ZM308.119 80.548L307.453 80.278C307.453 79.774 307.552 79.333 307.75 78.955C307.948 78.571 308.23 78.274 308.596 78.064C308.962 77.848 309.397 77.74 309.901 77.74L309.793 79.126C309.253 79.126 308.839 79.243 308.551 79.477C308.263 79.705 308.119 80.062 308.119 80.548ZM317.739 79.378H319.143V88H317.739V79.378ZM311.637 79.378H313.041V84.742C313.041 85.462 313.215 86.008 313.563 86.38C313.917 86.752 314.421 86.938 315.075 86.938C315.615 86.938 316.083 86.794 316.479 86.506C316.881 86.218 317.19 85.822 317.406 85.318C317.628 84.808 317.739 84.226 317.739 83.572H318.261C318.261 84.538 318.12 85.363 317.838 86.047C317.562 86.731 317.169 87.256 316.659 87.622C316.155 87.982 315.561 88.162 314.877 88.162C314.229 88.162 313.662 88.042 313.176 87.802C312.69 87.562 312.312 87.199 312.042 86.713C311.772 86.221 311.637 85.6 311.637 84.85V79.378ZM323.31 77.362C323.022 77.362 322.794 77.281 322.626 77.119C322.458 76.951 322.374 76.732 322.374 76.462C322.374 76.198 322.458 75.988 322.626 75.832C322.794 75.676 323.022 75.598 323.31 75.598C323.598 75.598 323.826 75.676 323.994 75.832C324.162 75.988 324.246 76.198 324.246 76.462C324.246 76.732 324.162 76.951 323.994 77.119C323.826 77.281 323.598 77.362 323.31 77.362ZM322.608 88V79.378H324.012V88H322.608ZM330.687 88.216C329.991 88.216 329.352 88.03 328.77 87.658C328.188 87.28 327.723 86.752 327.375 86.074C327.027 85.39 326.853 84.586 326.853 83.662C326.853 82.744 327.024 81.949 327.366 81.277C327.708 80.605 328.161 80.089 328.725 79.729C329.295 79.363 329.919 79.18 330.597 79.18C331.227 79.18 331.779 79.333 332.253 79.639C332.733 79.945 333.105 80.386 333.369 80.962C333.633 81.538 333.765 82.234 333.765 83.05H333.225C333.225 82.48 333.111 82 332.883 81.61C332.661 81.22 332.37 80.926 332.01 80.728C331.65 80.524 331.263 80.422 330.849 80.422C330.381 80.422 329.952 80.554 329.562 80.818C329.178 81.076 328.869 81.448 328.635 81.934C328.407 82.414 328.293 82.99 328.293 83.662C328.293 84.346 328.407 84.934 328.635 85.426C328.869 85.918 329.178 86.296 329.562 86.56C329.952 86.824 330.381 86.956 330.849 86.956C331.239 86.956 331.614 86.854 331.974 86.65C332.34 86.446 332.64 86.149 332.874 85.759C333.108 85.363 333.225 84.886 333.225 84.328H333.765C333.765 85.162 333.627 85.87 333.351 86.452C333.081 87.028 332.712 87.466 332.244 87.766C331.782 88.066 331.263 88.216 330.687 88.216ZM333.459 88L333.225 85.984V75.724H334.629V88H333.459ZM343.337 88L343.157 86.11V82.42C343.157 81.646 342.992 81.091 342.662 80.755C342.332 80.413 341.837 80.242 341.177 80.242C340.805 80.242 340.466 80.296 340.16 80.404C339.86 80.512 339.62 80.68 339.44 80.908C339.266 81.13 339.179 81.418 339.179 81.772H337.613C337.613 81.148 337.766 80.647 338.072 80.269C338.378 79.885 338.798 79.609 339.332 79.441C339.872 79.267 340.487 79.18 341.177 79.18C341.837 79.18 342.422 79.291 342.932 79.513C343.442 79.735 343.841 80.089 344.129 80.575C344.417 81.055 344.561 81.682 344.561 82.456V88H343.337ZM340.403 88.216C339.695 88.216 339.11 88.09 338.648 87.838C338.186 87.586 337.841 87.259 337.613 86.857C337.385 86.455 337.271 86.032 337.271 85.588C337.271 85.006 337.415 84.532 337.703 84.166C337.997 83.8 338.396 83.533 338.9 83.365C339.404 83.191 339.971 83.104 340.601 83.104C341.051 83.104 341.501 83.149 341.951 83.239C342.407 83.329 342.851 83.452 343.283 83.608V84.49C342.923 84.346 342.515 84.232 342.059 84.148C341.609 84.064 341.195 84.022 340.817 84.022C340.241 84.022 339.755 84.142 339.359 84.382C338.963 84.616 338.765 85.018 338.765 85.588C338.765 86.008 338.915 86.368 339.215 86.668C339.521 86.968 340.007 87.118 340.673 87.118C341.141 87.118 341.561 87.01 341.933 86.794C342.311 86.572 342.608 86.296 342.824 85.966C343.046 85.636 343.157 85.306 343.157 84.976H343.499C343.499 85.552 343.373 86.086 343.121 86.578C342.875 87.07 342.521 87.466 342.059 87.766C341.597 88.066 341.045 88.216 340.403 88.216ZM353.773 88V82.942C353.773 82.12 353.575 81.496 353.179 81.07C352.789 80.638 352.255 80.422 351.577 80.422C351.061 80.422 350.614 80.563 350.236 80.845C349.858 81.127 349.567 81.532 349.363 82.06C349.159 82.582 349.057 83.206 349.057 83.932H348.517C348.517 82.93 348.649 82.075 348.913 81.367C349.177 80.659 349.561 80.119 350.065 79.747C350.575 79.369 351.193 79.18 351.919 79.18C352.597 79.18 353.176 79.333 353.656 79.639C354.142 79.939 354.514 80.371 354.772 80.935C355.03 81.499 355.159 82.168 355.159 82.942V88H353.773ZM347.653 88V79.396H348.859L349.057 81.376V88H347.653ZM361.27 88.216C360.58 88.216 359.935 88.03 359.335 87.658C358.741 87.286 358.261 86.761 357.895 86.083C357.529 85.405 357.346 84.604 357.346 83.68C357.346 82.732 357.529 81.922 357.895 81.25C358.261 80.578 358.741 80.065 359.335 79.711C359.935 79.357 360.58 79.18 361.27 79.18C361.756 79.18 362.191 79.255 362.575 79.405C362.965 79.549 363.304 79.75 363.592 80.008C363.88 80.266 364.117 80.56 364.303 80.89C364.495 81.214 364.636 81.556 364.726 81.916L363.286 82.042C363.136 81.544 362.884 81.151 362.53 80.863C362.182 80.569 361.756 80.422 361.252 80.422C360.826 80.422 360.424 80.545 360.046 80.791C359.674 81.031 359.371 81.394 359.137 81.88C358.903 82.36 358.786 82.96 358.786 83.68C358.786 84.346 358.891 84.925 359.101 85.417C359.317 85.903 359.611 86.281 359.983 86.551C360.355 86.821 360.778 86.956 361.252 86.956C361.918 86.956 362.422 86.794 362.764 86.47C363.112 86.14 363.286 85.684 363.286 85.102H364.726C364.726 85.702 364.585 86.236 364.303 86.704C364.021 87.172 363.619 87.541 363.097 87.811C362.581 88.081 361.972 88.216 361.27 88.216ZM370.246 88.216C369.502 88.216 368.836 88.027 368.248 87.649C367.666 87.265 367.204 86.734 366.862 86.056C366.526 85.378 366.358 84.598 366.358 83.716C366.358 82.774 366.526 81.964 366.862 81.286C367.198 80.608 367.657 80.089 368.239 79.729C368.827 79.363 369.496 79.18 370.246 79.18C370.9 79.18 371.458 79.312 371.92 79.576C372.382 79.84 372.754 80.197 373.036 80.647C373.318 81.097 373.513 81.607 373.621 82.177C373.735 82.741 373.768 83.326 373.72 83.932H367.492V83.068H372.793L372.379 83.338C372.397 82.984 372.376 82.63 372.316 82.276C372.262 81.922 372.157 81.598 372.001 81.304C371.845 81.004 371.626 80.764 371.344 80.584C371.062 80.404 370.702 80.314 370.264 80.314C369.712 80.314 369.25 80.455 368.878 80.737C368.506 81.019 368.227 81.391 368.041 81.853C367.855 82.309 367.762 82.804 367.762 83.338V83.914C367.762 84.514 367.852 85.051 368.032 85.525C368.218 85.999 368.494 86.374 368.86 86.65C369.226 86.926 369.688 87.064 370.246 87.064C370.804 87.064 371.263 86.929 371.623 86.659C371.983 86.389 372.202 85.99 372.28 85.462H373.738C373.648 86.032 373.444 86.524 373.126 86.938C372.808 87.346 372.403 87.661 371.911 87.883C371.419 88.105 370.864 88.216 370.246 88.216ZM42.932 117.216C42.158 117.216 41.468 117.045 40.862 116.703C40.262 116.361 39.788 115.854 39.44 115.182C39.092 114.51 38.918 113.682 38.918 112.698C38.918 111.708 39.092 110.88 39.44 110.214C39.788 109.542 40.262 109.035 40.862 108.693C41.468 108.351 42.158 108.18 42.932 108.18C43.7 108.18 44.384 108.351 44.984 108.693C45.59 109.035 46.064 109.542 46.406 110.214C46.754 110.88 46.928 111.708 46.928 112.698C46.928 113.682 46.754 114.51 46.406 115.182C46.064 115.854 45.59 116.361 44.984 116.703C44.384 117.045 43.7 117.216 42.932 117.216ZM42.896 115.992C43.454 115.992 43.928 115.86 44.318 115.596C44.708 115.326 45.002 114.945 45.2 114.453C45.404 113.961 45.506 113.376 45.506 112.698C45.506 111.672 45.293 110.865 44.867 110.277C44.441 109.683 43.808 109.386 42.968 109.386C42.404 109.386 41.927 109.521 41.537 109.791C41.153 110.055 40.859 110.436 40.655 110.934C40.457 111.426 40.358 112.014 40.358 112.698C40.358 113.712 40.571 114.516 40.997 115.11C41.429 115.698 42.062 115.992 42.896 115.992ZM49.3917 117V108.378H50.7957V117H49.3917ZM50.3637 113.112C50.3637 112.02 50.4687 111.114 50.6787 110.394C50.8887 109.668 51.1947 109.128 51.5967 108.774C52.0047 108.414 52.4997 108.234 53.0817 108.234C53.2738 108.234 53.4477 108.249 53.6037 108.279C53.7657 108.303 53.9277 108.342 54.0897 108.396L53.9997 109.782C53.8317 109.728 53.6488 109.683 53.4508 109.647C53.2527 109.605 53.0757 109.584 52.9197 109.584C52.4097 109.584 51.9987 109.731 51.6867 110.025C51.3747 110.313 51.1467 110.721 51.0027 111.249C50.8647 111.777 50.7957 112.398 50.7957 113.112H50.3637ZM64.9551 117L64.7751 115.11V111.42C64.7751 110.646 64.6101 110.091 64.2801 109.755C63.9501 109.413 63.4551 109.242 62.7951 109.242C62.4231 109.242 62.0841 109.296 61.7781 109.404C61.4781 109.512 61.2381 109.68 61.0581 109.908C60.8841 110.13 60.7971 110.418 60.7971 110.772H59.2311C59.2311 110.148 59.3841 109.647 59.6901 109.269C59.9961 108.885 60.4161 108.609 60.9501 108.441C61.4901 108.267 62.1051 108.18 62.7951 108.18C63.4551 108.18 64.0401 108.291 64.5501 108.513C65.0601 108.735 65.4591 109.089 65.7471 109.575C66.0351 110.055 66.1791 110.682 66.1791 111.456V117H64.9551ZM62.0211 117.216C61.3131 117.216 60.7281 117.09 60.2661 116.838C59.8041 116.586 59.4591 116.259 59.2311 115.857C59.0031 115.455 58.8891 115.032 58.8891 114.588C58.8891 114.006 59.0331 113.532 59.3211 113.166C59.6151 112.8 60.0141 112.533 60.5181 112.365C61.0221 112.191 61.5891 112.104 62.2191 112.104C62.6691 112.104 63.1191 112.149 63.5691 112.239C64.0251 112.329 64.4691 112.452 64.9011 112.608V113.49C64.5411 113.346 64.1331 113.232 63.6771 113.148C63.2271 113.064 62.8131 113.022 62.4351 113.022C61.8591 113.022 61.3731 113.142 60.9771 113.382C60.5811 113.616 60.3831 114.018 60.3831 114.588C60.3831 115.008 60.5331 115.368 60.8331 115.668C61.1391 115.968 61.6251 116.118 62.2911 116.118C62.7591 116.118 63.1791 116.01 63.5511 115.794C63.9291 115.572 64.2261 115.296 64.4421 114.966C64.6641 114.636 64.7751 114.306 64.7751 113.976H65.1171C65.1171 114.552 64.9911 115.086 64.7391 115.578C64.4931 116.07 64.1391 116.466 63.6771 116.766C63.2151 117.066 62.6631 117.216 62.0211 117.216ZM72.3672 117.216C71.5332 117.216 70.8372 117.099 70.2792 116.865C69.7212 116.625 69.2982 116.298 69.0102 115.884C68.7222 115.464 68.5692 114.984 68.5512 114.444H69.9012C69.9312 114.99 70.1502 115.401 70.5582 115.677C70.9722 115.947 71.5332 116.082 72.2412 116.082C72.6132 116.082 72.9552 116.022 73.2672 115.902C73.5792 115.782 73.8282 115.617 74.0142 115.407C74.2002 115.197 74.2932 114.96 74.2932 114.696C74.2932 114.36 74.1702 114.096 73.9242 113.904C73.6782 113.712 73.2852 113.544 72.7452 113.4L71.0712 112.86C70.3452 112.632 69.7872 112.32 69.3972 111.924C69.0132 111.522 68.8212 111.042 68.8212 110.484C68.8212 109.788 69.1272 109.23 69.7392 108.81C70.3512 108.39 71.1552 108.18 72.1512 108.18C73.2072 108.18 74.0262 108.396 74.6082 108.828C75.1902 109.26 75.4932 109.8 75.5172 110.448H74.1312C74.0772 110.07 73.8852 109.785 73.5552 109.593C73.2252 109.395 72.7572 109.296 72.1512 109.296C71.5692 109.296 71.1132 109.428 70.7832 109.692C70.4592 109.95 70.2972 110.238 70.2972 110.556C70.2972 111.15 70.8072 111.588 71.8272 111.87L73.5372 112.446C74.2752 112.668 74.8392 112.959 75.2292 113.319C75.6252 113.679 75.8232 114.138 75.8232 114.696C75.8232 115.128 75.6822 115.536 75.4002 115.92C75.1182 116.304 74.7192 116.616 74.2032 116.856C73.6872 117.096 73.0752 117.216 72.3672 117.216ZM81.5542 117.216C80.7202 117.216 80.0242 117.099 79.4662 116.865C78.9082 116.625 78.4852 116.298 78.1972 115.884C77.9092 115.464 77.7562 114.984 77.7382 114.444H79.0882C79.1182 114.99 79.3372 115.401 79.7452 115.677C80.1592 115.947 80.7202 116.082 81.4282 116.082C81.8002 116.082 82.1422 116.022 82.4542 115.902C82.7662 115.782 83.0152 115.617 83.2012 115.407C83.3872 115.197 83.4802 114.96 83.4802 114.696C83.4802 114.36 83.3572 114.096 83.1112 113.904C82.8652 113.712 82.4722 113.544 81.9322 113.4L80.2582 112.86C79.5322 112.632 78.9742 112.32 78.5842 111.924C78.2002 111.522 78.0082 111.042 78.0082 110.484C78.0082 109.788 78.3142 109.23 78.9262 108.81C79.5382 108.39 80.3422 108.18 81.3382 108.18C82.3942 108.18 83.2132 108.396 83.7952 108.828C84.3772 109.26 84.6802 109.8 84.7042 110.448H83.3182C83.2642 110.07 83.0722 109.785 82.7422 109.593C82.4122 109.395 81.9442 109.296 81.3382 109.296C80.7562 109.296 80.3002 109.428 79.9702 109.692C79.6462 109.95 79.4842 110.238 79.4842 110.556C79.4842 111.15 79.9942 111.588 81.0142 111.87L82.7242 112.446C83.4622 112.668 84.0262 112.959 84.4162 113.319C84.8122 113.679 85.0102 114.138 85.0102 114.696C85.0102 115.128 84.8692 115.536 84.5872 115.92C84.3052 116.304 83.9062 116.616 83.3902 116.856C82.8742 117.096 82.2622 117.216 81.5542 117.216ZM88.4373 106.362C88.1493 106.362 87.9213 106.281 87.7533 106.119C87.5853 105.951 87.5013 105.732 87.5013 105.462C87.5013 105.198 87.5853 104.988 87.7533 104.832C87.9213 104.676 88.1493 104.598 88.4373 104.598C88.7253 104.598 88.9533 104.676 89.1213 104.832C89.2893 104.988 89.3733 105.198 89.3733 105.462C89.3733 105.732 89.2893 105.951 89.1213 106.119C88.9533 106.281 88.7253 106.362 88.4373 106.362ZM87.7353 117V108.378H89.1393V117H87.7353ZM95.8326 117.216C94.9986 117.216 94.3026 117.099 93.7446 116.865C93.1866 116.625 92.7636 116.298 92.4756 115.884C92.1876 115.464 92.0346 114.984 92.0166 114.444H93.3666C93.3966 114.99 93.6156 115.401 94.0236 115.677C94.4376 115.947 94.9986 116.082 95.7066 116.082C96.0786 116.082 96.4206 116.022 96.7326 115.902C97.0446 115.782 97.2936 115.617 97.4796 115.407C97.6656 115.197 97.7586 114.96 97.7586 114.696C97.7586 114.36 97.6356 114.096 97.3896 113.904C97.1436 113.712 96.7506 113.544 96.2106 113.4L94.5366 112.86C93.8106 112.632 93.2526 112.32 92.8626 111.924C92.4786 111.522 92.2866 111.042 92.2866 110.484C92.2866 109.788 92.5926 109.23 93.2046 108.81C93.8166 108.39 94.6206 108.18 95.6166 108.18C96.6726 108.18 97.4916 108.396 98.0736 108.828C98.6556 109.26 98.9586 109.8 98.9826 110.448H97.5966C97.5426 110.07 97.3506 109.785 97.0206 109.593C96.6906 109.395 96.2226 109.296 95.6166 109.296C95.0346 109.296 94.5786 109.428 94.2486 109.692C93.9246 109.95 93.7626 110.238 93.7626 110.556C93.7626 111.15 94.2726 111.588 95.2926 111.87L97.0026 112.446C97.7406 112.668 98.3046 112.959 98.6946 113.319C99.0906 113.679 99.2886 114.138 99.2886 114.696C99.2886 115.128 99.1476 115.536 98.8656 115.92C98.5836 116.304 98.1846 116.616 97.6686 116.856C97.1526 117.096 96.5406 117.216 95.8326 117.216ZM104.57 117.216C104.102 117.216 103.682 117.126 103.31 116.946C102.938 116.766 102.644 116.496 102.428 116.136C102.212 115.776 102.104 115.326 102.104 114.786V106.002H103.49V114.75C103.49 115.638 103.904 116.082 104.732 116.082C104.978 116.082 105.215 116.055 105.443 116.001C105.677 115.947 105.938 115.866 106.226 115.758L106.424 116.766C106.118 116.898 105.812 117.006 105.506 117.09C105.206 117.174 104.894 117.216 104.57 117.216ZM100.718 109.368V108.396H106.208V109.368H100.718ZM113.749 117L113.569 115.11V111.42C113.569 110.646 113.404 110.091 113.074 109.755C112.744 109.413 112.249 109.242 111.589 109.242C111.217 109.242 110.878 109.296 110.572 109.404C110.272 109.512 110.032 109.68 109.852 109.908C109.678 110.13 109.591 110.418 109.591 110.772H108.025C108.025 110.148 108.178 109.647 108.484 109.269C108.79 108.885 109.21 108.609 109.744 108.441C110.284 108.267 110.899 108.18 111.589 108.18C112.249 108.18 112.834 108.291 113.344 108.513C113.854 108.735 114.253 109.089 114.541 109.575C114.829 110.055 114.973 110.682 114.973 111.456V117H113.749ZM110.815 117.216C110.107 117.216 109.522 117.09 109.06 116.838C108.598 116.586 108.253 116.259 108.025 115.857C107.797 115.455 107.683 115.032 107.683 114.588C107.683 114.006 107.827 113.532 108.115 113.166C108.409 112.8 108.808 112.533 109.312 112.365C109.816 112.191 110.383 112.104 111.013 112.104C111.463 112.104 111.913 112.149 112.363 112.239C112.819 112.329 113.263 112.452 113.695 112.608V113.49C113.335 113.346 112.927 113.232 112.471 113.148C112.021 113.064 111.607 113.022 111.229 113.022C110.653 113.022 110.167 113.142 109.771 113.382C109.375 113.616 109.177 114.018 109.177 114.588C109.177 115.008 109.327 115.368 109.627 115.668C109.933 115.968 110.419 116.118 111.085 116.118C111.553 116.118 111.973 116.01 112.345 115.794C112.723 115.572 113.02 115.296 113.236 114.966C113.458 114.636 113.569 114.306 113.569 113.976H113.911C113.911 114.552 113.785 115.086 113.533 115.578C113.287 116.07 112.933 116.466 112.471 116.766C112.009 117.066 111.457 117.216 110.815 117.216ZM124.185 117V111.942C124.185 111.12 123.987 110.496 123.591 110.07C123.201 109.638 122.667 109.422 121.989 109.422C121.473 109.422 121.026 109.563 120.648 109.845C120.27 110.127 119.979 110.532 119.775 111.06C119.571 111.582 119.469 112.206 119.469 112.932H118.929C118.929 111.93 119.061 111.075 119.325 110.367C119.589 109.659 119.973 109.119 120.477 108.747C120.987 108.369 121.605 108.18 122.331 108.18C123.009 108.18 123.588 108.333 124.068 108.639C124.554 108.939 124.926 109.371 125.184 109.935C125.442 110.499 125.571 111.168 125.571 111.942V117H124.185ZM118.065 117V108.396H119.271L119.469 110.376V117H118.065ZM131.683 117.216C130.993 117.216 130.348 117.03 129.748 116.658C129.154 116.286 128.674 115.761 128.308 115.083C127.942 114.405 127.759 113.604 127.759 112.68C127.759 111.732 127.942 110.922 128.308 110.25C128.674 109.578 129.154 109.065 129.748 108.711C130.348 108.357 130.993 108.18 131.683 108.18C132.169 108.18 132.604 108.255 132.988 108.405C133.378 108.549 133.717 108.75 134.005 109.008C134.293 109.266 134.53 109.56 134.716 109.89C134.908 110.214 135.049 110.556 135.139 110.916L133.699 111.042C133.549 110.544 133.297 110.151 132.943 109.863C132.595 109.569 132.169 109.422 131.665 109.422C131.239 109.422 130.837 109.545 130.459 109.791C130.087 110.031 129.784 110.394 129.55 110.88C129.316 111.36 129.199 111.96 129.199 112.68C129.199 113.346 129.304 113.925 129.514 114.417C129.73 114.903 130.024 115.281 130.396 115.551C130.768 115.821 131.191 115.956 131.665 115.956C132.331 115.956 132.835 115.794 133.177 115.47C133.525 115.14 133.699 114.684 133.699 114.102H135.139C135.139 114.702 134.998 115.236 134.716 115.704C134.434 116.172 134.032 116.541 133.51 116.811C132.994 117.081 132.385 117.216 131.683 117.216ZM140.658 117.216C139.914 117.216 139.248 117.027 138.66 116.649C138.078 116.265 137.616 115.734 137.274 115.056C136.938 114.378 136.77 113.598 136.77 112.716C136.77 111.774 136.938 110.964 137.274 110.286C137.61 109.608 138.069 109.089 138.651 108.729C139.239 108.363 139.908 108.18 140.658 108.18C141.312 108.18 141.87 108.312 142.332 108.576C142.794 108.84 143.166 109.197 143.448 109.647C143.73 110.097 143.925 110.607 144.033 111.177C144.147 111.741 144.18 112.326 144.132 112.932H137.904V112.068H143.205L142.791 112.338C142.809 111.984 142.788 111.63 142.728 111.276C142.674 110.922 142.569 110.598 142.413 110.304C142.257 110.004 142.038 109.764 141.756 109.584C141.474 109.404 141.114 109.314 140.676 109.314C140.124 109.314 139.662 109.455 139.29 109.737C138.918 110.019 138.639 110.391 138.453 110.853C138.267 111.309 138.174 111.804 138.174 112.338V112.914C138.174 113.514 138.264 114.051 138.444 114.525C138.63 114.999 138.906 115.374 139.272 115.65C139.638 115.926 140.1 116.064 140.658 116.064C141.216 116.064 141.675 115.929 142.035 115.659C142.395 115.389 142.614 114.99 142.692 114.462H144.15C144.06 115.032 143.856 115.524 143.538 115.938C143.22 116.346 142.815 116.661 142.323 116.883C141.831 117.105 141.276 117.216 140.658 117.216ZM153.761 117.216C152.987 117.216 152.297 117.045 151.691 116.703C151.091 116.361 150.617 115.854 150.269 115.182C149.921 114.51 149.747 113.682 149.747 112.698C149.747 111.708 149.921 110.88 150.269 110.214C150.617 109.542 151.091 109.035 151.691 108.693C152.297 108.351 152.987 108.18 153.761 108.18C154.529 108.18 155.213 108.351 155.813 108.693C156.419 109.035 156.893 109.542 157.235 110.214C157.583 110.88 157.757 111.708 157.757 112.698C157.757 113.682 157.583 114.51 157.235 115.182C156.893 115.854 156.419 116.361 155.813 116.703C155.213 117.045 154.529 117.216 153.761 117.216ZM153.725 115.992C154.283 115.992 154.757 115.86 155.147 115.596C155.537 115.326 155.831 114.945 156.029 114.453C156.233 113.961 156.335 113.376 156.335 112.698C156.335 111.672 156.122 110.865 155.696 110.277C155.27 109.683 154.637 109.386 153.797 109.386C153.233 109.386 152.756 109.521 152.366 109.791C151.982 110.055 151.688 110.436 151.484 110.934C151.286 111.426 151.187 112.014 151.187 112.698C151.187 113.712 151.4 114.516 151.826 115.11C152.258 115.698 152.891 115.992 153.725 115.992ZM160.221 117V108.378H161.625V117H160.221ZM161.193 113.112C161.193 112.02 161.298 111.114 161.508 110.394C161.718 109.668 162.024 109.128 162.426 108.774C162.834 108.414 163.329 108.234 163.911 108.234C164.103 108.234 164.277 108.249 164.433 108.279C164.595 108.303 164.757 108.342 164.919 108.396L164.829 109.782C164.661 109.728 164.478 109.683 164.28 109.647C164.082 109.605 163.905 109.584 163.749 109.584C163.239 109.584 162.828 109.731 162.516 110.025C162.204 110.313 161.976 110.721 161.832 111.249C161.694 111.777 161.625 112.398 161.625 113.112H161.193ZM175.785 117L175.605 115.11V111.42C175.605 110.646 175.44 110.091 175.11 109.755C174.78 109.413 174.285 109.242 173.625 109.242C173.253 109.242 172.914 109.296 172.608 109.404C172.308 109.512 172.068 109.68 171.888 109.908C171.714 110.13 171.627 110.418 171.627 110.772H170.061C170.061 110.148 170.214 109.647 170.52 109.269C170.826 108.885 171.246 108.609 171.78 108.441C172.32 108.267 172.935 108.18 173.625 108.18C174.285 108.18 174.87 108.291 175.38 108.513C175.89 108.735 176.289 109.089 176.577 109.575C176.865 110.055 177.009 110.682 177.009 111.456V117H175.785ZM172.851 117.216C172.143 117.216 171.558 117.09 171.096 116.838C170.634 116.586 170.289 116.259 170.061 115.857C169.833 115.455 169.719 115.032 169.719 114.588C169.719 114.006 169.863 113.532 170.151 113.166C170.445 112.8 170.844 112.533 171.348 112.365C171.852 112.191 172.419 112.104 173.049 112.104C173.499 112.104 173.949 112.149 174.399 112.239C174.855 112.329 175.299 112.452 175.731 112.608V113.49C175.371 113.346 174.963 113.232 174.507 113.148C174.057 113.064 173.643 113.022 173.265 113.022C172.689 113.022 172.203 113.142 171.807 113.382C171.411 113.616 171.213 114.018 171.213 114.588C171.213 115.008 171.363 115.368 171.663 115.668C171.969 115.968 172.455 116.118 173.121 116.118C173.589 116.118 174.009 116.01 174.381 115.794C174.759 115.572 175.056 115.296 175.272 114.966C175.494 114.636 175.605 114.306 175.605 113.976H175.947C175.947 114.552 175.821 115.086 175.569 115.578C175.323 116.07 174.969 116.466 174.507 116.766C174.045 117.066 173.493 117.216 172.851 117.216ZM184.102 117V108.378H185.506V117H184.102ZM185.074 113.112C185.074 112.02 185.179 111.114 185.389 110.394C185.599 109.668 185.905 109.128 186.307 108.774C186.715 108.414 187.21 108.234 187.792 108.234C187.984 108.234 188.158 108.249 188.314 108.279C188.476 108.303 188.638 108.342 188.8 108.396L188.71 109.782C188.542 109.728 188.359 109.683 188.161 109.647C187.963 109.605 187.786 109.584 187.63 109.584C187.12 109.584 186.709 109.731 186.397 110.025C186.085 110.313 185.857 110.721 185.713 111.249C185.575 111.777 185.506 112.398 185.506 113.112H185.074ZM193.324 117.216C192.58 117.216 191.914 117.027 191.326 116.649C190.744 116.265 190.282 115.734 189.94 115.056C189.604 114.378 189.436 113.598 189.436 112.716C189.436 111.774 189.604 110.964 189.94 110.286C190.276 109.608 190.735 109.089 191.317 108.729C191.905 108.363 192.574 108.18 193.324 108.18C193.978 108.18 194.536 108.312 194.998 108.576C195.46 108.84 195.832 109.197 196.114 109.647C196.396 110.097 196.591 110.607 196.699 111.177C196.813 111.741 196.846 112.326 196.798 112.932H190.57V112.068H195.871L195.457 112.338C195.475 111.984 195.454 111.63 195.394 111.276C195.34 110.922 195.235 110.598 195.079 110.304C194.923 110.004 194.704 109.764 194.422 109.584C194.14 109.404 193.78 109.314 193.342 109.314C192.79 109.314 192.328 109.455 191.956 109.737C191.584 110.019 191.305 110.391 191.119 110.853C190.933 111.309 190.84 111.804 190.84 112.338V112.914C190.84 113.514 190.93 114.051 191.11 114.525C191.296 114.999 191.572 115.374 191.938 115.65C192.304 115.926 192.766 116.064 193.324 116.064C193.882 116.064 194.341 115.929 194.701 115.659C195.061 115.389 195.28 114.99 195.358 114.462H196.816C196.726 115.032 196.522 115.524 196.204 115.938C195.886 116.346 195.481 116.661 194.989 116.883C194.497 117.105 193.942 117.216 193.324 117.216ZM204.64 117L204.46 115.11V111.42C204.46 110.646 204.295 110.091 203.965 109.755C203.635 109.413 203.14 109.242 202.48 109.242C202.108 109.242 201.769 109.296 201.463 109.404C201.163 109.512 200.923 109.68 200.743 109.908C200.569 110.13 200.482 110.418 200.482 110.772H198.916C198.916 110.148 199.069 109.647 199.375 109.269C199.681 108.885 200.101 108.609 200.635 108.441C201.175 108.267 201.79 108.18 202.48 108.18C203.14 108.18 203.725 108.291 204.235 108.513C204.745 108.735 205.144 109.089 205.432 109.575C205.72 110.055 205.864 110.682 205.864 111.456V117H204.64ZM201.706 117.216C200.998 117.216 200.413 117.09 199.951 116.838C199.489 116.586 199.144 116.259 198.916 115.857C198.688 115.455 198.574 115.032 198.574 114.588C198.574 114.006 198.718 113.532 199.006 113.166C199.3 112.8 199.699 112.533 200.203 112.365C200.707 112.191 201.274 112.104 201.904 112.104C202.354 112.104 202.804 112.149 203.254 112.239C203.71 112.329 204.154 112.452 204.586 112.608V113.49C204.226 113.346 203.818 113.232 203.362 113.148C202.912 113.064 202.498 113.022 202.12 113.022C201.544 113.022 201.058 113.142 200.662 113.382C200.266 113.616 200.068 114.018 200.068 114.588C200.068 115.008 200.218 115.368 200.518 115.668C200.824 115.968 201.31 116.118 201.976 116.118C202.444 116.118 202.864 116.01 203.236 115.794C203.614 115.572 203.911 115.296 204.127 114.966C204.349 114.636 204.46 114.306 204.46 113.976H204.802C204.802 114.552 204.676 115.086 204.424 115.578C204.178 116.07 203.824 116.466 203.362 116.766C202.9 117.066 202.348 117.216 201.706 117.216ZM208.956 117V104.724H210.36V117H208.956ZM216.377 117.216C215.909 117.216 215.489 117.126 215.117 116.946C214.745 116.766 214.451 116.496 214.235 116.136C214.019 115.776 213.911 115.326 213.911 114.786V106.002H215.297V114.75C215.297 115.638 215.711 116.082 216.539 116.082C216.785 116.082 217.022 116.055 217.25 116.001C217.484 115.947 217.745 115.866 218.033 115.758L218.231 116.766C217.925 116.898 217.619 117.006 217.313 117.09C217.013 117.174 216.701 117.216 216.377 117.216ZM212.525 109.368V108.396H218.015V109.368H212.525ZM223.343 117.216C222.569 117.216 221.879 117.045 221.273 116.703C220.673 116.361 220.199 115.854 219.851 115.182C219.503 114.51 219.329 113.682 219.329 112.698C219.329 111.708 219.503 110.88 219.851 110.214C220.199 109.542 220.673 109.035 221.273 108.693C221.879 108.351 222.569 108.18 223.343 108.18C224.111 108.18 224.795 108.351 225.395 108.693C226.001 109.035 226.475 109.542 226.817 110.214C227.165 110.88 227.339 111.708 227.339 112.698C227.339 113.682 227.165 114.51 226.817 115.182C226.475 115.854 226.001 116.361 225.395 116.703C224.795 117.045 224.111 117.216 223.343 117.216ZM223.307 115.992C223.865 115.992 224.339 115.86 224.729 115.596C225.119 115.326 225.413 114.945 225.611 114.453C225.815 113.961 225.917 113.376 225.917 112.698C225.917 111.672 225.704 110.865 225.278 110.277C224.852 109.683 224.219 109.386 223.379 109.386C222.815 109.386 222.338 109.521 221.948 109.791C221.564 110.055 221.27 110.436 221.066 110.934C220.868 111.426 220.769 112.014 220.769 112.698C220.769 113.712 220.982 114.516 221.408 115.11C221.84 115.698 222.473 115.992 223.307 115.992ZM229.802 117V108.378H231.206V117H229.802ZM230.774 113.112C230.774 112.02 230.879 111.114 231.089 110.394C231.299 109.668 231.605 109.128 232.007 108.774C232.415 108.414 232.91 108.234 233.492 108.234C233.684 108.234 233.858 108.249 234.014 108.279C234.176 108.303 234.338 108.342 234.5 108.396L234.41 109.782C234.242 109.728 234.059 109.683 233.861 109.647C233.663 109.605 233.486 109.584 233.33 109.584C232.82 109.584 232.409 109.731 232.097 110.025C231.785 110.313 231.557 110.721 231.413 111.249C231.275 111.777 231.206 112.398 231.206 113.112H230.774ZM238.544 108.396H240.002L242.198 115.578H242.018L244.16 108.81H245.33L247.454 115.596H247.292L249.488 108.396H250.892L248.066 117H246.698L244.61 110.646H244.826L242.756 117H241.388L238.544 108.396ZM258.931 117V111.942C258.931 111.12 258.733 110.496 258.337 110.07C257.947 109.638 257.413 109.422 256.735 109.422C256.219 109.422 255.772 109.563 255.394 109.845C255.016 110.127 254.725 110.532 254.521 111.06C254.317 111.582 254.215 112.206 254.215 112.932H253.675C253.675 111.93 253.807 111.075 254.071 110.367C254.335 109.659 254.719 109.119 255.223 108.747C255.733 108.369 256.351 108.18 257.077 108.18C257.755 108.18 258.334 108.333 258.814 108.639C259.3 108.939 259.672 109.371 259.93 109.935C260.188 110.499 260.317 111.168 260.317 111.942V117H258.931ZM252.811 117V104.724H254.215V117H252.811ZM266.518 117.216C265.744 117.216 265.054 117.045 264.448 116.703C263.848 116.361 263.374 115.854 263.026 115.182C262.678 114.51 262.504 113.682 262.504 112.698C262.504 111.708 262.678 110.88 263.026 110.214C263.374 109.542 263.848 109.035 264.448 108.693C265.054 108.351 265.744 108.18 266.518 108.18C267.286 108.18 267.97 108.351 268.57 108.693C269.176 109.035 269.65 109.542 269.992 110.214C270.34 110.88 270.514 111.708 270.514 112.698C270.514 113.682 270.34 114.51 269.992 115.182C269.65 115.854 269.176 116.361 268.57 116.703C267.97 117.045 267.286 117.216 266.518 117.216ZM266.482 115.992C267.04 115.992 267.514 115.86 267.904 115.596C268.294 115.326 268.588 114.945 268.786 114.453C268.99 113.961 269.092 113.376 269.092 112.698C269.092 111.672 268.879 110.865 268.453 110.277C268.027 109.683 267.394 109.386 266.554 109.386C265.99 109.386 265.513 109.521 265.123 109.791C264.739 110.055 264.445 110.436 264.241 110.934C264.043 111.426 263.944 112.014 263.944 112.698C263.944 113.712 264.157 114.516 264.583 115.11C265.015 115.698 265.648 115.992 266.482 115.992ZM277.771 106.362C277.483 106.362 277.255 106.281 277.087 106.119C276.919 105.951 276.835 105.732 276.835 105.462C276.835 105.198 276.919 104.988 277.087 104.832C277.255 104.676 277.483 104.598 277.771 104.598C278.059 104.598 278.287 104.676 278.455 104.832C278.623 104.988 278.707 105.198 278.707 105.462C278.707 105.732 278.623 105.951 278.455 106.119C278.287 106.281 278.059 106.362 277.771 106.362ZM277.069 117V108.378H278.473V117H277.069ZM285.167 117.216C284.333 117.216 283.637 117.099 283.079 116.865C282.521 116.625 282.098 116.298 281.81 115.884C281.522 115.464 281.369 114.984 281.351 114.444H282.701C282.731 114.99 282.95 115.401 283.358 115.677C283.772 115.947 284.333 116.082 285.041 116.082C285.413 116.082 285.755 116.022 286.067 115.902C286.379 115.782 286.628 115.617 286.814 115.407C287 115.197 287.093 114.96 287.093 114.696C287.093 114.36 286.97 114.096 286.724 113.904C286.478 113.712 286.085 113.544 285.545 113.4L283.871 112.86C283.145 112.632 282.587 112.32 282.197 111.924C281.813 111.522 281.621 111.042 281.621 110.484C281.621 109.788 281.927 109.23 282.539 108.81C283.151 108.39 283.955 108.18 284.951 108.18C286.007 108.18 286.826 108.396 287.408 108.828C287.99 109.26 288.293 109.8 288.317 110.448H286.931C286.877 110.07 286.685 109.785 286.355 109.593C286.025 109.395 285.557 109.296 284.951 109.296C284.369 109.296 283.913 109.428 283.583 109.692C283.259 109.95 283.097 110.238 283.097 110.556C283.097 111.15 283.607 111.588 284.627 111.87L286.337 112.446C287.075 112.668 287.639 112.959 288.029 113.319C288.425 113.679 288.623 114.138 288.623 114.696C288.623 115.128 288.482 115.536 288.2 115.92C287.918 116.304 287.519 116.616 287.003 116.856C286.487 117.096 285.875 117.216 285.167 117.216ZM293.765 108.396H295.223L297.419 115.578H297.239L299.381 108.81H300.551L302.675 115.596H302.513L304.709 108.396H306.113L303.287 117H301.919L299.831 110.646H300.047L297.977 117H296.609L293.765 108.396ZM311.146 117.216C310.372 117.216 309.682 117.045 309.076 116.703C308.476 116.361 308.002 115.854 307.654 115.182C307.306 114.51 307.132 113.682 307.132 112.698C307.132 111.708 307.306 110.88 307.654 110.214C308.002 109.542 308.476 109.035 309.076 108.693C309.682 108.351 310.372 108.18 311.146 108.18C311.914 108.18 312.598 108.351 313.198 108.693C313.804 109.035 314.278 109.542 314.62 110.214C314.968 110.88 315.142 111.708 315.142 112.698C315.142 113.682 314.968 114.51 314.62 115.182C314.278 115.854 313.804 116.361 313.198 116.703C312.598 117.045 311.914 117.216 311.146 117.216ZM311.11 115.992C311.668 115.992 312.142 115.86 312.532 115.596C312.922 115.326 313.216 114.945 313.414 114.453C313.618 113.961 313.72 113.376 313.72 112.698C313.72 111.672 313.507 110.865 313.081 110.277C312.655 109.683 312.022 109.386 311.182 109.386C310.618 109.386 310.141 109.521 309.751 109.791C309.367 110.055 309.073 110.436 308.869 110.934C308.671 111.426 308.572 112.014 308.572 112.698C308.572 113.712 308.785 114.516 309.211 115.11C309.643 115.698 310.276 115.992 311.11 115.992ZM317.606 117V108.378H319.01V117H317.606ZM318.578 113.112C318.578 112.02 318.683 111.114 318.893 110.394C319.103 109.668 319.409 109.128 319.811 108.774C320.219 108.414 320.714 108.234 321.296 108.234C321.488 108.234 321.662 108.249 321.818 108.279C321.98 108.303 322.142 108.342 322.304 108.396L322.214 109.782C322.046 109.728 321.863 109.683 321.665 109.647C321.467 109.605 321.29 109.584 321.134 109.584C320.624 109.584 320.213 109.731 319.901 110.025C319.589 110.313 319.361 110.721 319.217 111.249C319.079 111.777 319.01 112.398 319.01 113.112H318.578ZM323.84 117V104.724H325.244V117H323.84ZM325.028 112.068L329.42 108.396H331.382L325.028 113.562V112.068ZM329.852 117L325.766 111.564L327.188 111.312L331.58 117H329.852ZM334.504 106.362C334.216 106.362 333.988 106.281 333.82 106.119C333.652 105.951 333.568 105.732 333.568 105.462C333.568 105.198 333.652 104.988 333.82 104.832C333.988 104.676 334.216 104.598 334.504 104.598C334.792 104.598 335.02 104.676 335.188 104.832C335.356 104.988 335.44 105.198 335.44 105.462C335.44 105.732 335.356 105.951 335.188 106.119C335.02 106.281 334.792 106.362 334.504 106.362ZM333.802 117V108.378H335.206V117H333.802ZM344.924 117V111.942C344.924 111.12 344.726 110.496 344.33 110.07C343.94 109.638 343.406 109.422 342.728 109.422C342.212 109.422 341.765 109.563 341.387 109.845C341.009 110.127 340.718 110.532 340.514 111.06C340.31 111.582 340.208 112.206 340.208 112.932H339.668C339.668 111.93 339.8 111.075 340.064 110.367C340.328 109.659 340.712 109.119 341.216 108.747C341.726 108.369 342.344 108.18 343.07 108.18C343.748 108.18 344.327 108.333 344.807 108.639C345.293 108.939 345.665 109.371 345.923 109.935C346.181 110.499 346.31 111.168 346.31 111.942V117H344.924ZM338.804 117V108.396H340.01L340.208 110.376V117H338.804ZM352.439 121.428C351.557 121.428 350.792 121.302 350.144 121.05C349.496 120.804 348.992 120.471 348.632 120.051C348.278 119.637 348.101 119.178 348.101 118.674C348.101 118.008 348.344 117.498 348.83 117.144C349.322 116.796 349.955 116.622 350.729 116.622L351.503 117.108C350.855 117.108 350.354 117.243 350 117.513C349.646 117.783 349.469 118.152 349.469 118.62C349.469 119.088 349.721 119.484 350.225 119.808C350.729 120.132 351.467 120.294 352.439 120.294C353.159 120.294 353.789 120.189 354.329 119.979C354.875 119.775 355.298 119.505 355.598 119.169C355.904 118.839 356.057 118.482 356.057 118.098C356.057 117.828 355.958 117.594 355.76 117.396C355.562 117.204 355.259 117.108 354.851 117.108H351.503C350.921 117.108 350.417 117.021 349.991 116.847C349.571 116.667 349.247 116.433 349.019 116.145C348.791 115.857 348.677 115.542 348.677 115.2C348.677 114.84 348.779 114.534 348.983 114.282C349.187 114.03 349.451 113.838 349.775 113.706C350.105 113.574 350.459 113.508 350.837 113.508L351.107 114.03C350.927 114.03 350.744 114.072 350.558 114.156C350.378 114.234 350.225 114.354 350.099 114.516C349.979 114.672 349.919 114.87 349.919 115.11C349.919 115.386 350.033 115.617 350.261 115.803C350.489 115.989 350.903 116.082 351.503 116.082H354.851C355.661 116.082 356.297 116.253 356.759 116.595C357.227 116.937 357.461 117.414 357.461 118.026C357.461 118.59 357.26 119.13 356.858 119.646C356.456 120.168 355.88 120.594 355.13 120.924C354.38 121.26 353.483 121.428 352.439 121.428ZM352.691 114.48C352.031 114.48 351.434 114.348 350.9 114.084C350.372 113.82 349.952 113.451 349.64 112.977C349.334 112.503 349.181 111.954 349.181 111.33C349.181 110.7 349.334 110.148 349.64 109.674C349.952 109.2 350.372 108.834 350.9 108.576C351.434 108.312 352.031 108.18 352.691 108.18C353.333 108.18 353.915 108.312 354.437 108.576C354.965 108.834 355.385 109.2 355.697 109.674C356.009 110.148 356.165 110.7 356.165 111.33C356.165 111.954 356.009 112.503 355.697 112.977C355.385 113.451 354.965 113.82 354.437 114.084C353.915 114.348 353.333 114.48 352.691 114.48ZM352.691 113.472C353.351 113.472 353.864 113.268 354.23 112.86C354.596 112.452 354.779 111.942 354.779 111.33C354.779 110.7 354.596 110.19 354.23 109.8C353.864 109.404 353.351 109.206 352.691 109.206C352.037 109.206 351.521 109.404 351.143 109.8C350.771 110.19 350.585 110.7 350.585 111.33C350.585 111.942 350.771 112.452 351.143 112.86C351.521 113.268 352.037 113.472 352.691 113.472ZM355.517 109.548L354.851 109.278C354.851 108.774 354.95 108.333 355.148 107.955C355.346 107.571 355.628 107.274 355.994 107.064C356.36 106.848 356.795 106.74 357.299 106.74L357.191 108.126C356.651 108.126 356.237 108.243 355.949 108.477C355.661 108.705 355.517 109.062 355.517 109.548ZM365.935 117.216C365.467 117.216 365.047 117.126 364.675 116.946C364.303 116.766 364.009 116.496 363.793 116.136C363.577 115.776 363.469 115.326 363.469 114.786V106.002H364.855V114.75C364.855 115.638 365.269 116.082 366.097 116.082C366.343 116.082 366.58 116.055 366.808 116.001C367.042 115.947 367.303 115.866 367.591 115.758L367.789 116.766C367.483 116.898 367.177 117.006 366.871 117.09C366.571 117.174 366.259 117.216 365.935 117.216ZM362.083 109.368V108.396H367.573V109.368H362.083ZM372.9 117.216C372.126 117.216 371.436 117.045 370.83 116.703C370.23 116.361 369.756 115.854 369.408 115.182C369.06 114.51 368.886 113.682 368.886 112.698C368.886 111.708 369.06 110.88 369.408 110.214C369.756 109.542 370.23 109.035 370.83 108.693C371.436 108.351 372.126 108.18 372.9 108.18C373.668 108.18 374.352 108.351 374.952 108.693C375.558 109.035 376.032 109.542 376.374 110.214C376.722 110.88 376.896 111.708 376.896 112.698C376.896 113.682 376.722 114.51 376.374 115.182C376.032 115.854 375.558 116.361 374.952 116.703C374.352 117.045 373.668 117.216 372.9 117.216ZM372.864 115.992C373.422 115.992 373.896 115.86 374.286 115.596C374.676 115.326 374.97 114.945 375.168 114.453C375.372 113.961 375.474 113.376 375.474 112.698C375.474 111.672 375.261 110.865 374.835 110.277C374.409 109.683 373.776 109.386 372.936 109.386C372.372 109.386 371.895 109.521 371.505 109.791C371.121 110.055 370.827 110.436 370.623 110.934C370.425 111.426 370.326 112.014 370.326 112.698C370.326 113.712 370.539 114.516 370.965 115.11C371.397 115.698 372.03 115.992 372.864 115.992ZM42.842 146.216C42.152 146.216 41.507 146.03 40.907 145.658C40.313 145.286 39.833 144.761 39.467 144.083C39.101 143.405 38.918 142.604 38.918 141.68C38.918 140.732 39.101 139.922 39.467 139.25C39.833 138.578 40.313 138.065 40.907 137.711C41.507 137.357 42.152 137.18 42.842 137.18C43.328 137.18 43.763 137.255 44.147 137.405C44.537 137.549 44.876 137.75 45.164 138.008C45.452 138.266 45.689 138.56 45.875 138.89C46.067 139.214 46.208 139.556 46.298 139.916L44.858 140.042C44.708 139.544 44.456 139.151 44.102 138.863C43.754 138.569 43.328 138.422 42.824 138.422C42.398 138.422 41.996 138.545 41.618 138.791C41.246 139.031 40.943 139.394 40.709 139.88C40.475 140.36 40.358 140.96 40.358 141.68C40.358 142.346 40.463 142.925 40.673 143.417C40.889 143.903 41.183 144.281 41.555 144.551C41.927 144.821 42.35 144.956 42.824 144.956C43.49 144.956 43.994 144.794 44.336 144.47C44.684 144.14 44.858 143.684 44.858 143.102H46.298C46.298 143.702 46.157 144.236 45.875 144.704C45.593 145.172 45.191 145.541 44.669 145.811C44.153 146.081 43.544 146.216 42.842 146.216ZM48.8292 146V133.724H50.2332V146H48.8292ZM56.7182 146.216C55.9442 146.216 55.2542 146.045 54.6482 145.703C54.0482 145.361 53.5742 144.854 53.2262 144.182C52.8782 143.51 52.7042 142.682 52.7042 141.698C52.7042 140.708 52.8782 139.88 53.2262 139.214C53.5742 138.542 54.0482 138.035 54.6482 137.693C55.2542 137.351 55.9442 137.18 56.7182 137.18C57.4862 137.18 58.1702 137.351 58.7702 137.693C59.3762 138.035 59.8502 138.542 60.1922 139.214C60.5402 139.88 60.7142 140.708 60.7142 141.698C60.7142 142.682 60.5402 143.51 60.1922 144.182C59.8502 144.854 59.3762 145.361 58.7702 145.703C58.1702 146.045 57.4862 146.216 56.7182 146.216ZM56.6822 144.992C57.2402 144.992 57.7142 144.86 58.1042 144.596C58.4942 144.326 58.7882 143.945 58.9862 143.453C59.1902 142.961 59.2922 142.376 59.2922 141.698C59.2922 140.672 59.0792 139.865 58.6532 139.277C58.2272 138.683 57.5942 138.386 56.7542 138.386C56.1902 138.386 55.7132 138.521 55.3232 138.791C54.9392 139.055 54.6452 139.436 54.4412 139.934C54.2432 140.426 54.1442 141.014 54.1442 141.698C54.1442 142.712 54.3572 143.516 54.7832 144.11C55.2152 144.698 55.8482 144.992 56.6822 144.992ZM66.2739 146.216C65.4399 146.216 64.7439 146.099 64.1859 145.865C63.6279 145.625 63.2049 145.298 62.9169 144.884C62.6289 144.464 62.4759 143.984 62.4579 143.444H63.8079C63.8379 143.99 64.0569 144.401 64.4649 144.677C64.8789 144.947 65.4399 145.082 66.1479 145.082C66.5199 145.082 66.8619 145.022 67.1739 144.902C67.4859 144.782 67.7349 144.617 67.9209 144.407C68.1069 144.197 68.1999 143.96 68.1999 143.696C68.1999 143.36 68.0769 143.096 67.8309 142.904C67.5849 142.712 67.1919 142.544 66.6519 142.4L64.9779 141.86C64.2519 141.632 63.6939 141.32 63.3039 140.924C62.9199 140.522 62.7279 140.042 62.7279 139.484C62.7279 138.788 63.0339 138.23 63.6459 137.81C64.2579 137.39 65.0619 137.18 66.0579 137.18C67.1139 137.18 67.9329 137.396 68.5149 137.828C69.0969 138.26 69.3999 138.8 69.4239 139.448H68.0379C67.9839 139.07 67.7919 138.785 67.4619 138.593C67.1319 138.395 66.6639 138.296 66.0579 138.296C65.4759 138.296 65.0199 138.428 64.6899 138.692C64.3659 138.95 64.2039 139.238 64.2039 139.556C64.2039 140.15 64.7139 140.588 65.7339 140.87L67.4439 141.446C68.1819 141.668 68.7459 141.959 69.1359 142.319C69.5319 142.679 69.7299 143.138 69.7299 143.696C69.7299 144.128 69.5889 144.536 69.3069 144.92C69.0249 145.304 68.6259 145.616 68.1099 145.856C67.5939 146.096 66.9819 146.216 66.2739 146.216ZM75.353 146.216C74.609 146.216 73.943 146.027 73.355 145.649C72.773 145.265 72.311 144.734 71.969 144.056C71.633 143.378 71.465 142.598 71.465 141.716C71.465 140.774 71.633 139.964 71.969 139.286C72.305 138.608 72.764 138.089 73.346 137.729C73.934 137.363 74.603 137.18 75.353 137.18C76.007 137.18 76.565 137.312 77.027 137.576C77.489 137.84 77.861 138.197 78.143 138.647C78.425 139.097 78.62 139.607 78.728 140.177C78.842 140.741 78.875 141.326 78.827 141.932H72.599V141.068H77.9L77.486 141.338C77.504 140.984 77.483 140.63 77.423 140.276C77.369 139.922 77.264 139.598 77.108 139.304C76.952 139.004 76.733 138.764 76.451 138.584C76.169 138.404 75.809 138.314 75.371 138.314C74.819 138.314 74.357 138.455 73.985 138.737C73.613 139.019 73.334 139.391 73.148 139.853C72.962 140.309 72.869 140.804 72.869 141.338V141.914C72.869 142.514 72.959 143.051 73.139 143.525C73.325 143.999 73.601 144.374 73.967 144.65C74.333 144.926 74.795 145.064 75.353 145.064C75.911 145.064 76.37 144.929 76.73 144.659C77.09 144.389 77.309 143.99 77.387 143.462H78.845C78.755 144.032 78.551 144.524 78.233 144.938C77.915 145.346 77.51 145.661 77.018 145.883C76.526 146.105 75.971 146.216 75.353 146.216ZM87.9885 146.216C87.5205 146.216 87.1005 146.126 86.7285 145.946C86.3565 145.766 86.0625 145.496 85.8465 145.136C85.6305 144.776 85.5225 144.326 85.5225 143.786V135.002H86.9085V143.75C86.9085 144.638 87.3225 145.082 88.1505 145.082C88.3965 145.082 88.6335 145.055 88.8615 145.001C89.0955 144.947 89.3565 144.866 89.6445 144.758L89.8425 145.766C89.5365 145.898 89.2305 146.006 88.9245 146.09C88.6245 146.174 88.3125 146.216 87.9885 146.216ZM84.1365 138.368V137.396H89.6265V138.368H84.1365ZM97.9601 146V140.942C97.9601 140.12 97.7621 139.496 97.3661 139.07C96.9761 138.638 96.4421 138.422 95.7641 138.422C95.2481 138.422 94.8011 138.563 94.4231 138.845C94.0451 139.127 93.7541 139.532 93.5501 140.06C93.3461 140.582 93.2441 141.206 93.2441 141.932H92.7041C92.7041 140.93 92.8361 140.075 93.1001 139.367C93.3641 138.659 93.7481 138.119 94.2521 137.747C94.7621 137.369 95.3801 137.18 96.1061 137.18C96.7841 137.18 97.3631 137.333 97.8431 137.639C98.3291 137.939 98.7011 138.371 98.9591 138.935C99.2171 139.499 99.3461 140.168 99.3461 140.942V146H97.9601ZM91.8401 146V133.724H93.2441V146H91.8401ZM107.761 146L107.581 144.11V140.42C107.581 139.646 107.416 139.091 107.086 138.755C106.756 138.413 106.261 138.242 105.601 138.242C105.229 138.242 104.89 138.296 104.584 138.404C104.284 138.512 104.044 138.68 103.864 138.908C103.69 139.13 103.603 139.418 103.603 139.772H102.037C102.037 139.148 102.19 138.647 102.496 138.269C102.802 137.885 103.222 137.609 103.756 137.441C104.296 137.267 104.911 137.18 105.601 137.18C106.261 137.18 106.846 137.291 107.356 137.513C107.866 137.735 108.265 138.089 108.553 138.575C108.841 139.055 108.985 139.682 108.985 140.456V146H107.761ZM104.827 146.216C104.119 146.216 103.534 146.09 103.072 145.838C102.61 145.586 102.265 145.259 102.037 144.857C101.809 144.455 101.695 144.032 101.695 143.588C101.695 143.006 101.839 142.532 102.127 142.166C102.421 141.8 102.82 141.533 103.324 141.365C103.828 141.191 104.395 141.104 105.025 141.104C105.475 141.104 105.925 141.149 106.375 141.239C106.831 141.329 107.275 141.452 107.707 141.608V142.49C107.347 142.346 106.939 142.232 106.483 142.148C106.033 142.064 105.619 142.022 105.241 142.022C104.665 142.022 104.179 142.142 103.783 142.382C103.387 142.616 103.189 143.018 103.189 143.588C103.189 144.008 103.339 144.368 103.639 144.668C103.945 144.968 104.431 145.118 105.097 145.118C105.565 145.118 105.985 145.01 106.357 144.794C106.735 144.572 107.032 144.296 107.248 143.966C107.47 143.636 107.581 143.306 107.581 142.976H107.923C107.923 143.552 107.797 144.086 107.545 144.578C107.299 145.07 106.945 145.466 106.483 145.766C106.021 146.066 105.469 146.216 104.827 146.216ZM114.723 146.216C114.255 146.216 113.835 146.126 113.463 145.946C113.091 145.766 112.797 145.496 112.581 145.136C112.365 144.776 112.257 144.326 112.257 143.786V135.002H113.643V143.75C113.643 144.638 114.057 145.082 114.885 145.082C115.131 145.082 115.368 145.055 115.596 145.001C115.83 144.947 116.091 144.866 116.379 144.758L116.577 145.766C116.271 145.898 115.965 146.006 115.659 146.09C115.359 146.174 115.047 146.216 114.723 146.216ZM110.871 138.368V137.396H116.361V138.368H110.871ZM125.655 146.216C124.959 146.216 124.32 146.03 123.738 145.658C123.156 145.28 122.691 144.752 122.343 144.074C121.995 143.39 121.821 142.586 121.821 141.662C121.821 140.744 121.992 139.949 122.334 139.277C122.676 138.605 123.129 138.089 123.693 137.729C124.263 137.363 124.887 137.18 125.565 137.18C126.195 137.18 126.747 137.333 127.221 137.639C127.701 137.945 128.073 138.386 128.337 138.962C128.601 139.538 128.733 140.234 128.733 141.05H128.193C128.193 140.48 128.079 140 127.851 139.61C127.629 139.22 127.338 138.926 126.978 138.728C126.618 138.524 126.231 138.422 125.817 138.422C125.349 138.422 124.92 138.554 124.53 138.818C124.146 139.076 123.837 139.448 123.603 139.934C123.375 140.414 123.261 140.99 123.261 141.662C123.261 142.346 123.375 142.934 123.603 143.426C123.837 143.918 124.146 144.296 124.53 144.56C124.92 144.824 125.349 144.956 125.817 144.956C126.207 144.956 126.582 144.854 126.942 144.65C127.308 144.446 127.608 144.149 127.842 143.759C128.076 143.363 128.193 142.886 128.193 142.328H128.733C128.733 143.162 128.595 143.87 128.319 144.452C128.049 145.028 127.68 145.466 127.212 145.766C126.75 146.066 126.231 146.216 125.655 146.216ZM128.427 146L128.193 143.984V133.724H129.597V146H128.427ZM135.964 146.216C135.22 146.216 134.554 146.027 133.966 145.649C133.384 145.265 132.922 144.734 132.58 144.056C132.244 143.378 132.076 142.598 132.076 141.716C132.076 140.774 132.244 139.964 132.58 139.286C132.916 138.608 133.375 138.089 133.957 137.729C134.545 137.363 135.214 137.18 135.964 137.18C136.618 137.18 137.176 137.312 137.638 137.576C138.1 137.84 138.472 138.197 138.754 138.647C139.036 139.097 139.231 139.607 139.339 140.177C139.453 140.741 139.486 141.326 139.438 141.932H133.21V141.068H138.511L138.097 141.338C138.115 140.984 138.094 140.63 138.034 140.276C137.98 139.922 137.875 139.598 137.719 139.304C137.563 139.004 137.344 138.764 137.062 138.584C136.78 138.404 136.42 138.314 135.982 138.314C135.43 138.314 134.968 138.455 134.596 138.737C134.224 139.019 133.945 139.391 133.759 139.853C133.573 140.309 133.48 140.804 133.48 141.338V141.914C133.48 142.514 133.57 143.051 133.75 143.525C133.936 143.999 134.212 144.374 134.578 144.65C134.944 144.926 135.406 145.064 135.964 145.064C136.522 145.064 136.981 144.929 137.341 144.659C137.701 144.389 137.92 143.99 137.998 143.462H139.456C139.366 144.032 139.162 144.524 138.844 144.938C138.526 145.346 138.121 145.661 137.629 145.883C137.137 146.105 136.582 146.216 135.964 146.216ZM147.281 146L147.101 144.11V140.42C147.101 139.646 146.936 139.091 146.606 138.755C146.276 138.413 145.781 138.242 145.121 138.242C144.749 138.242 144.41 138.296 144.104 138.404C143.804 138.512 143.564 138.68 143.384 138.908C143.21 139.13 143.123 139.418 143.123 139.772H141.557C141.557 139.148 141.71 138.647 142.016 138.269C142.322 137.885 142.742 137.609 143.276 137.441C143.816 137.267 144.431 137.18 145.121 137.18C145.781 137.18 146.366 137.291 146.876 137.513C147.386 137.735 147.785 138.089 148.073 138.575C148.361 139.055 148.505 139.682 148.505 140.456V146H147.281ZM144.347 146.216C143.639 146.216 143.054 146.09 142.592 145.838C142.13 145.586 141.785 145.259 141.557 144.857C141.329 144.455 141.215 144.032 141.215 143.588C141.215 143.006 141.359 142.532 141.647 142.166C141.941 141.8 142.34 141.533 142.844 141.365C143.348 141.191 143.915 141.104 144.545 141.104C144.995 141.104 145.445 141.149 145.895 141.239C146.351 141.329 146.795 141.452 147.227 141.608V142.49C146.867 142.346 146.459 142.232 146.003 142.148C145.553 142.064 145.139 142.022 144.761 142.022C144.185 142.022 143.699 142.142 143.303 142.382C142.907 142.616 142.709 143.018 142.709 143.588C142.709 144.008 142.859 144.368 143.159 144.668C143.465 144.968 143.951 145.118 144.617 145.118C145.085 145.118 145.505 145.01 145.877 144.794C146.255 144.572 146.552 144.296 146.768 143.966C146.99 143.636 147.101 143.306 147.101 142.976H147.443C147.443 143.552 147.317 144.086 147.065 144.578C146.819 145.07 146.465 145.466 146.003 145.766C145.541 146.066 144.989 146.216 144.347 146.216ZM151.597 146V133.724H153.001V146H151.597ZM157.74 143.12V142.31C157.74 141.788 157.794 141.359 157.902 141.023C158.016 140.687 158.202 140.396 158.46 140.15C158.718 139.904 159.072 139.658 159.522 139.412C159.924 139.196 160.245 138.995 160.485 138.809C160.725 138.623 160.896 138.422 160.998 138.206C161.106 137.99 161.16 137.726 161.16 137.414C161.16 136.946 160.968 136.556 160.584 136.244C160.206 135.932 159.684 135.776 159.018 135.776C158.28 135.776 157.716 135.923 157.326 136.217C156.936 136.505 156.69 136.91 156.588 137.432H155.094C155.178 136.556 155.544 135.848 156.192 135.308C156.846 134.768 157.776 134.498 158.982 134.498C159.75 134.498 160.41 134.633 160.962 134.903C161.52 135.167 161.946 135.524 162.24 135.974C162.54 136.418 162.69 136.91 162.69 137.45C162.69 138.068 162.534 138.587 162.222 139.007C161.91 139.421 161.406 139.814 160.71 140.186C160.308 140.408 159.99 140.615 159.756 140.807C159.528 140.993 159.366 141.209 159.27 141.455C159.174 141.695 159.126 142.01 159.126 142.4V143.12H157.74ZM158.46 146.216C158.16 146.216 157.911 146.12 157.713 145.928C157.515 145.73 157.416 145.493 157.416 145.217C157.416 144.935 157.512 144.692 157.704 144.488C157.902 144.284 158.151 144.182 158.451 144.182C158.751 144.182 159.006 144.284 159.216 144.488C159.432 144.686 159.54 144.926 159.54 145.208C159.54 145.484 159.435 145.721 159.225 145.919C159.015 146.117 158.76 146.216 158.46 146.216ZM170.472 134.696V144.776H175.512V146H169.068V134.696H170.472ZM180.206 146.216C179.462 146.216 178.796 146.027 178.208 145.649C177.626 145.265 177.164 144.734 176.822 144.056C176.486 143.378 176.318 142.598 176.318 141.716C176.318 140.774 176.486 139.964 176.822 139.286C177.158 138.608 177.617 138.089 178.199 137.729C178.787 137.363 179.456 137.18 180.206 137.18C180.86 137.18 181.418 137.312 181.88 137.576C182.342 137.84 182.714 138.197 182.996 138.647C183.278 139.097 183.473 139.607 183.581 140.177C183.695 140.741 183.728 141.326 183.68 141.932H177.452V141.068H182.753L182.339 141.338C182.357 140.984 182.336 140.63 182.276 140.276C182.222 139.922 182.117 139.598 181.961 139.304C181.805 139.004 181.586 138.764 181.304 138.584C181.022 138.404 180.662 138.314 180.224 138.314C179.672 138.314 179.21 138.455 178.838 138.737C178.466 139.019 178.187 139.391 178.001 139.853C177.815 140.309 177.722 140.804 177.722 141.338V141.914C177.722 142.514 177.812 143.051 177.992 143.525C178.178 143.999 178.454 144.374 178.82 144.65C179.186 144.926 179.648 145.064 180.206 145.064C180.764 145.064 181.223 144.929 181.583 144.659C181.943 144.389 182.162 143.99 182.24 143.462H183.698C183.608 144.032 183.404 144.524 183.086 144.938C182.768 145.346 182.363 145.661 181.871 145.883C181.379 146.105 180.824 146.216 180.206 146.216ZM188.84 146.216C188.372 146.216 187.952 146.126 187.58 145.946C187.208 145.766 186.914 145.496 186.698 145.136C186.482 144.776 186.374 144.326 186.374 143.786V135.002H187.76V143.75C187.76 144.638 188.174 145.082 189.002 145.082C189.248 145.082 189.485 145.055 189.713 145.001C189.947 144.947 190.208 144.866 190.496 144.758L190.694 145.766C190.388 145.898 190.082 146.006 189.776 146.09C189.476 146.174 189.164 146.216 188.84 146.216ZM184.988 138.368V137.396H190.478V138.368H184.988ZM192.151 138.458L191.143 137.918C191.485 137.744 191.773 137.549 192.007 137.333C192.247 137.111 192.403 136.856 192.475 136.568C192.205 136.538 191.977 136.445 191.791 136.289C191.611 136.133 191.521 135.926 191.521 135.668C191.521 135.404 191.62 135.182 191.818 135.002C192.016 134.822 192.265 134.732 192.565 134.732C192.817 134.732 193.033 134.798 193.213 134.93C193.393 135.056 193.531 135.227 193.627 135.443C193.723 135.653 193.771 135.89 193.771 136.154C193.771 136.586 193.63 137.009 193.348 137.423C193.066 137.831 192.667 138.176 192.151 138.458ZM199.349 146.216C198.515 146.216 197.819 146.099 197.261 145.865C196.703 145.625 196.28 145.298 195.992 144.884C195.704 144.464 195.551 143.984 195.533 143.444H196.883C196.913 143.99 197.132 144.401 197.54 144.677C197.954 144.947 198.515 145.082 199.223 145.082C199.595 145.082 199.937 145.022 200.249 144.902C200.561 144.782 200.81 144.617 200.996 144.407C201.182 144.197 201.275 143.96 201.275 143.696C201.275 143.36 201.152 143.096 200.906 142.904C200.66 142.712 200.267 142.544 199.727 142.4L198.053 141.86C197.327 141.632 196.769 141.32 196.379 140.924C195.995 140.522 195.803 140.042 195.803 139.484C195.803 138.788 196.109 138.23 196.721 137.81C197.333 137.39 198.137 137.18 199.133 137.18C200.189 137.18 201.008 137.396 201.59 137.828C202.172 138.26 202.475 138.8 202.499 139.448H201.113C201.059 139.07 200.867 138.785 200.537 138.593C200.207 138.395 199.739 138.296 199.133 138.296C198.551 138.296 198.095 138.428 197.765 138.692C197.441 138.95 197.279 139.238 197.279 139.556C197.279 140.15 197.789 140.588 198.809 140.87L200.519 141.446C201.257 141.668 201.821 141.959 202.211 142.319C202.607 142.679 202.805 143.138 202.805 143.696C202.805 144.128 202.664 144.536 202.382 144.92C202.1 145.304 201.701 145.616 201.185 145.856C200.669 146.096 200.057 146.216 199.349 146.216ZM212.484 150.428C211.602 150.428 210.837 150.302 210.189 150.05C209.541 149.804 209.037 149.471 208.677 149.051C208.323 148.637 208.146 148.178 208.146 147.674C208.146 147.008 208.389 146.498 208.875 146.144C209.367 145.796 210 145.622 210.774 145.622L211.548 146.108C210.9 146.108 210.399 146.243 210.045 146.513C209.691 146.783 209.514 147.152 209.514 147.62C209.514 148.088 209.766 148.484 210.27 148.808C210.774 149.132 211.512 149.294 212.484 149.294C213.204 149.294 213.834 149.189 214.374 148.979C214.92 148.775 215.343 148.505 215.643 148.169C215.949 147.839 216.102 147.482 216.102 147.098C216.102 146.828 216.003 146.594 215.805 146.396C215.607 146.204 215.304 146.108 214.896 146.108H211.548C210.966 146.108 210.462 146.021 210.036 145.847C209.616 145.667 209.292 145.433 209.064 145.145C208.836 144.857 208.722 144.542 208.722 144.2C208.722 143.84 208.824 143.534 209.028 143.282C209.232 143.03 209.496 142.838 209.82 142.706C210.15 142.574 210.504 142.508 210.882 142.508L211.152 143.03C210.972 143.03 210.789 143.072 210.603 143.156C210.423 143.234 210.27 143.354 210.144 143.516C210.024 143.672 209.964 143.87 209.964 144.11C209.964 144.386 210.078 144.617 210.306 144.803C210.534 144.989 210.948 145.082 211.548 145.082H214.896C215.706 145.082 216.342 145.253 216.804 145.595C217.272 145.937 217.506 146.414 217.506 147.026C217.506 147.59 217.305 148.13 216.903 148.646C216.501 149.168 215.925 149.594 215.175 149.924C214.425 150.26 213.528 150.428 212.484 150.428ZM212.736 143.48C212.076 143.48 211.479 143.348 210.945 143.084C210.417 142.82 209.997 142.451 209.685 141.977C209.379 141.503 209.226 140.954 209.226 140.33C209.226 139.7 209.379 139.148 209.685 138.674C209.997 138.2 210.417 137.834 210.945 137.576C211.479 137.312 212.076 137.18 212.736 137.18C213.378 137.18 213.96 137.312 214.482 137.576C215.01 137.834 215.43 138.2 215.742 138.674C216.054 139.148 216.21 139.7 216.21 140.33C216.21 140.954 216.054 141.503 215.742 141.977C215.43 142.451 215.01 142.82 214.482 143.084C213.96 143.348 213.378 143.48 212.736 143.48ZM212.736 142.472C213.396 142.472 213.909 142.268 214.275 141.86C214.641 141.452 214.824 140.942 214.824 140.33C214.824 139.7 214.641 139.19 214.275 138.8C213.909 138.404 213.396 138.206 212.736 138.206C212.082 138.206 211.566 138.404 211.188 138.8C210.816 139.19 210.63 139.7 210.63 140.33C210.63 140.942 210.816 141.452 211.188 141.86C211.566 142.268 212.082 142.472 212.736 142.472ZM215.562 138.548L214.896 138.278C214.896 137.774 214.995 137.333 215.193 136.955C215.391 136.571 215.673 136.274 216.039 136.064C216.405 135.848 216.84 135.74 217.344 135.74L217.236 137.126C216.696 137.126 216.282 137.243 215.994 137.477C215.706 137.705 215.562 138.062 215.562 138.548ZM222.32 146.216C221.576 146.216 220.91 146.027 220.322 145.649C219.74 145.265 219.278 144.734 218.936 144.056C218.6 143.378 218.432 142.598 218.432 141.716C218.432 140.774 218.6 139.964 218.936 139.286C219.272 138.608 219.731 138.089 220.313 137.729C220.901 137.363 221.57 137.18 222.32 137.18C222.974 137.18 223.532 137.312 223.994 137.576C224.456 137.84 224.828 138.197 225.11 138.647C225.392 139.097 225.587 139.607 225.695 140.177C225.809 140.741 225.842 141.326 225.794 141.932H219.566V141.068H224.867L224.453 141.338C224.471 140.984 224.45 140.63 224.39 140.276C224.336 139.922 224.231 139.598 224.075 139.304C223.919 139.004 223.7 138.764 223.418 138.584C223.136 138.404 222.776 138.314 222.338 138.314C221.786 138.314 221.324 138.455 220.952 138.737C220.58 139.019 220.301 139.391 220.115 139.853C219.929 140.309 219.836 140.804 219.836 141.338V141.914C219.836 142.514 219.926 143.051 220.106 143.525C220.292 143.999 220.568 144.374 220.934 144.65C221.3 144.926 221.762 145.064 222.32 145.064C222.878 145.064 223.337 144.929 223.697 144.659C224.057 144.389 224.276 143.99 224.354 143.462H225.812C225.722 144.032 225.518 144.524 225.2 144.938C224.882 145.346 224.477 145.661 223.985 145.883C223.493 146.105 222.938 146.216 222.32 146.216ZM230.954 146.216C230.486 146.216 230.066 146.126 229.694 145.946C229.322 145.766 229.028 145.496 228.812 145.136C228.596 144.776 228.488 144.326 228.488 143.786V135.002H229.874V143.75C229.874 144.638 230.288 145.082 231.116 145.082C231.362 145.082 231.599 145.055 231.827 145.001C232.061 144.947 232.322 144.866 232.61 144.758L232.808 145.766C232.502 145.898 232.196 146.006 231.89 146.09C231.59 146.174 231.278 146.216 230.954 146.216ZM227.102 138.368V137.396H232.592V138.368H227.102ZM241.849 150.428C240.967 150.428 240.202 150.302 239.554 150.05C238.906 149.804 238.402 149.471 238.042 149.051C237.688 148.637 237.511 148.178 237.511 147.674C237.511 147.008 237.754 146.498 238.24 146.144C238.732 145.796 239.365 145.622 240.139 145.622L240.913 146.108C240.265 146.108 239.764 146.243 239.41 146.513C239.056 146.783 238.879 147.152 238.879 147.62C238.879 148.088 239.131 148.484 239.635 148.808C240.139 149.132 240.877 149.294 241.849 149.294C242.569 149.294 243.199 149.189 243.739 148.979C244.285 148.775 244.708 148.505 245.008 148.169C245.314 147.839 245.467 147.482 245.467 147.098C245.467 146.828 245.368 146.594 245.17 146.396C244.972 146.204 244.669 146.108 244.261 146.108H240.913C240.331 146.108 239.827 146.021 239.401 145.847C238.981 145.667 238.657 145.433 238.429 145.145C238.201 144.857 238.087 144.542 238.087 144.2C238.087 143.84 238.189 143.534 238.393 143.282C238.597 143.03 238.861 142.838 239.185 142.706C239.515 142.574 239.869 142.508 240.247 142.508L240.517 143.03C240.337 143.03 240.154 143.072 239.968 143.156C239.788 143.234 239.635 143.354 239.509 143.516C239.389 143.672 239.329 143.87 239.329 144.11C239.329 144.386 239.443 144.617 239.671 144.803C239.899 144.989 240.313 145.082 240.913 145.082H244.261C245.071 145.082 245.707 145.253 246.169 145.595C246.637 145.937 246.871 146.414 246.871 147.026C246.871 147.59 246.67 148.13 246.268 148.646C245.866 149.168 245.29 149.594 244.54 149.924C243.79 150.26 242.893 150.428 241.849 150.428ZM242.101 143.48C241.441 143.48 240.844 143.348 240.31 143.084C239.782 142.82 239.362 142.451 239.05 141.977C238.744 141.503 238.591 140.954 238.591 140.33C238.591 139.7 238.744 139.148 239.05 138.674C239.362 138.2 239.782 137.834 240.31 137.576C240.844 137.312 241.441 137.18 242.101 137.18C242.743 137.18 243.325 137.312 243.847 137.576C244.375 137.834 244.795 138.2 245.107 138.674C245.419 139.148 245.575 139.7 245.575 140.33C245.575 140.954 245.419 141.503 245.107 141.977C244.795 142.451 244.375 142.82 243.847 143.084C243.325 143.348 242.743 143.48 242.101 143.48ZM242.101 142.472C242.761 142.472 243.274 142.268 243.64 141.86C244.006 141.452 244.189 140.942 244.189 140.33C244.189 139.7 244.006 139.19 243.64 138.8C243.274 138.404 242.761 138.206 242.101 138.206C241.447 138.206 240.931 138.404 240.553 138.8C240.181 139.19 239.995 139.7 239.995 140.33C239.995 140.942 240.181 141.452 240.553 141.86C240.931 142.268 241.447 142.472 242.101 142.472ZM244.927 138.548L244.261 138.278C244.261 137.774 244.36 137.333 244.558 136.955C244.756 136.571 245.038 136.274 245.404 136.064C245.77 135.848 246.205 135.74 246.709 135.74L246.601 137.126C246.061 137.126 245.647 137.243 245.359 137.477C245.071 137.705 244.927 138.062 244.927 138.548ZM251.811 146.216C251.037 146.216 250.347 146.045 249.741 145.703C249.141 145.361 248.667 144.854 248.319 144.182C247.971 143.51 247.797 142.682 247.797 141.698C247.797 140.708 247.971 139.88 248.319 139.214C248.667 138.542 249.141 138.035 249.741 137.693C250.347 137.351 251.037 137.18 251.811 137.18C252.579 137.18 253.263 137.351 253.863 137.693C254.469 138.035 254.943 138.542 255.285 139.214C255.633 139.88 255.807 140.708 255.807 141.698C255.807 142.682 255.633 143.51 255.285 144.182C254.943 144.854 254.469 145.361 253.863 145.703C253.263 146.045 252.579 146.216 251.811 146.216ZM251.775 144.992C252.333 144.992 252.807 144.86 253.197 144.596C253.587 144.326 253.881 143.945 254.079 143.453C254.283 142.961 254.385 142.376 254.385 141.698C254.385 140.672 254.172 139.865 253.746 139.277C253.32 138.683 252.687 138.386 251.847 138.386C251.283 138.386 250.806 138.521 250.416 138.791C250.032 139.055 249.738 139.436 249.534 139.934C249.336 140.426 249.237 141.014 249.237 141.698C249.237 142.712 249.45 143.516 249.876 144.11C250.308 144.698 250.941 144.992 251.775 144.992ZM259.063 135.362C258.775 135.362 258.547 135.281 258.379 135.119C258.211 134.951 258.127 134.732 258.127 134.462C258.127 134.198 258.211 133.988 258.379 133.832C258.547 133.676 258.775 133.598 259.063 133.598C259.351 133.598 259.579 133.676 259.747 133.832C259.915 133.988 259.999 134.198 259.999 134.462C259.999 134.732 259.915 134.951 259.747 135.119C259.579 135.281 259.351 135.362 259.063 135.362ZM258.361 146V137.378H259.765V146H258.361ZM269.483 146V140.942C269.483 140.12 269.285 139.496 268.889 139.07C268.499 138.638 267.965 138.422 267.287 138.422C266.771 138.422 266.324 138.563 265.946 138.845C265.568 139.127 265.277 139.532 265.073 140.06C264.869 140.582 264.767 141.206 264.767 141.932H264.227C264.227 140.93 264.359 140.075 264.623 139.367C264.887 138.659 265.271 138.119 265.775 137.747C266.285 137.369 266.903 137.18 267.629 137.18C268.307 137.18 268.886 137.333 269.366 137.639C269.852 137.939 270.224 138.371 270.482 138.935C270.74 139.499 270.869 140.168 270.869 140.942V146H269.483ZM263.363 146V137.396H264.569L264.767 139.376V146H263.363ZM276.998 150.428C276.116 150.428 275.351 150.302 274.703 150.05C274.055 149.804 273.551 149.471 273.191 149.051C272.837 148.637 272.66 148.178 272.66 147.674C272.66 147.008 272.903 146.498 273.389 146.144C273.881 145.796 274.514 145.622 275.288 145.622L276.062 146.108C275.414 146.108 274.913 146.243 274.559 146.513C274.205 146.783 274.028 147.152 274.028 147.62C274.028 148.088 274.28 148.484 274.784 148.808C275.288 149.132 276.026 149.294 276.998 149.294C277.718 149.294 278.348 149.189 278.888 148.979C279.434 148.775 279.857 148.505 280.157 148.169C280.463 147.839 280.616 147.482 280.616 147.098C280.616 146.828 280.517 146.594 280.319 146.396C280.121 146.204 279.818 146.108 279.41 146.108H276.062C275.48 146.108 274.976 146.021 274.55 145.847C274.13 145.667 273.806 145.433 273.578 145.145C273.35 144.857 273.236 144.542 273.236 144.2C273.236 143.84 273.338 143.534 273.542 143.282C273.746 143.03 274.01 142.838 274.334 142.706C274.664 142.574 275.018 142.508 275.396 142.508L275.666 143.03C275.486 143.03 275.303 143.072 275.117 143.156C274.937 143.234 274.784 143.354 274.658 143.516C274.538 143.672 274.478 143.87 274.478 144.11C274.478 144.386 274.592 144.617 274.82 144.803C275.048 144.989 275.462 145.082 276.062 145.082H279.41C280.22 145.082 280.856 145.253 281.318 145.595C281.786 145.937 282.02 146.414 282.02 147.026C282.02 147.59 281.819 148.13 281.417 148.646C281.015 149.168 280.439 149.594 279.689 149.924C278.939 150.26 278.042 150.428 276.998 150.428ZM277.25 143.48C276.59 143.48 275.993 143.348 275.459 143.084C274.931 142.82 274.511 142.451 274.199 141.977C273.893 141.503 273.74 140.954 273.74 140.33C273.74 139.7 273.893 139.148 274.199 138.674C274.511 138.2 274.931 137.834 275.459 137.576C275.993 137.312 276.59 137.18 277.25 137.18C277.892 137.18 278.474 137.312 278.996 137.576C279.524 137.834 279.944 138.2 280.256 138.674C280.568 139.148 280.724 139.7 280.724 140.33C280.724 140.954 280.568 141.503 280.256 141.977C279.944 142.451 279.524 142.82 278.996 143.084C278.474 143.348 277.892 143.48 277.25 143.48ZM277.25 142.472C277.91 142.472 278.423 142.268 278.789 141.86C279.155 141.452 279.338 140.942 279.338 140.33C279.338 139.7 279.155 139.19 278.789 138.8C278.423 138.404 277.91 138.206 277.25 138.206C276.596 138.206 276.08 138.404 275.702 138.8C275.33 139.19 275.144 139.7 275.144 140.33C275.144 140.942 275.33 141.452 275.702 141.86C276.08 142.268 276.596 142.472 277.25 142.472ZM280.076 138.548L279.41 138.278C279.41 137.774 279.509 137.333 279.707 136.955C279.905 136.571 280.187 136.274 280.553 136.064C280.919 135.848 281.354 135.74 281.858 135.74L281.75 137.126C281.21 137.126 280.796 137.243 280.508 137.477C280.22 137.705 280.076 138.062 280.076 138.548ZM282.568 145.163C282.568 144.881 282.667 144.638 282.865 144.434C283.063 144.23 283.312 144.128 283.612 144.128C283.912 144.128 284.167 144.23 284.377 144.434C284.587 144.638 284.692 144.881 284.692 145.163C284.692 145.445 284.587 145.682 284.377 145.874C284.167 146.066 283.912 146.162 283.612 146.162C283.312 146.162 283.063 146.066 282.865 145.874C282.667 145.676 282.568 145.439 282.568 145.163Z" fill="black"/>
<path d="M44.4505 52.304C43.3358 52.304 42.3542 52.0538 41.5055 51.5535C40.6632 51.0532 40.0045 50.309 39.5295 49.321C39.0545 48.333 38.817 47.1075 38.817 45.6445C38.817 44.1752 39.0513 42.9465 39.52 41.9585C39.995 40.9705 40.6568 40.2263 41.5055 39.726C42.3542 39.2193 43.3358 38.966 44.4505 38.966C46.0592 38.966 47.2847 39.346 48.127 40.106C48.9693 40.866 49.4697 41.8508 49.628 43.0605L46.398 43.621C46.2523 43.0763 46.0212 42.6267 45.7045 42.272C45.3942 41.911 44.9762 41.7305 44.4505 41.7305C43.9818 41.7305 43.567 41.873 43.206 42.158C42.8513 42.4367 42.5758 42.8642 42.3795 43.4405C42.1832 44.0168 42.085 44.7515 42.085 45.6445C42.085 46.5185 42.1863 47.2437 42.389 47.82C42.5917 48.39 42.8703 48.8143 43.225 49.093C43.586 49.3717 43.9945 49.511 44.4505 49.511C45.1028 49.511 45.5905 49.34 45.9135 48.998C46.2365 48.6497 46.398 48.2285 46.398 47.7345H49.609C49.609 48.7162 49.4095 49.549 49.0105 50.233C48.6178 50.9107 48.0383 51.4268 47.272 51.7815C46.5057 52.1298 45.5652 52.304 44.4505 52.304ZM57.2902 52.304C56.0805 52.304 55.0229 52.0507 54.1172 51.544C53.2179 51.031 52.518 50.2773 52.0177 49.283C51.5174 48.2823 51.2672 47.0505 51.2672 45.5875C51.2672 44.0865 51.5174 42.8483 52.0177 41.873C52.518 40.8913 53.2179 40.163 54.1172 39.688C55.0229 39.2067 56.0805 38.966 57.2902 38.966C58.5125 38.966 59.5765 39.2162 60.4822 39.7165C61.3942 40.2168 62.1004 40.9578 62.6007 41.9395C63.101 42.9212 63.3512 44.1372 63.3512 45.5875C63.3512 47.0758 63.101 48.3203 62.6007 49.321C62.1004 50.3153 61.3942 51.0627 60.4822 51.563C59.5765 52.057 58.5125 52.304 57.2902 52.304ZM57.2902 49.5775C58.1769 49.5775 58.8862 49.2292 59.4182 48.5325C59.9502 47.8295 60.2162 46.8415 60.2162 45.5685C60.2162 44.3715 59.9502 43.4278 59.4182 42.7375C58.8862 42.0408 58.1769 41.6925 57.2902 41.6925C56.4289 41.6925 55.7322 42.0408 55.2002 42.7375C54.6682 43.4278 54.4022 44.3778 54.4022 45.5875C54.4022 46.8478 54.6682 47.8295 55.2002 48.5325C55.7322 49.2292 56.4289 49.5775 57.2902 49.5775ZM65.7106 39.251H68.8836L74.0041 46.965H73.7951V39.251H76.8351V52H73.8996L68.2471 43.526H68.7506V52H65.7106V39.251ZM79.9977 39.251H83.1707L88.2912 46.965H88.0822V39.251H91.1222V52H88.1867L82.5342 43.526H83.0377V52H79.9977V39.251ZM94.3228 52V39.251H102.844V41.8825H97.3628V44.3335H102.502V46.9745H97.3628V49.34H102.844V52H94.3228ZM110.821 52.304C109.706 52.304 108.724 52.0538 107.876 51.5535C107.033 51.0532 106.375 50.309 105.9 49.321C105.425 48.333 105.187 47.1075 105.187 45.6445C105.187 44.1752 105.421 42.9465 105.89 41.9585C106.365 40.9705 107.027 40.2263 107.876 39.726C108.724 39.2193 109.706 38.966 110.821 38.966C112.429 38.966 113.655 39.346 114.497 40.106C115.339 40.866 115.84 41.8508 115.998 43.0605L112.768 43.621C112.622 43.0763 112.391 42.6267 112.075 42.272C111.764 41.911 111.346 41.7305 110.821 41.7305C110.352 41.7305 109.937 41.873 109.576 42.158C109.221 42.4367 108.946 42.8642 108.75 43.4405C108.553 44.0168 108.455 44.7515 108.455 45.6445C108.455 46.5185 108.556 47.2437 108.759 47.82C108.962 48.39 109.24 48.8143 109.595 49.093C109.956 49.3717 110.365 49.511 110.821 49.511C111.473 49.511 111.961 49.34 112.284 48.998C112.607 48.6497 112.768 48.2285 112.768 47.7345H115.979C115.979 48.7162 115.78 49.549 115.381 50.233C114.988 50.9107 114.408 51.4268 113.642 51.7815C112.876 52.1298 111.935 52.304 110.821 52.304ZM116.934 41.8825V39.251H127.432V41.8825H123.033L123.717 41.1985V52H120.677V41.1985L121.361 41.8825H116.934ZM132.78 39.251H136.162L139.022 49.321H138.319L141.026 39.631H143.078L146.061 49.093H145.444L148.142 39.251H151.59L147.334 52H144.133L142.081 45.578H142.214L140.257 52H137.065L132.78 39.251ZM153.309 52V39.251H156.349V52H153.309ZM158.089 41.8825V39.251H168.586V41.8825H164.188L164.872 41.1985V52H161.832V41.1985L162.516 41.8825H158.089ZM170.305 39.251H173.345V44.2765H178.161V39.251H181.23V52H178.161V46.9555H173.345V52H170.305V39.251ZM194.39 52.304C193.32 52.304 192.361 52.019 191.512 51.449C190.67 50.879 190.001 50.0937 189.507 49.093C189.02 48.086 188.776 46.9302 188.776 45.6255C188.776 44.6438 188.918 43.7477 189.203 42.937C189.495 42.12 189.906 41.417 190.438 40.828C190.977 40.2327 191.616 39.7735 192.357 39.4505C193.105 39.1275 193.934 38.966 194.846 38.966C196.227 38.966 197.351 39.2795 198.219 39.9065C199.087 40.5272 199.704 41.5025 200.071 42.8325L196.841 43.412C196.626 42.8863 196.341 42.4715 195.986 42.1675C195.632 41.8635 195.195 41.7115 194.675 41.7115C194.181 41.7115 193.735 41.8698 193.336 42.1865C192.943 42.5032 192.633 42.9528 192.405 43.5355C192.177 44.1182 192.063 44.8148 192.063 45.6255C192.063 46.4298 192.177 47.1265 192.405 47.7155C192.633 48.2982 192.943 48.7478 193.336 49.0645C193.735 49.3812 194.181 49.5395 194.675 49.5395C195.163 49.5395 195.597 49.4382 195.977 49.2355C196.363 49.0265 196.664 48.7478 196.879 48.3995C197.101 48.0448 197.212 47.6553 197.212 47.231H197.744C197.744 48.2697 197.62 49.169 197.373 49.929C197.126 50.689 196.756 51.2748 196.262 51.6865C195.768 52.0982 195.144 52.304 194.39 52.304ZM197.592 52L197.212 49.378V47.117L194.675 47.098V45.236H200.1V52H197.592ZM203.091 52V39.251H208.069C209.665 39.251 210.903 39.6183 211.783 40.353C212.67 41.0813 213.113 42.0598 213.113 43.2885C213.113 44.4918 212.67 45.4577 211.783 46.186C210.903 46.908 209.665 47.269 208.069 47.269H206.131V52H203.091ZM209.741 52L206.634 45.844H209.845L213.721 52H209.741ZM206.131 45.293H207.727C208.481 45.293 209.044 45.1378 209.418 44.8275C209.798 44.5108 209.988 44.1087 209.988 43.621C209.988 43.1143 209.826 42.6995 209.503 42.3765C209.187 42.0472 208.709 41.8825 208.069 41.8825H206.131V45.293ZM214.667 52L218.961 39.251H222.828L226.884 52H223.683L222.989 49.758H218.591L217.897 52H214.667ZM219.36 47.5065H222.296L220.852 42.842L219.36 47.5065ZM228.75 52V39.251H233.643C235.112 39.251 236.277 39.6057 237.139 40.315C238 41.018 238.431 42.0598 238.431 43.4405C238.431 44.8148 238 45.8598 237.139 46.5755C236.277 47.2848 235.112 47.6395 233.643 47.6395H231.809V52H228.75ZM231.809 44.9795H233.643C234.194 44.9795 234.609 44.8275 234.887 44.5235C235.172 44.2132 235.315 43.8522 235.315 43.4405C235.315 43.0225 235.172 42.6583 234.887 42.348C234.609 42.0377 234.194 41.8825 233.643 41.8825H231.809V44.9795ZM240.385 52V39.251H248.907V41.8825H243.425V44.3335H248.565V46.9745H243.425V49.34H248.907V52H240.385ZM256.418 48.6275L259.173 39.251H262.346L258.128 52H254.917L250.775 39.251H253.986L256.684 48.6275H256.418ZM264.284 52V39.251H267.324V52H264.284ZM270.499 39.251H273.672L278.792 46.965H278.583V39.251H281.623V52H278.688L273.035 43.526H273.539V52H270.499V39.251ZM284.824 52V39.251H293.345V41.8825H287.864V44.3335H293.003V46.9745H287.864V49.34H293.345V52H284.824Z" fill="black"/>
<path d="M366.667 59.9167H333.333C332.65 59.9167 332.083 59.35 332.083 58.6667C332.083 57.9833 332.65 57.4167 333.333 57.4167H366.667C367.35 57.4167 367.917 57.9833 367.917 58.6667C367.917 59.35 367.35 59.9167 366.667 59.9167Z" fill="black"/>
<path d="M336.167 58.6666H333.667L333.75 38.6166C333.75 37.1999 334.4 35.8833 335.517 35.0166L347.184 25.9333C348.834 24.6499 351.15 24.6499 352.817 25.9333L364.484 35C365.584 35.8666 366.25 37.2166 366.25 38.6166V58.6666H363.75V38.6333C363.75 37.9999 363.45 37.3833 362.95 36.9833L351.284 27.9166C350.534 27.3333 349.484 27.3333 348.717 27.9166L337.05 37C336.55 37.3833 336.25 37.9999 336.25 38.6333L336.167 58.6666Z" fill="black"/>
<path d="M354.167 59.9167H345.833C345.15 59.9167 344.583 59.35 344.583 58.6667V52.8333C344.583 50.7667 346.267 49.0833 348.333 49.0833H351.667C353.733 49.0833 355.417 50.7667 355.417 52.8333V58.6667C355.417 59.35 354.85 59.9167 354.167 59.9167ZM347.083 57.4167H352.917V52.8333C352.917 52.15 352.35 51.5833 351.667 51.5833H348.333C347.65 51.5833 347.083 52.15 347.083 52.8333V57.4167Z" fill="black"/>
<path d="M345.833 46.1667H342.5C340.9 46.1667 339.583 44.85 339.583 43.25V40.75C339.583 39.15 340.9 37.8333 342.5 37.8333H345.833C347.433 37.8333 348.75 39.15 348.75 40.75V43.25C348.75 44.85 347.433 46.1667 345.833 46.1667ZM342.5 40.3333C342.267 40.3333 342.083 40.5167 342.083 40.75V43.25C342.083 43.4833 342.267 43.6667 342.5 43.6667H345.833C346.067 43.6667 346.25 43.4833 346.25 43.25V40.75C346.25 40.5167 346.067 40.3333 345.833 40.3333H342.5Z" fill="black"/>
<path d="M357.5 46.1667H354.167C352.567 46.1667 351.25 44.85 351.25 43.25V40.75C351.25 39.15 352.567 37.8333 354.167 37.8333H357.5C359.1 37.8333 360.417 39.15 360.417 40.75V43.25C360.417 44.85 359.1 46.1667 357.5 46.1667ZM354.167 40.3333C353.933 40.3333 353.75 40.5167 353.75 40.75V43.25C353.75 43.4833 353.933 43.6667 354.167 43.6667H357.5C357.733 43.6667 357.917 43.4833 357.917 43.25V40.75C357.917 40.5167 357.733 40.3333 357.5 40.3333H354.167Z" fill="black"/>
<path d="M361.667 34.9167C360.984 34.9167 360.417 34.3667 360.417 33.6834L360.384 29.9167H354.3C353.617 29.9167 353.05 29.35 353.05 28.6667C353.05 27.9833 353.617 27.4167 354.3 27.4167H361.634C362.317 27.4167 362.884 27.9667 362.884 28.65L362.933 33.65C362.917 34.35 362.367 34.9167 361.667 34.9167C361.667 34.9167 361.684 34.9167 361.667 34.9167Z" fill="black"/>
</g>
<defs>
<filter id="filter0_d_2_493" x="0" y="0" width="420" height="260" filterUnits="userSpaceOnUse" color-interpolation-filters="sRGB">
<feFlood flood-opacity="0" result="BackgroundImageFix"/>
<feColorMatrix in="SourceAlpha" type="matrix" values="0 0 0 0 0 0 0 0 0 0 0 0 0 0 0 0 0 0 127 0" result="hardAlpha"/>
<feOffset dx="2" dy="2"/>
<feGaussianBlur stdDeviation="5"/>
<feComposite in2="hardAlpha" operator="out"/>
<feColorMatrix type="matrix" values="0 0 0 0 0 0 0 0 0 0 0 0 0 0 0 0 0 0 0.12 0"/>
<feBlend mode="normal" in2="BackgroundImageFix" result="effect1_dropShadow_2_493"/>
<feBlend mode="normal" in="SourceGraphic" in2="effect1_dropShadow_2_493" result="shape"/>
</filter>
</defs>
</svg>
