<svg width="420" height="260" viewBox="0 0 420 260" fill="none" xmlns="http://www.w3.org/2000/svg">
<g filter="url(#filter0_d_2_458)">
<rect x="8" y="8" width="400" height="240" rx="10" fill="white" fill-opacity="0.7"/>
<path d="M39.6055 39.251H43.9565L46.778 46.053H46.5405L49.362 39.251H53.542V52H50.483V42.9275H50.901L47.6235 50.8125H45.657L42.3985 42.9465H42.6455V52H39.6055V39.251ZM55.5051 52L59.7991 39.251H63.6656L67.7221 52H64.5206L63.8271 49.758H59.4286L58.7351 52H55.5051ZM60.1981 47.5065H63.1336L61.6896 42.842L60.1981 47.5065ZM69.6071 39.251H72.7801L77.9006 46.965H77.6916V39.251H80.7316V52H77.7961L72.1436 43.526H72.6471V52H69.6071V39.251ZM82.6877 52L86.9817 39.251H90.8482L94.9047 52H91.7032L91.0097 49.758H86.6112L85.9177 52H82.6877ZM87.3807 47.5065H90.3162L88.8722 42.842L87.3807 47.5065ZM101.673 52.304C100.602 52.304 99.6429 52.019 98.7942 51.449C97.9519 50.879 97.2837 50.0937 96.7897 49.093C96.302 48.086 96.0582 46.9302 96.0582 45.6255C96.0582 44.6438 96.2007 43.7477 96.4857 42.937C96.777 42.12 97.1887 41.417 97.7207 40.828C98.259 40.2327 98.8987 39.7735 99.6397 39.4505C100.387 39.1275 101.217 38.966 102.129 38.966C103.509 38.966 104.634 39.2795 105.501 39.9065C106.369 40.5272 106.986 41.5025 107.354 42.8325L104.124 43.412C103.908 42.8863 103.623 42.4715 103.269 42.1675C102.914 41.8635 102.477 41.7115 101.958 41.7115C101.464 41.7115 101.017 41.8698 100.618 42.1865C100.226 42.5032 99.9152 42.9528 99.6872 43.5355C99.4592 44.1182 99.3452 44.8148 99.3452 45.6255C99.3452 46.4298 99.4592 47.1265 99.6872 47.7155C99.9152 48.2982 100.226 48.7478 100.618 49.0645C101.017 49.3812 101.464 49.5395 101.958 49.5395C102.445 49.5395 102.879 49.4382 103.259 49.2355C103.646 49.0265 103.946 48.7478 104.162 48.3995C104.383 48.0448 104.494 47.6553 104.494 47.231H105.026C105.026 48.2697 104.903 49.169 104.656 49.929C104.409 50.689 104.038 51.2748 103.544 51.6865C103.05 52.0982 102.426 52.304 101.673 52.304ZM104.874 52L104.494 49.378V47.117L101.958 47.098V45.236H107.382V52H104.874ZM110.354 52V39.251H118.876V41.8825H113.394V44.3335H118.534V46.9745H113.394V49.34H118.876V52H110.354ZM122.007 39.251H126.358L129.179 46.053H128.942L131.763 39.251H135.943V52H132.884V42.9275H133.302L130.025 50.8125H128.058L124.8 42.9465H125.047V52H122.007V39.251ZM139.151 52V39.251H147.672V41.8825H142.191V44.3335H147.33V46.9745H142.191V49.34H147.672V52H139.151ZM150.747 39.251H153.92L159.04 46.965H158.831V39.251H161.871V52H158.936L153.283 43.526H153.787V52H150.747V39.251ZM163.599 41.8825V39.251H174.097V41.8825H169.698L170.382 41.1985V52H167.342V41.1985L168.026 41.8825H163.599ZM180.937 52V39.251H189.249V41.8825H183.977V44.381H188.698V46.9745H183.977V52H180.937ZM197.007 52.304C195.797 52.304 194.74 52.0507 193.834 51.544C192.935 51.031 192.235 50.2773 191.734 49.283C191.234 48.2823 190.984 47.0505 190.984 45.5875C190.984 44.0865 191.234 42.8483 191.734 41.873C192.235 40.8913 192.935 40.163 193.834 39.688C194.74 39.2067 195.797 38.966 197.007 38.966C198.229 38.966 199.293 39.2162 200.199 39.7165C201.111 40.2168 201.817 40.9578 202.317 41.9395C202.818 42.9212 203.068 44.1372 203.068 45.5875C203.068 47.0758 202.818 48.3203 202.317 49.321C201.817 50.3153 201.111 51.0627 200.199 51.563C199.293 52.057 198.229 52.304 197.007 52.304ZM197.007 49.5775C197.894 49.5775 198.603 49.2292 199.135 48.5325C199.667 47.8295 199.933 46.8415 199.933 45.5685C199.933 44.3715 199.667 43.4278 199.135 42.7375C198.603 42.0408 197.894 41.6925 197.007 41.6925C196.146 41.6925 195.449 42.0408 194.917 42.7375C194.385 43.4278 194.119 44.3778 194.119 45.5875C194.119 46.8478 194.385 47.8295 194.917 48.5325C195.449 49.2292 196.146 49.5775 197.007 49.5775ZM205.484 52V39.251H210.462C212.058 39.251 213.297 39.6183 214.177 40.353C215.064 41.0813 215.507 42.0598 215.507 43.2885C215.507 44.4918 215.064 45.4577 214.177 46.186C213.297 46.908 212.058 47.269 210.462 47.269H208.524V52H205.484ZM212.134 52L209.028 45.844H212.239L216.115 52H212.134ZM208.524 45.293H210.12C210.874 45.293 211.438 45.1378 211.811 44.8275C212.191 44.5108 212.381 44.1087 212.381 43.621C212.381 43.1143 212.22 42.6995 211.897 42.3765C211.58 42.0472 211.102 41.8825 210.462 41.8825H208.524V45.293ZM221.935 39.251H225.507L227.958 44.0295H227.464L230.076 39.251H233.639L229.174 46.7085V52H226.153V46.7085L221.935 39.251ZM240.147 52.304C238.937 52.304 237.879 52.0507 236.974 51.544C236.074 51.031 235.374 50.2773 234.874 49.283C234.374 48.2823 234.124 47.0505 234.124 45.5875C234.124 44.0865 234.374 42.8483 234.874 41.873C235.374 40.8913 236.074 40.163 236.974 39.688C237.879 39.2067 238.937 38.966 240.147 38.966C241.369 38.966 242.433 39.2162 243.339 39.7165C244.251 40.2168 244.957 40.9578 245.457 41.9395C245.957 42.9212 246.208 44.1372 246.208 45.5875C246.208 47.0758 245.957 48.3203 245.457 49.321C244.957 50.3153 244.251 51.0627 243.339 51.563C242.433 52.057 241.369 52.304 240.147 52.304ZM240.147 49.5775C241.033 49.5775 241.743 49.2292 242.275 48.5325C242.807 47.8295 243.073 46.8415 243.073 45.5685C243.073 44.3715 242.807 43.4278 242.275 42.7375C241.743 42.0408 241.033 41.6925 240.147 41.6925C239.285 41.6925 238.589 42.0408 238.057 42.7375C237.525 43.4278 237.259 44.3778 237.259 45.5875C237.259 46.8478 237.525 47.8295 238.057 48.5325C238.589 49.2292 239.285 49.5775 240.147 49.5775ZM248.52 39.251H251.56V46.984C251.56 47.8897 251.791 48.542 252.253 48.941C252.715 49.34 253.295 49.5395 253.992 49.5395C254.701 49.5395 255.287 49.34 255.749 48.941C256.218 48.542 256.452 47.8897 256.452 46.984V39.251H259.483V46.984C259.483 48.0607 259.27 48.998 258.846 49.796C258.422 50.594 257.801 51.2115 256.984 51.6485C256.167 52.0855 255.17 52.304 253.992 52.304C252.814 52.304 251.816 52.0855 250.999 51.6485C250.188 51.2115 249.571 50.594 249.147 49.796C248.729 48.998 248.52 48.0607 248.52 46.984V39.251ZM262.466 52V39.251H267.444C269.04 39.251 270.278 39.6183 271.158 40.353C272.045 41.0813 272.488 42.0598 272.488 43.2885C272.488 44.4918 272.045 45.4577 271.158 46.186C270.278 46.908 269.04 47.269 267.444 47.269H265.506V52H262.466ZM269.116 52L266.009 45.844H269.22L273.096 52H269.116ZM265.506 45.293H267.102C267.856 45.293 268.419 45.1378 268.793 44.8275C269.173 44.5108 269.363 44.1087 269.363 43.621C269.363 43.1143 269.201 42.6995 268.878 42.3765C268.562 42.0472 268.084 41.8825 267.444 41.8825H265.506V45.293ZM280.427 39.251H283.467V44.2765H288.283V39.251H291.352V52H288.283V46.9555H283.467V52H280.427V39.251ZM299.8 52.304C298.59 52.304 297.533 52.0507 296.627 51.544C295.728 51.031 295.028 50.2773 294.527 49.283C294.027 48.2823 293.777 47.0505 293.777 45.5875C293.777 44.0865 294.027 42.8483 294.527 41.873C295.028 40.8913 295.728 40.163 296.627 39.688C297.533 39.2067 298.59 38.966 299.8 38.966C301.022 38.966 302.086 39.2162 302.992 39.7165C303.904 40.2168 304.61 40.9578 305.11 41.9395C305.611 42.9212 305.861 44.1372 305.861 45.5875C305.861 47.0758 305.611 48.3203 305.11 49.321C304.61 50.3153 303.904 51.0627 302.992 51.563C302.086 52.057 301.022 52.304 299.8 52.304ZM299.8 49.5775C300.687 49.5775 301.396 49.2292 301.928 48.5325C302.46 47.8295 302.726 46.8415 302.726 45.5685C302.726 44.3715 302.46 43.4278 301.928 42.7375C301.396 42.0408 300.687 41.6925 299.8 41.6925C298.939 41.6925 298.242 42.0408 297.71 42.7375C297.178 43.4278 296.912 44.3778 296.912 45.5875C296.912 46.8478 297.178 47.8295 297.71 48.5325C298.242 49.2292 298.939 49.5775 299.8 49.5775ZM307.014 52L311.308 39.251H315.174L319.231 52H316.029L315.336 49.758H310.937L310.244 52H307.014ZM311.707 47.5065H314.642L313.198 42.842L311.707 47.5065Z" fill="black"/>
<path d="M41.222 76.696V86.776H46.262V88H39.818V76.696H41.222ZM51.0819 88.216C50.3079 88.216 49.6179 88.045 49.0119 87.703C48.4119 87.361 47.9379 86.854 47.5899 86.182C47.2419 85.51 47.0679 84.682 47.0679 83.698C47.0679 82.708 47.2419 81.88 47.5899 81.214C47.9379 80.542 48.4119 80.035 49.0119 79.693C49.6179 79.351 50.3079 79.18 51.0819 79.18C51.8499 79.18 52.5339 79.351 53.1339 79.693C53.7399 80.035 54.2139 80.542 54.5559 81.214C54.9039 81.88 55.0779 82.708 55.0779 83.698C55.0779 84.682 54.9039 85.51 54.5559 86.182C54.2139 86.854 53.7399 87.361 53.1339 87.703C52.5339 88.045 51.8499 88.216 51.0819 88.216ZM51.0459 86.992C51.6039 86.992 52.0779 86.86 52.4679 86.596C52.8579 86.326 53.1519 85.945 53.3499 85.453C53.5539 84.961 53.6559 84.376 53.6559 83.698C53.6559 82.672 53.4429 81.865 53.0169 81.277C52.5909 80.683 51.9579 80.386 51.1179 80.386C50.5539 80.386 50.0769 80.521 49.6869 80.791C49.3029 81.055 49.0089 81.436 48.8049 81.934C48.6069 82.426 48.5079 83.014 48.5079 83.698C48.5079 84.712 48.7209 85.516 49.1469 86.11C49.5789 86.698 50.2119 86.992 51.0459 86.992ZM60.6557 88.216C59.8817 88.216 59.1917 88.045 58.5857 87.703C57.9857 87.361 57.5117 86.854 57.1637 86.182C56.8157 85.51 56.6417 84.682 56.6417 83.698C56.6417 82.708 56.8157 81.88 57.1637 81.214C57.5117 80.542 57.9857 80.035 58.5857 79.693C59.1917 79.351 59.8817 79.18 60.6557 79.18C61.4237 79.18 62.1077 79.351 62.7077 79.693C63.3137 80.035 63.7877 80.542 64.1297 81.214C64.4777 81.88 64.6517 82.708 64.6517 83.698C64.6517 84.682 64.4777 85.51 64.1297 86.182C63.7877 86.854 63.3137 87.361 62.7077 87.703C62.1077 88.045 61.4237 88.216 60.6557 88.216ZM60.6197 86.992C61.1777 86.992 61.6517 86.86 62.0417 86.596C62.4317 86.326 62.7257 85.945 62.9237 85.453C63.1277 84.961 63.2297 84.376 63.2297 83.698C63.2297 82.672 63.0167 81.865 62.5907 81.277C62.1647 80.683 61.5317 80.386 60.6917 80.386C60.1277 80.386 59.6507 80.521 59.2607 80.791C58.8767 81.055 58.5827 81.436 58.3787 81.934C58.1807 82.426 58.0817 83.014 58.0817 83.698C58.0817 84.712 58.2947 85.516 58.7207 86.11C59.1527 86.698 59.7857 86.992 60.6197 86.992ZM67.1154 88V75.724H68.5194V88H67.1154ZM68.3034 83.068L72.6954 79.396H74.6574L68.3034 84.562V83.068ZM73.1274 88L69.0414 82.564L70.4634 82.312L74.8554 88H73.1274ZM77.78 77.362C77.492 77.362 77.264 77.281 77.096 77.119C76.928 76.951 76.844 76.732 76.844 76.462C76.844 76.198 76.928 75.988 77.096 75.832C77.264 75.676 77.492 75.598 77.78 75.598C78.068 75.598 78.296 75.676 78.464 75.832C78.632 75.988 78.716 76.198 78.716 76.462C78.716 76.732 78.632 76.951 78.464 77.119C78.296 77.281 78.068 77.362 77.78 77.362ZM77.078 88V79.378H78.482V88H77.078ZM88.1993 88V82.942C88.1993 82.12 88.0013 81.496 87.6053 81.07C87.2153 80.638 86.6813 80.422 86.0033 80.422C85.4873 80.422 85.0403 80.563 84.6623 80.845C84.2843 81.127 83.9933 81.532 83.7893 82.06C83.5853 82.582 83.4833 83.206 83.4833 83.932H82.9433C82.9433 82.93 83.0753 82.075 83.3393 81.367C83.6033 80.659 83.9873 80.119 84.4913 79.747C85.0013 79.369 85.6193 79.18 86.3453 79.18C87.0233 79.18 87.6023 79.333 88.0823 79.639C88.5683 79.939 88.9403 80.371 89.1983 80.935C89.4563 81.499 89.5853 82.168 89.5853 82.942V88H88.1993ZM82.0793 88V79.396H83.2853L83.4833 81.376V88H82.0793ZM95.7146 92.428C94.8326 92.428 94.0676 92.302 93.4196 92.05C92.7716 91.804 92.2676 91.471 91.9076 91.051C91.5536 90.637 91.3766 90.178 91.3766 89.674C91.3766 89.008 91.6196 88.498 92.1056 88.144C92.5976 87.796 93.2306 87.622 94.0046 87.622L94.7786 88.108C94.1306 88.108 93.6296 88.243 93.2756 88.513C92.9216 88.783 92.7446 89.152 92.7446 89.62C92.7446 90.088 92.9966 90.484 93.5006 90.808C94.0046 91.132 94.7426 91.294 95.7146 91.294C96.4346 91.294 97.0646 91.189 97.6046 90.979C98.1506 90.775 98.5736 90.505 98.8736 90.169C99.1796 89.839 99.3326 89.482 99.3326 89.098C99.3326 88.828 99.2336 88.594 99.0356 88.396C98.8376 88.204 98.5346 88.108 98.1266 88.108H94.7786C94.1966 88.108 93.6926 88.021 93.2666 87.847C92.8466 87.667 92.5226 87.433 92.2946 87.145C92.0666 86.857 91.9526 86.542 91.9526 86.2C91.9526 85.84 92.0546 85.534 92.2586 85.282C92.4626 85.03 92.7266 84.838 93.0506 84.706C93.3806 84.574 93.7346 84.508 94.1126 84.508L94.3826 85.03C94.2026 85.03 94.0196 85.072 93.8336 85.156C93.6536 85.234 93.5006 85.354 93.3746 85.516C93.2546 85.672 93.1946 85.87 93.1946 86.11C93.1946 86.386 93.3086 86.617 93.5366 86.803C93.7646 86.989 94.1786 87.082 94.7786 87.082H98.1266C98.9366 87.082 99.5726 87.253 100.035 87.595C100.503 87.937 100.737 88.414 100.737 89.026C100.737 89.59 100.536 90.13 100.134 90.646C99.7316 91.168 99.1556 91.594 98.4056 91.924C97.6556 92.26 96.7586 92.428 95.7146 92.428ZM95.9666 85.48C95.3066 85.48 94.7096 85.348 94.1756 85.084C93.6476 84.82 93.2276 84.451 92.9156 83.977C92.6096 83.503 92.4566 82.954 92.4566 82.33C92.4566 81.7 92.6096 81.148 92.9156 80.674C93.2276 80.2 93.6476 79.834 94.1756 79.576C94.7096 79.312 95.3066 79.18 95.9666 79.18C96.6086 79.18 97.1906 79.312 97.7126 79.576C98.2406 79.834 98.6606 80.2 98.9726 80.674C99.2846 81.148 99.4406 81.7 99.4406 82.33C99.4406 82.954 99.2846 83.503 98.9726 83.977C98.6606 84.451 98.2406 84.82 97.7126 85.084C97.1906 85.348 96.6086 85.48 95.9666 85.48ZM95.9666 84.472C96.6266 84.472 97.1396 84.268 97.5056 83.86C97.8716 83.452 98.0546 82.942 98.0546 82.33C98.0546 81.7 97.8716 81.19 97.5056 80.8C97.1396 80.404 96.6266 80.206 95.9666 80.206C95.3126 80.206 94.7966 80.404 94.4186 80.8C94.0466 81.19 93.8606 81.7 93.8606 82.33C93.8606 82.942 94.0466 83.452 94.4186 83.86C94.7966 84.268 95.3126 84.472 95.9666 84.472ZM98.7926 80.548L98.1266 80.278C98.1266 79.774 98.2256 79.333 98.4236 78.955C98.6216 78.571 98.9036 78.274 99.2696 78.064C99.6356 77.848 100.071 77.74 100.575 77.74L100.467 79.126C99.9266 79.126 99.5126 79.243 99.2246 79.477C98.9366 79.705 98.7926 80.062 98.7926 80.548ZM107.032 88V78.064C107.032 77.494 107.14 77.029 107.356 76.669C107.578 76.303 107.872 76.033 108.238 75.859C108.61 75.685 109.024 75.598 109.48 75.598C109.726 75.598 109.975 75.616 110.227 75.652C110.485 75.688 110.74 75.742 110.992 75.814L110.722 76.93C110.542 76.858 110.362 76.804 110.182 76.768C110.008 76.732 109.84 76.714 109.678 76.714C109.486 76.714 109.294 76.75 109.102 76.822C108.91 76.894 108.751 77.029 108.625 77.227C108.499 77.425 108.436 77.71 108.436 78.082V88H107.032ZM105.628 80.368V79.396H110.218V80.368H105.628ZM115.578 88.216C114.804 88.216 114.114 88.045 113.508 87.703C112.908 87.361 112.434 86.854 112.086 86.182C111.738 85.51 111.564 84.682 111.564 83.698C111.564 82.708 111.738 81.88 112.086 81.214C112.434 80.542 112.908 80.035 113.508 79.693C114.114 79.351 114.804 79.18 115.578 79.18C116.346 79.18 117.03 79.351 117.63 79.693C118.236 80.035 118.71 80.542 119.052 81.214C119.4 81.88 119.574 82.708 119.574 83.698C119.574 84.682 119.4 85.51 119.052 86.182C118.71 86.854 118.236 87.361 117.63 87.703C117.03 88.045 116.346 88.216 115.578 88.216ZM115.542 86.992C116.1 86.992 116.574 86.86 116.964 86.596C117.354 86.326 117.648 85.945 117.846 85.453C118.05 84.961 118.152 84.376 118.152 83.698C118.152 82.672 117.939 81.865 117.513 81.277C117.087 80.683 116.454 80.386 115.614 80.386C115.05 80.386 114.573 80.521 114.183 80.791C113.799 81.055 113.505 81.436 113.301 81.934C113.103 82.426 113.004 83.014 113.004 83.698C113.004 84.712 113.217 85.516 113.643 86.11C114.075 86.698 114.708 86.992 115.542 86.992ZM122.038 88V79.378H123.442V88H122.038ZM123.01 84.112C123.01 83.02 123.115 82.114 123.325 81.394C123.535 80.668 123.841 80.128 124.243 79.774C124.651 79.414 125.146 79.234 125.728 79.234C125.92 79.234 126.094 79.249 126.25 79.279C126.412 79.303 126.574 79.342 126.736 79.396L126.646 80.782C126.478 80.728 126.295 80.683 126.097 80.647C125.899 80.605 125.722 80.584 125.566 80.584C125.056 80.584 124.645 80.731 124.333 81.025C124.021 81.313 123.793 81.721 123.649 82.249C123.511 82.777 123.442 83.398 123.442 84.112H123.01ZM138.393 88V82.942C138.393 82.12 138.195 81.496 137.799 81.07C137.409 80.638 136.875 80.422 136.197 80.422C135.681 80.422 135.234 80.563 134.856 80.845C134.478 81.127 134.187 81.532 133.983 82.06C133.779 82.582 133.677 83.206 133.677 83.932H133.137C133.137 82.93 133.269 82.075 133.533 81.367C133.797 80.659 134.181 80.119 134.685 79.747C135.195 79.369 135.813 79.18 136.539 79.18C137.217 79.18 137.796 79.333 138.276 79.639C138.762 79.939 139.134 80.371 139.392 80.935C139.65 81.499 139.779 82.168 139.779 82.942V88H138.393ZM132.273 88V79.396H133.479L133.677 81.376V88H132.273ZM145.855 88.216C145.111 88.216 144.445 88.027 143.857 87.649C143.275 87.265 142.813 86.734 142.471 86.056C142.135 85.378 141.967 84.598 141.967 83.716C141.967 82.774 142.135 81.964 142.471 81.286C142.807 80.608 143.266 80.089 143.848 79.729C144.436 79.363 145.105 79.18 145.855 79.18C146.509 79.18 147.067 79.312 147.529 79.576C147.991 79.84 148.363 80.197 148.645 80.647C148.927 81.097 149.122 81.607 149.23 82.177C149.344 82.741 149.377 83.326 149.329 83.932H143.101V83.068H148.402L147.988 83.338C148.006 82.984 147.985 82.63 147.925 82.276C147.871 81.922 147.766 81.598 147.61 81.304C147.454 81.004 147.235 80.764 146.953 80.584C146.671 80.404 146.311 80.314 145.873 80.314C145.321 80.314 144.859 80.455 144.487 80.737C144.115 81.019 143.836 81.391 143.65 81.853C143.464 82.309 143.371 82.804 143.371 83.338V83.914C143.371 84.514 143.461 85.051 143.641 85.525C143.827 85.999 144.103 86.374 144.469 86.65C144.835 86.926 145.297 87.064 145.855 87.064C146.413 87.064 146.872 86.929 147.232 86.659C147.592 86.389 147.811 85.99 147.889 85.462H149.347C149.257 86.032 149.053 86.524 148.735 86.938C148.417 87.346 148.012 87.661 147.52 87.883C147.028 88.105 146.473 88.216 145.855 88.216ZM150.349 79.396H151.807L154.003 86.578H153.823L155.965 79.81H157.135L159.259 86.596H159.097L161.293 79.396H162.697L159.871 88H158.503L156.415 81.646H156.631L154.561 88H153.193L150.349 79.396ZM180.713 88V82.942C180.713 82.12 180.515 81.496 180.119 81.07C179.729 80.638 179.201 80.422 178.535 80.422C177.755 80.422 177.158 80.725 176.744 81.331C176.33 81.931 176.123 82.762 176.123 83.824H175.475C175.475 83.05 175.55 82.372 175.7 81.79C175.856 81.208 176.081 80.725 176.375 80.341C176.669 79.951 177.026 79.66 177.446 79.468C177.866 79.276 178.343 79.18 178.877 79.18C179.555 79.18 180.134 79.333 180.614 79.639C181.1 79.939 181.472 80.371 181.73 80.935C181.988 81.499 182.117 82.168 182.117 82.942V88H180.713ZM168.617 88V79.396H169.823L169.985 81.124C170.255 80.5 170.633 80.02 171.119 79.684C171.611 79.348 172.199 79.18 172.883 79.18C173.561 79.18 174.14 79.333 174.62 79.639C175.106 79.939 175.478 80.371 175.736 80.935C175.994 81.499 176.123 82.168 176.123 82.942V88H174.737V82.942C174.737 82.12 174.539 81.496 174.143 81.07C173.753 80.638 173.219 80.422 172.541 80.422C172.025 80.422 171.578 80.563 171.2 80.845C170.822 81.127 170.531 81.532 170.327 82.06C170.123 82.582 170.021 83.206 170.021 83.932V88H168.617ZM190.515 88L190.335 86.11V82.42C190.335 81.646 190.17 81.091 189.84 80.755C189.51 80.413 189.015 80.242 188.355 80.242C187.983 80.242 187.644 80.296 187.338 80.404C187.038 80.512 186.798 80.68 186.618 80.908C186.444 81.13 186.357 81.418 186.357 81.772H184.791C184.791 81.148 184.944 80.647 185.25 80.269C185.556 79.885 185.976 79.609 186.51 79.441C187.05 79.267 187.665 79.18 188.355 79.18C189.015 79.18 189.6 79.291 190.11 79.513C190.62 79.735 191.019 80.089 191.307 80.575C191.595 81.055 191.739 81.682 191.739 82.456V88H190.515ZM187.581 88.216C186.873 88.216 186.288 88.09 185.826 87.838C185.364 87.586 185.019 87.259 184.791 86.857C184.563 86.455 184.449 86.032 184.449 85.588C184.449 85.006 184.593 84.532 184.881 84.166C185.175 83.8 185.574 83.533 186.078 83.365C186.582 83.191 187.149 83.104 187.779 83.104C188.229 83.104 188.679 83.149 189.129 83.239C189.585 83.329 190.029 83.452 190.461 83.608V84.49C190.101 84.346 189.693 84.232 189.237 84.148C188.787 84.064 188.373 84.022 187.995 84.022C187.419 84.022 186.933 84.142 186.537 84.382C186.141 84.616 185.943 85.018 185.943 85.588C185.943 86.008 186.093 86.368 186.393 86.668C186.699 86.968 187.185 87.118 187.851 87.118C188.319 87.118 188.739 87.01 189.111 86.794C189.489 86.572 189.786 86.296 190.002 85.966C190.224 85.636 190.335 85.306 190.335 84.976H190.677C190.677 85.552 190.551 86.086 190.299 86.578C190.053 87.07 189.699 87.466 189.237 87.766C188.775 88.066 188.223 88.216 187.581 88.216ZM200.951 88V82.942C200.951 82.12 200.753 81.496 200.357 81.07C199.967 80.638 199.433 80.422 198.755 80.422C198.239 80.422 197.792 80.563 197.414 80.845C197.036 81.127 196.745 81.532 196.541 82.06C196.337 82.582 196.235 83.206 196.235 83.932H195.695C195.695 82.93 195.827 82.075 196.091 81.367C196.355 80.659 196.739 80.119 197.243 79.747C197.753 79.369 198.371 79.18 199.097 79.18C199.775 79.18 200.354 79.333 200.834 79.639C201.32 79.939 201.692 80.371 201.95 80.935C202.208 81.499 202.337 82.168 202.337 82.942V88H200.951ZM194.831 88V79.396H196.037L196.235 81.376V88H194.831ZM210.752 88L210.572 86.11V82.42C210.572 81.646 210.407 81.091 210.077 80.755C209.747 80.413 209.252 80.242 208.592 80.242C208.22 80.242 207.881 80.296 207.575 80.404C207.275 80.512 207.035 80.68 206.855 80.908C206.681 81.13 206.594 81.418 206.594 81.772H205.028C205.028 81.148 205.181 80.647 205.487 80.269C205.793 79.885 206.213 79.609 206.747 79.441C207.287 79.267 207.902 79.18 208.592 79.18C209.252 79.18 209.837 79.291 210.347 79.513C210.857 79.735 211.256 80.089 211.544 80.575C211.832 81.055 211.976 81.682 211.976 82.456V88H210.752ZM207.818 88.216C207.11 88.216 206.525 88.09 206.063 87.838C205.601 87.586 205.256 87.259 205.028 86.857C204.8 86.455 204.686 86.032 204.686 85.588C204.686 85.006 204.83 84.532 205.118 84.166C205.412 83.8 205.811 83.533 206.315 83.365C206.819 83.191 207.386 83.104 208.016 83.104C208.466 83.104 208.916 83.149 209.366 83.239C209.822 83.329 210.266 83.452 210.698 83.608V84.49C210.338 84.346 209.93 84.232 209.474 84.148C209.024 84.064 208.61 84.022 208.232 84.022C207.656 84.022 207.17 84.142 206.774 84.382C206.378 84.616 206.18 85.018 206.18 85.588C206.18 86.008 206.33 86.368 206.63 86.668C206.936 86.968 207.422 87.118 208.088 87.118C208.556 87.118 208.976 87.01 209.348 86.794C209.726 86.572 210.023 86.296 210.239 85.966C210.461 85.636 210.572 85.306 210.572 84.976H210.914C210.914 85.552 210.788 86.086 210.536 86.578C210.29 87.07 209.936 87.466 209.474 87.766C209.012 88.066 208.46 88.216 207.818 88.216ZM218.11 92.428C217.228 92.428 216.463 92.302 215.815 92.05C215.167 91.804 214.663 91.471 214.303 91.051C213.949 90.637 213.772 90.178 213.772 89.674C213.772 89.008 214.015 88.498 214.501 88.144C214.993 87.796 215.626 87.622 216.4 87.622L217.174 88.108C216.526 88.108 216.025 88.243 215.671 88.513C215.317 88.783 215.14 89.152 215.14 89.62C215.14 90.088 215.392 90.484 215.896 90.808C216.4 91.132 217.138 91.294 218.11 91.294C218.83 91.294 219.46 91.189 220 90.979C220.546 90.775 220.969 90.505 221.269 90.169C221.575 89.839 221.728 89.482 221.728 89.098C221.728 88.828 221.629 88.594 221.431 88.396C221.233 88.204 220.93 88.108 220.522 88.108H217.174C216.592 88.108 216.088 88.021 215.662 87.847C215.242 87.667 214.918 87.433 214.69 87.145C214.462 86.857 214.348 86.542 214.348 86.2C214.348 85.84 214.45 85.534 214.654 85.282C214.858 85.03 215.122 84.838 215.446 84.706C215.776 84.574 216.13 84.508 216.508 84.508L216.778 85.03C216.598 85.03 216.415 85.072 216.229 85.156C216.049 85.234 215.896 85.354 215.77 85.516C215.65 85.672 215.59 85.87 215.59 86.11C215.59 86.386 215.704 86.617 215.932 86.803C216.16 86.989 216.574 87.082 217.174 87.082H220.522C221.332 87.082 221.968 87.253 222.43 87.595C222.898 87.937 223.132 88.414 223.132 89.026C223.132 89.59 222.931 90.13 222.529 90.646C222.127 91.168 221.551 91.594 220.801 91.924C220.051 92.26 219.154 92.428 218.11 92.428ZM218.362 85.48C217.702 85.48 217.105 85.348 216.571 85.084C216.043 84.82 215.623 84.451 215.311 83.977C215.005 83.503 214.852 82.954 214.852 82.33C214.852 81.7 215.005 81.148 215.311 80.674C215.623 80.2 216.043 79.834 216.571 79.576C217.105 79.312 217.702 79.18 218.362 79.18C219.004 79.18 219.586 79.312 220.108 79.576C220.636 79.834 221.056 80.2 221.368 80.674C221.68 81.148 221.836 81.7 221.836 82.33C221.836 82.954 221.68 83.503 221.368 83.977C221.056 84.451 220.636 84.82 220.108 85.084C219.586 85.348 219.004 85.48 218.362 85.48ZM218.362 84.472C219.022 84.472 219.535 84.268 219.901 83.86C220.267 83.452 220.45 82.942 220.45 82.33C220.45 81.7 220.267 81.19 219.901 80.8C219.535 80.404 219.022 80.206 218.362 80.206C217.708 80.206 217.192 80.404 216.814 80.8C216.442 81.19 216.256 81.7 216.256 82.33C216.256 82.942 216.442 83.452 216.814 83.86C217.192 84.268 217.708 84.472 218.362 84.472ZM221.188 80.548L220.522 80.278C220.522 79.774 220.621 79.333 220.819 78.955C221.017 78.571 221.299 78.274 221.665 78.064C222.031 77.848 222.466 77.74 222.97 77.74L222.862 79.126C222.322 79.126 221.908 79.243 221.62 79.477C221.332 79.705 221.188 80.062 221.188 80.548ZM227.947 88.216C227.203 88.216 226.537 88.027 225.949 87.649C225.367 87.265 224.905 86.734 224.563 86.056C224.227 85.378 224.059 84.598 224.059 83.716C224.059 82.774 224.227 81.964 224.563 81.286C224.899 80.608 225.358 80.089 225.94 79.729C226.528 79.363 227.197 79.18 227.947 79.18C228.601 79.18 229.159 79.312 229.621 79.576C230.083 79.84 230.455 80.197 230.737 80.647C231.019 81.097 231.214 81.607 231.322 82.177C231.436 82.741 231.469 83.326 231.421 83.932H225.193V83.068H230.494L230.08 83.338C230.098 82.984 230.077 82.63 230.017 82.276C229.963 81.922 229.858 81.598 229.702 81.304C229.546 81.004 229.327 80.764 229.045 80.584C228.763 80.404 228.403 80.314 227.965 80.314C227.413 80.314 226.951 80.455 226.579 80.737C226.207 81.019 225.928 81.391 225.742 81.853C225.556 82.309 225.463 82.804 225.463 83.338V83.914C225.463 84.514 225.553 85.051 225.733 85.525C225.919 85.999 226.195 86.374 226.561 86.65C226.927 86.926 227.389 87.064 227.947 87.064C228.505 87.064 228.964 86.929 229.324 86.659C229.684 86.389 229.903 85.99 229.981 85.462H231.439C231.349 86.032 231.145 86.524 230.827 86.938C230.509 87.346 230.104 87.661 229.612 87.883C229.12 88.105 228.565 88.216 227.947 88.216ZM246.031 88V82.942C246.031 82.12 245.833 81.496 245.437 81.07C245.047 80.638 244.519 80.422 243.853 80.422C243.073 80.422 242.476 80.725 242.062 81.331C241.648 81.931 241.441 82.762 241.441 83.824H240.793C240.793 83.05 240.868 82.372 241.018 81.79C241.174 81.208 241.399 80.725 241.693 80.341C241.987 79.951 242.344 79.66 242.764 79.468C243.184 79.276 243.661 79.18 244.195 79.18C244.873 79.18 245.452 79.333 245.932 79.639C246.418 79.939 246.79 80.371 247.048 80.935C247.306 81.499 247.435 82.168 247.435 82.942V88H246.031ZM233.935 88V79.396H235.141L235.303 81.124C235.573 80.5 235.951 80.02 236.437 79.684C236.929 79.348 237.517 79.18 238.201 79.18C238.879 79.18 239.458 79.333 239.938 79.639C240.424 79.939 240.796 80.371 241.054 80.935C241.312 81.499 241.441 82.168 241.441 82.942V88H240.055V82.942C240.055 82.12 239.857 81.496 239.461 81.07C239.071 80.638 238.537 80.422 237.859 80.422C237.343 80.422 236.896 80.563 236.518 80.845C236.14 81.127 235.849 81.532 235.645 82.06C235.441 82.582 235.339 83.206 235.339 83.932V88H233.935ZM253.492 88.216C252.748 88.216 252.082 88.027 251.494 87.649C250.912 87.265 250.45 86.734 250.108 86.056C249.772 85.378 249.604 84.598 249.604 83.716C249.604 82.774 249.772 81.964 250.108 81.286C250.444 80.608 250.903 80.089 251.485 79.729C252.073 79.363 252.742 79.18 253.492 79.18C254.146 79.18 254.704 79.312 255.166 79.576C255.628 79.84 256 80.197 256.282 80.647C256.564 81.097 256.759 81.607 256.867 82.177C256.981 82.741 257.014 83.326 256.966 83.932H250.738V83.068H256.039L255.625 83.338C255.643 82.984 255.622 82.63 255.562 82.276C255.508 81.922 255.403 81.598 255.247 81.304C255.091 81.004 254.872 80.764 254.59 80.584C254.308 80.404 253.948 80.314 253.51 80.314C252.958 80.314 252.496 80.455 252.124 80.737C251.752 81.019 251.473 81.391 251.287 81.853C251.101 82.309 251.008 82.804 251.008 83.338V83.914C251.008 84.514 251.098 85.051 251.278 85.525C251.464 85.999 251.74 86.374 252.106 86.65C252.472 86.926 252.934 87.064 253.492 87.064C254.05 87.064 254.509 86.929 254.869 86.659C255.229 86.389 255.448 85.99 255.526 85.462H256.984C256.894 86.032 256.69 86.524 256.372 86.938C256.054 87.346 255.649 87.661 255.157 87.883C254.665 88.105 254.11 88.216 253.492 88.216ZM265.601 88V82.942C265.601 82.12 265.403 81.496 265.007 81.07C264.617 80.638 264.083 80.422 263.405 80.422C262.889 80.422 262.442 80.563 262.064 80.845C261.686 81.127 261.395 81.532 261.191 82.06C260.987 82.582 260.885 83.206 260.885 83.932H260.345C260.345 82.93 260.477 82.075 260.741 81.367C261.005 80.659 261.389 80.119 261.893 79.747C262.403 79.369 263.021 79.18 263.747 79.18C264.425 79.18 265.004 79.333 265.484 79.639C265.97 79.939 266.342 80.371 266.6 80.935C266.858 81.499 266.987 82.168 266.987 82.942V88H265.601ZM259.481 88V79.396H260.687L260.885 81.376V88H259.481ZM272.72 88.216C272.252 88.216 271.832 88.126 271.46 87.946C271.088 87.766 270.794 87.496 270.578 87.136C270.362 86.776 270.254 86.326 270.254 85.786V77.002H271.64V85.75C271.64 86.638 272.054 87.082 272.882 87.082C273.128 87.082 273.365 87.055 273.593 87.001C273.827 86.947 274.088 86.866 274.376 86.758L274.574 87.766C274.268 87.898 273.962 88.006 273.656 88.09C273.356 88.174 273.044 88.216 272.72 88.216ZM268.868 80.368V79.396H274.358V80.368H268.868ZM277.939 85.12V84.31C277.939 83.788 277.993 83.359 278.101 83.023C278.215 82.687 278.401 82.396 278.659 82.15C278.917 81.904 279.271 81.658 279.721 81.412C280.123 81.196 280.444 80.995 280.684 80.809C280.924 80.623 281.095 80.422 281.197 80.206C281.305 79.99 281.359 79.726 281.359 79.414C281.359 78.946 281.167 78.556 280.783 78.244C280.405 77.932 279.883 77.776 279.217 77.776C278.479 77.776 277.915 77.923 277.525 78.217C277.135 78.505 276.889 78.91 276.787 79.432H275.293C275.377 78.556 275.743 77.848 276.391 77.308C277.045 76.768 277.975 76.498 279.181 76.498C279.949 76.498 280.609 76.633 281.161 76.903C281.719 77.167 282.145 77.524 282.439 77.974C282.739 78.418 282.889 78.91 282.889 79.45C282.889 80.068 282.733 80.587 282.421 81.007C282.109 81.421 281.605 81.814 280.909 82.186C280.507 82.408 280.189 82.615 279.955 82.807C279.727 82.993 279.565 83.209 279.469 83.455C279.373 83.695 279.325 84.01 279.325 84.4V85.12H277.939ZM278.659 88.216C278.359 88.216 278.11 88.12 277.912 87.928C277.714 87.73 277.615 87.493 277.615 87.217C277.615 86.935 277.711 86.692 277.903 86.488C278.101 86.284 278.35 86.182 278.65 86.182C278.95 86.182 279.205 86.284 279.415 86.488C279.631 86.686 279.739 86.926 279.739 87.208C279.739 87.484 279.634 87.721 279.424 87.919C279.214 88.117 278.959 88.216 278.659 88.216ZM287.702 76.696H289.286L292.22 86.758H291.806L294.812 77.866H295.766L298.736 86.686H298.34L301.706 76.696H303.272L299.276 88H297.8L295.19 80.332H295.46L292.76 88H291.284L287.702 76.696ZM307.49 88.216C306.746 88.216 306.08 88.027 305.492 87.649C304.91 87.265 304.448 86.734 304.106 86.056C303.77 85.378 303.602 84.598 303.602 83.716C303.602 82.774 303.77 81.964 304.106 81.286C304.442 80.608 304.901 80.089 305.483 79.729C306.071 79.363 306.74 79.18 307.49 79.18C308.144 79.18 308.702 79.312 309.164 79.576C309.626 79.84 309.998 80.197 310.28 80.647C310.562 81.097 310.757 81.607 310.865 82.177C310.979 82.741 311.012 83.326 310.964 83.932H304.736V83.068H310.037L309.623 83.338C309.641 82.984 309.62 82.63 309.56 82.276C309.506 81.922 309.401 81.598 309.245 81.304C309.089 81.004 308.87 80.764 308.588 80.584C308.306 80.404 307.946 80.314 307.508 80.314C306.956 80.314 306.494 80.455 306.122 80.737C305.75 81.019 305.471 81.391 305.285 81.853C305.099 82.309 305.006 82.804 305.006 83.338V83.914C305.006 84.514 305.096 85.051 305.276 85.525C305.462 85.999 305.738 86.374 306.104 86.65C306.47 86.926 306.932 87.064 307.49 87.064C308.048 87.064 308.507 86.929 308.867 86.659C309.227 86.389 309.446 85.99 309.524 85.462H310.982C310.892 86.032 310.688 86.524 310.37 86.938C310.052 87.346 309.647 87.661 309.155 87.883C308.663 88.105 308.108 88.216 307.49 88.216ZM322.807 88L322.627 86.11V82.42C322.627 81.646 322.462 81.091 322.132 80.755C321.802 80.413 321.307 80.242 320.647 80.242C320.275 80.242 319.936 80.296 319.63 80.404C319.33 80.512 319.09 80.68 318.91 80.908C318.736 81.13 318.649 81.418 318.649 81.772H317.083C317.083 81.148 317.236 80.647 317.542 80.269C317.848 79.885 318.268 79.609 318.802 79.441C319.342 79.267 319.957 79.18 320.647 79.18C321.307 79.18 321.892 79.291 322.402 79.513C322.912 79.735 323.311 80.089 323.599 80.575C323.887 81.055 324.031 81.682 324.031 82.456V88H322.807ZM319.873 88.216C319.165 88.216 318.58 88.09 318.118 87.838C317.656 87.586 317.311 87.259 317.083 86.857C316.855 86.455 316.741 86.032 316.741 85.588C316.741 85.006 316.885 84.532 317.173 84.166C317.467 83.8 317.866 83.533 318.37 83.365C318.874 83.191 319.441 83.104 320.071 83.104C320.521 83.104 320.971 83.149 321.421 83.239C321.877 83.329 322.321 83.452 322.753 83.608V84.49C322.393 84.346 321.985 84.232 321.529 84.148C321.079 84.064 320.665 84.022 320.287 84.022C319.711 84.022 319.225 84.142 318.829 84.382C318.433 84.616 318.235 85.018 318.235 85.588C318.235 86.008 318.385 86.368 318.685 86.668C318.991 86.968 319.477 87.118 320.143 87.118C320.611 87.118 321.031 87.01 321.403 86.794C321.781 86.572 322.078 86.296 322.294 85.966C322.516 85.636 322.627 85.306 322.627 84.976H322.969C322.969 85.552 322.843 86.086 322.591 86.578C322.345 87.07 321.991 87.466 321.529 87.766C321.067 88.066 320.515 88.216 319.873 88.216ZM327.123 88V79.378H328.527V88H327.123ZM328.095 84.112C328.095 83.02 328.2 82.114 328.41 81.394C328.62 80.668 328.926 80.128 329.328 79.774C329.736 79.414 330.231 79.234 330.813 79.234C331.005 79.234 331.179 79.249 331.335 79.279C331.497 79.303 331.659 79.342 331.821 79.396L331.731 80.782C331.563 80.728 331.38 80.683 331.182 80.647C330.984 80.605 330.807 80.584 330.651 80.584C330.141 80.584 329.73 80.731 329.418 81.025C329.106 81.313 328.878 81.721 328.734 82.249C328.596 82.777 328.527 83.398 328.527 84.112H328.095ZM336.345 88.216C335.601 88.216 334.935 88.027 334.347 87.649C333.765 87.265 333.303 86.734 332.961 86.056C332.625 85.378 332.457 84.598 332.457 83.716C332.457 82.774 332.625 81.964 332.961 81.286C333.297 80.608 333.756 80.089 334.338 79.729C334.926 79.363 335.595 79.18 336.345 79.18C336.999 79.18 337.557 79.312 338.019 79.576C338.481 79.84 338.853 80.197 339.135 80.647C339.417 81.097 339.612 81.607 339.72 82.177C339.834 82.741 339.867 83.326 339.819 83.932H333.591V83.068H338.892L338.478 83.338C338.496 82.984 338.475 82.63 338.415 82.276C338.361 81.922 338.256 81.598 338.1 81.304C337.944 81.004 337.725 80.764 337.443 80.584C337.161 80.404 336.801 80.314 336.363 80.314C335.811 80.314 335.349 80.455 334.977 80.737C334.605 81.019 334.326 81.391 334.14 81.853C333.954 82.309 333.861 82.804 333.861 83.338V83.914C333.861 84.514 333.951 85.051 334.131 85.525C334.317 85.999 334.593 86.374 334.959 86.65C335.325 86.926 335.787 87.064 336.345 87.064C336.903 87.064 337.362 86.929 337.722 86.659C338.082 86.389 338.301 85.99 338.379 85.462H339.837C339.747 86.032 339.543 86.524 339.225 86.938C338.907 87.346 338.502 87.661 338.01 87.883C337.518 88.105 336.963 88.216 336.345 88.216ZM45.146 117L44.966 115.11V111.42C44.966 110.646 44.801 110.091 44.471 109.755C44.141 109.413 43.646 109.242 42.986 109.242C42.614 109.242 42.275 109.296 41.969 109.404C41.669 109.512 41.429 109.68 41.249 109.908C41.075 110.13 40.988 110.418 40.988 110.772H39.422C39.422 110.148 39.575 109.647 39.881 109.269C40.187 108.885 40.607 108.609 41.141 108.441C41.681 108.267 42.296 108.18 42.986 108.18C43.646 108.18 44.231 108.291 44.741 108.513C45.251 108.735 45.65 109.089 45.938 109.575C46.226 110.055 46.37 110.682 46.37 111.456V117H45.146ZM42.212 117.216C41.504 117.216 40.919 117.09 40.457 116.838C39.995 116.586 39.65 116.259 39.422 115.857C39.194 115.455 39.08 115.032 39.08 114.588C39.08 114.006 39.224 113.532 39.512 113.166C39.806 112.8 40.205 112.533 40.709 112.365C41.213 112.191 41.78 112.104 42.41 112.104C42.86 112.104 43.31 112.149 43.76 112.239C44.216 112.329 44.66 112.452 45.092 112.608V113.49C44.732 113.346 44.324 113.232 43.868 113.148C43.418 113.064 43.004 113.022 42.626 113.022C42.05 113.022 41.564 113.142 41.168 113.382C40.772 113.616 40.574 114.018 40.574 114.588C40.574 115.008 40.724 115.368 41.024 115.668C41.33 115.968 41.816 116.118 42.482 116.118C42.95 116.118 43.37 116.01 43.742 115.794C44.12 115.572 44.417 115.296 44.633 114.966C44.855 114.636 44.966 114.306 44.966 113.976H45.308C45.308 114.552 45.182 115.086 44.93 115.578C44.684 116.07 44.33 116.466 43.868 116.766C43.406 117.066 42.854 117.216 42.212 117.216ZM49.4621 117V104.724H50.8661V117H49.4621ZM52.743 108.396H54.201L56.397 115.578H56.217L58.359 108.81H59.529L61.653 115.596H61.491L63.687 108.396H65.091L62.265 117H60.897L58.809 110.646H59.025L56.955 117H55.587L52.743 108.396ZM72.338 117L72.158 115.11V111.42C72.158 110.646 71.993 110.091 71.663 109.755C71.333 109.413 70.838 109.242 70.178 109.242C69.806 109.242 69.467 109.296 69.161 109.404C68.861 109.512 68.621 109.68 68.441 109.908C68.267 110.13 68.18 110.418 68.18 110.772H66.614C66.614 110.148 66.767 109.647 67.073 109.269C67.379 108.885 67.799 108.609 68.333 108.441C68.873 108.267 69.488 108.18 70.178 108.18C70.838 108.18 71.423 108.291 71.933 108.513C72.443 108.735 72.842 109.089 73.13 109.575C73.418 110.055 73.562 110.682 73.562 111.456V117H72.338ZM69.404 117.216C68.696 117.216 68.111 117.09 67.649 116.838C67.187 116.586 66.842 116.259 66.614 115.857C66.386 115.455 66.272 115.032 66.272 114.588C66.272 114.006 66.416 113.532 66.704 113.166C66.998 112.8 67.397 112.533 67.901 112.365C68.405 112.191 68.972 112.104 69.602 112.104C70.052 112.104 70.502 112.149 70.952 112.239C71.408 112.329 71.852 112.452 72.284 112.608V113.49C71.924 113.346 71.516 113.232 71.06 113.148C70.61 113.064 70.196 113.022 69.818 113.022C69.242 113.022 68.756 113.142 68.36 113.382C67.964 113.616 67.766 114.018 67.766 114.588C67.766 115.008 67.916 115.368 68.216 115.668C68.522 115.968 69.008 116.118 69.674 116.118C70.142 116.118 70.562 116.01 70.934 115.794C71.312 115.572 71.609 115.296 71.825 114.966C72.047 114.636 72.158 114.306 72.158 113.976H72.5C72.5 114.552 72.374 115.086 72.122 115.578C71.876 116.07 71.522 116.466 71.06 116.766C70.598 117.066 70.046 117.216 69.404 117.216ZM75.232 108.396H76.798L79.606 115.776H79.282L81.46 108.396H82.9L79.66 118.728C79.39 119.592 79.03 120.258 78.58 120.726C78.13 121.194 77.554 121.428 76.852 121.428C76.474 121.428 76.114 121.374 75.772 121.266C75.436 121.158 75.088 121.002 74.728 120.798V119.502C75.046 119.754 75.352 119.934 75.646 120.042C75.946 120.15 76.258 120.204 76.582 120.204C76.942 120.204 77.242 120.09 77.482 119.862C77.728 119.634 77.932 119.34 78.094 118.98C78.256 118.626 78.394 118.254 78.508 117.864L78.76 117L75.232 108.396ZM87.8648 117.216C87.0308 117.216 86.3348 117.099 85.7768 116.865C85.2188 116.625 84.7958 116.298 84.5078 115.884C84.2198 115.464 84.0668 114.984 84.0488 114.444H85.3988C85.4288 114.99 85.6478 115.401 86.0558 115.677C86.4698 115.947 87.0308 116.082 87.7388 116.082C88.1108 116.082 88.4528 116.022 88.7648 115.902C89.0768 115.782 89.3258 115.617 89.5118 115.407C89.6978 115.197 89.7908 114.96 89.7908 114.696C89.7908 114.36 89.6678 114.096 89.4218 113.904C89.1758 113.712 88.7828 113.544 88.2428 113.4L86.5688 112.86C85.8428 112.632 85.2848 112.32 84.8948 111.924C84.5108 111.522 84.3188 111.042 84.3188 110.484C84.3188 109.788 84.6248 109.23 85.2368 108.81C85.8488 108.39 86.6528 108.18 87.6488 108.18C88.7048 108.18 89.5238 108.396 90.1058 108.828C90.6878 109.26 90.9908 109.8 91.0148 110.448H89.6288C89.5748 110.07 89.3828 109.785 89.0528 109.593C88.7228 109.395 88.2548 109.296 87.6488 109.296C87.0668 109.296 86.6108 109.428 86.2808 109.692C85.9568 109.95 85.7948 110.238 85.7948 110.556C85.7948 111.15 86.3048 111.588 87.3248 111.87L89.0348 112.446C89.7728 112.668 90.3368 112.959 90.7268 113.319C91.1228 113.679 91.3208 114.138 91.3208 114.696C91.3208 115.128 91.1798 115.536 90.8978 115.92C90.6158 116.304 90.2168 116.616 89.7008 116.856C89.1848 117.096 88.5728 117.216 87.8648 117.216ZM100.945 117.216C100.201 117.216 99.5353 117.027 98.9473 116.649C98.3653 116.265 97.9033 115.734 97.5613 115.056C97.2253 114.378 97.0573 113.598 97.0573 112.716C97.0573 111.774 97.2253 110.964 97.5613 110.286C97.8973 109.608 98.3563 109.089 98.9383 108.729C99.5263 108.363 100.195 108.18 100.945 108.18C101.599 108.18 102.157 108.312 102.619 108.576C103.081 108.84 103.453 109.197 103.735 109.647C104.017 110.097 104.212 110.607 104.32 111.177C104.434 111.741 104.467 112.326 104.419 112.932H98.1913V112.068H103.492L103.078 112.338C103.096 111.984 103.075 111.63 103.015 111.276C102.961 110.922 102.856 110.598 102.7 110.304C102.544 110.004 102.325 109.764 102.043 109.584C101.761 109.404 101.401 109.314 100.963 109.314C100.411 109.314 99.9493 109.455 99.5773 109.737C99.2053 110.019 98.9263 110.391 98.7403 110.853C98.5543 111.309 98.4613 111.804 98.4613 112.338V112.914C98.4613 113.514 98.5513 114.051 98.7313 114.525C98.9173 114.999 99.1933 115.374 99.5593 115.65C99.9253 115.926 100.387 116.064 100.945 116.064C101.503 116.064 101.962 115.929 102.322 115.659C102.682 115.389 102.901 114.99 102.979 114.462H104.437C104.347 115.032 104.143 115.524 103.825 115.938C103.507 116.346 103.102 116.661 102.61 116.883C102.118 117.105 101.563 117.216 100.945 117.216ZM112.261 117L112.081 115.11V111.42C112.081 110.646 111.916 110.091 111.586 109.755C111.256 109.413 110.761 109.242 110.101 109.242C109.729 109.242 109.39 109.296 109.084 109.404C108.784 109.512 108.544 109.68 108.364 109.908C108.19 110.13 108.103 110.418 108.103 110.772H106.537C106.537 110.148 106.69 109.647 106.996 109.269C107.302 108.885 107.722 108.609 108.256 108.441C108.796 108.267 109.411 108.18 110.101 108.18C110.761 108.18 111.346 108.291 111.856 108.513C112.366 108.735 112.765 109.089 113.053 109.575C113.341 110.055 113.485 110.682 113.485 111.456V117H112.261ZM109.327 117.216C108.619 117.216 108.034 117.09 107.572 116.838C107.11 116.586 106.765 116.259 106.537 115.857C106.309 115.455 106.195 115.032 106.195 114.588C106.195 114.006 106.339 113.532 106.627 113.166C106.921 112.8 107.32 112.533 107.824 112.365C108.328 112.191 108.895 112.104 109.525 112.104C109.975 112.104 110.425 112.149 110.875 112.239C111.331 112.329 111.775 112.452 112.207 112.608V113.49C111.847 113.346 111.439 113.232 110.983 113.148C110.533 113.064 110.119 113.022 109.741 113.022C109.165 113.022 108.679 113.142 108.283 113.382C107.887 113.616 107.689 114.018 107.689 114.588C107.689 115.008 107.839 115.368 108.139 115.668C108.445 115.968 108.931 116.118 109.597 116.118C110.065 116.118 110.485 116.01 110.857 115.794C111.235 115.572 111.532 115.296 111.748 114.966C111.97 114.636 112.081 114.306 112.081 113.976H112.423C112.423 114.552 112.297 115.086 112.045 115.578C111.799 116.07 111.445 116.466 110.983 116.766C110.521 117.066 109.969 117.216 109.327 117.216ZM119.619 121.428C118.737 121.428 117.972 121.302 117.324 121.05C116.676 120.804 116.172 120.471 115.812 120.051C115.458 119.637 115.281 119.178 115.281 118.674C115.281 118.008 115.524 117.498 116.01 117.144C116.502 116.796 117.135 116.622 117.909 116.622L118.683 117.108C118.035 117.108 117.534 117.243 117.18 117.513C116.826 117.783 116.649 118.152 116.649 118.62C116.649 119.088 116.901 119.484 117.405 119.808C117.909 120.132 118.647 120.294 119.619 120.294C120.339 120.294 120.969 120.189 121.509 119.979C122.055 119.775 122.478 119.505 122.778 119.169C123.084 118.839 123.237 118.482 123.237 118.098C123.237 117.828 123.138 117.594 122.94 117.396C122.742 117.204 122.439 117.108 122.031 117.108H118.683C118.101 117.108 117.597 117.021 117.171 116.847C116.751 116.667 116.427 116.433 116.199 116.145C115.971 115.857 115.857 115.542 115.857 115.2C115.857 114.84 115.959 114.534 116.163 114.282C116.367 114.03 116.631 113.838 116.955 113.706C117.285 113.574 117.639 113.508 118.017 113.508L118.287 114.03C118.107 114.03 117.924 114.072 117.738 114.156C117.558 114.234 117.405 114.354 117.279 114.516C117.159 114.672 117.099 114.87 117.099 115.11C117.099 115.386 117.213 115.617 117.441 115.803C117.669 115.989 118.083 116.082 118.683 116.082H122.031C122.841 116.082 123.477 116.253 123.939 116.595C124.407 116.937 124.641 117.414 124.641 118.026C124.641 118.59 124.44 119.13 124.038 119.646C123.636 120.168 123.06 120.594 122.31 120.924C121.56 121.26 120.663 121.428 119.619 121.428ZM119.871 114.48C119.211 114.48 118.614 114.348 118.08 114.084C117.552 113.82 117.132 113.451 116.82 112.977C116.514 112.503 116.361 111.954 116.361 111.33C116.361 110.7 116.514 110.148 116.82 109.674C117.132 109.2 117.552 108.834 118.08 108.576C118.614 108.312 119.211 108.18 119.871 108.18C120.513 108.18 121.095 108.312 121.617 108.576C122.145 108.834 122.565 109.2 122.877 109.674C123.189 110.148 123.345 110.7 123.345 111.33C123.345 111.954 123.189 112.503 122.877 112.977C122.565 113.451 122.145 113.82 121.617 114.084C121.095 114.348 120.513 114.48 119.871 114.48ZM119.871 113.472C120.531 113.472 121.044 113.268 121.41 112.86C121.776 112.452 121.959 111.942 121.959 111.33C121.959 110.7 121.776 110.19 121.41 109.8C121.044 109.404 120.531 109.206 119.871 109.206C119.217 109.206 118.701 109.404 118.323 109.8C117.951 110.19 117.765 110.7 117.765 111.33C117.765 111.942 117.951 112.452 118.323 112.86C118.701 113.268 119.217 113.472 119.871 113.472ZM122.697 109.548L122.031 109.278C122.031 108.774 122.13 108.333 122.328 107.955C122.526 107.571 122.808 107.274 123.174 107.064C123.54 106.848 123.975 106.74 124.479 106.74L124.371 108.126C123.831 108.126 123.417 108.243 123.129 108.477C122.841 108.705 122.697 109.062 122.697 109.548ZM129.456 117.216C128.712 117.216 128.046 117.027 127.458 116.649C126.876 116.265 126.414 115.734 126.072 115.056C125.736 114.378 125.568 113.598 125.568 112.716C125.568 111.774 125.736 110.964 126.072 110.286C126.408 109.608 126.867 109.089 127.449 108.729C128.037 108.363 128.706 108.18 129.456 108.18C130.11 108.18 130.668 108.312 131.13 108.576C131.592 108.84 131.964 109.197 132.246 109.647C132.528 110.097 132.723 110.607 132.831 111.177C132.945 111.741 132.978 112.326 132.93 112.932H126.702V112.068H132.003L131.589 112.338C131.607 111.984 131.586 111.63 131.526 111.276C131.472 110.922 131.367 110.598 131.211 110.304C131.055 110.004 130.836 109.764 130.554 109.584C130.272 109.404 129.912 109.314 129.474 109.314C128.922 109.314 128.46 109.455 128.088 109.737C127.716 110.019 127.437 110.391 127.251 110.853C127.065 111.309 126.972 111.804 126.972 112.338V112.914C126.972 113.514 127.062 114.051 127.242 114.525C127.428 114.999 127.704 115.374 128.07 115.65C128.436 115.926 128.898 116.064 129.456 116.064C130.014 116.064 130.473 115.929 130.833 115.659C131.193 115.389 131.412 114.99 131.49 114.462H132.948C132.858 115.032 132.654 115.524 132.336 115.938C132.018 116.346 131.613 116.661 131.121 116.883C130.629 117.105 130.074 117.216 129.456 117.216ZM135.444 117V108.378H136.848V117H135.444ZM136.416 113.112C136.416 112.02 136.521 111.114 136.731 110.394C136.941 109.668 137.247 109.128 137.649 108.774C138.057 108.414 138.552 108.234 139.134 108.234C139.326 108.234 139.5 108.249 139.656 108.279C139.818 108.303 139.98 108.342 140.142 108.396L140.052 109.782C139.884 109.728 139.701 109.683 139.503 109.647C139.305 109.605 139.128 109.584 138.972 109.584C138.462 109.584 138.051 109.731 137.739 110.025C137.427 110.313 137.199 110.721 137.055 111.249C136.917 111.777 136.848 112.398 136.848 113.112H136.416ZM148.325 117.216C147.857 117.216 147.437 117.126 147.065 116.946C146.693 116.766 146.399 116.496 146.183 116.136C145.967 115.776 145.859 115.326 145.859 114.786V106.002H147.245V114.75C147.245 115.638 147.659 116.082 148.487 116.082C148.733 116.082 148.97 116.055 149.198 116.001C149.432 115.947 149.693 115.866 149.981 115.758L150.179 116.766C149.873 116.898 149.567 117.006 149.261 117.09C148.961 117.174 148.649 117.216 148.325 117.216ZM144.473 109.368V108.396H149.963V109.368H144.473ZM155.291 117.216C154.517 117.216 153.827 117.045 153.221 116.703C152.621 116.361 152.147 115.854 151.799 115.182C151.451 114.51 151.277 113.682 151.277 112.698C151.277 111.708 151.451 110.88 151.799 110.214C152.147 109.542 152.621 109.035 153.221 108.693C153.827 108.351 154.517 108.18 155.291 108.18C156.059 108.18 156.743 108.351 157.343 108.693C157.949 109.035 158.423 109.542 158.765 110.214C159.113 110.88 159.287 111.708 159.287 112.698C159.287 113.682 159.113 114.51 158.765 115.182C158.423 115.854 157.949 116.361 157.343 116.703C156.743 117.045 156.059 117.216 155.291 117.216ZM155.255 115.992C155.813 115.992 156.287 115.86 156.677 115.596C157.067 115.326 157.361 114.945 157.559 114.453C157.763 113.961 157.865 113.376 157.865 112.698C157.865 111.672 157.652 110.865 157.226 110.277C156.8 109.683 156.167 109.386 155.327 109.386C154.763 109.386 154.286 109.521 153.896 109.791C153.512 110.055 153.218 110.436 153.014 110.934C152.816 111.426 152.717 112.014 152.717 112.698C152.717 113.712 152.93 114.516 153.356 115.11C153.788 115.698 154.421 115.992 155.255 115.992ZM168.794 121.428C167.912 121.428 167.147 121.302 166.499 121.05C165.851 120.804 165.347 120.471 164.987 120.051C164.633 119.637 164.456 119.178 164.456 118.674C164.456 118.008 164.699 117.498 165.185 117.144C165.677 116.796 166.31 116.622 167.084 116.622L167.858 117.108C167.21 117.108 166.709 117.243 166.355 117.513C166.001 117.783 165.824 118.152 165.824 118.62C165.824 119.088 166.076 119.484 166.58 119.808C167.084 120.132 167.822 120.294 168.794 120.294C169.514 120.294 170.144 120.189 170.684 119.979C171.23 119.775 171.653 119.505 171.953 119.169C172.259 118.839 172.412 118.482 172.412 118.098C172.412 117.828 172.313 117.594 172.115 117.396C171.917 117.204 171.614 117.108 171.206 117.108H167.858C167.276 117.108 166.772 117.021 166.346 116.847C165.926 116.667 165.602 116.433 165.374 116.145C165.146 115.857 165.032 115.542 165.032 115.2C165.032 114.84 165.134 114.534 165.338 114.282C165.542 114.03 165.806 113.838 166.13 113.706C166.46 113.574 166.814 113.508 167.192 113.508L167.462 114.03C167.282 114.03 167.099 114.072 166.913 114.156C166.733 114.234 166.58 114.354 166.454 114.516C166.334 114.672 166.274 114.87 166.274 115.11C166.274 115.386 166.388 115.617 166.616 115.803C166.844 115.989 167.258 116.082 167.858 116.082H171.206C172.016 116.082 172.652 116.253 173.114 116.595C173.582 116.937 173.816 117.414 173.816 118.026C173.816 118.59 173.615 119.13 173.213 119.646C172.811 120.168 172.235 120.594 171.485 120.924C170.735 121.26 169.838 121.428 168.794 121.428ZM169.046 114.48C168.386 114.48 167.789 114.348 167.255 114.084C166.727 113.82 166.307 113.451 165.995 112.977C165.689 112.503 165.536 111.954 165.536 111.33C165.536 110.7 165.689 110.148 165.995 109.674C166.307 109.2 166.727 108.834 167.255 108.576C167.789 108.312 168.386 108.18 169.046 108.18C169.688 108.18 170.27 108.312 170.792 108.576C171.32 108.834 171.74 109.2 172.052 109.674C172.364 110.148 172.52 110.7 172.52 111.33C172.52 111.954 172.364 112.503 172.052 112.977C171.74 113.451 171.32 113.82 170.792 114.084C170.27 114.348 169.688 114.48 169.046 114.48ZM169.046 113.472C169.706 113.472 170.219 113.268 170.585 112.86C170.951 112.452 171.134 111.942 171.134 111.33C171.134 110.7 170.951 110.19 170.585 109.8C170.219 109.404 169.706 109.206 169.046 109.206C168.392 109.206 167.876 109.404 167.498 109.8C167.126 110.19 166.94 110.7 166.94 111.33C166.94 111.942 167.126 112.452 167.498 112.86C167.876 113.268 168.392 113.472 169.046 113.472ZM171.872 109.548L171.206 109.278C171.206 108.774 171.305 108.333 171.503 107.955C171.701 107.571 171.983 107.274 172.349 107.064C172.715 106.848 173.15 106.74 173.654 106.74L173.546 108.126C173.006 108.126 172.592 108.243 172.304 108.477C172.016 108.705 171.872 109.062 171.872 109.548ZM175.642 117V108.378H177.046V117H175.642ZM176.614 113.112C176.614 112.02 176.719 111.114 176.929 110.394C177.139 109.668 177.445 109.128 177.847 108.774C178.255 108.414 178.75 108.234 179.332 108.234C179.524 108.234 179.698 108.249 179.854 108.279C180.016 108.303 180.178 108.342 180.34 108.396L180.25 109.782C180.082 109.728 179.899 109.683 179.701 109.647C179.503 109.605 179.326 109.584 179.17 109.584C178.66 109.584 178.249 109.731 177.937 110.025C177.625 110.313 177.397 110.721 177.253 111.249C177.115 111.777 177.046 112.398 177.046 113.112H176.614ZM184.99 117.216C184.216 117.216 183.526 117.045 182.92 116.703C182.32 116.361 181.846 115.854 181.498 115.182C181.15 114.51 180.976 113.682 180.976 112.698C180.976 111.708 181.15 110.88 181.498 110.214C181.846 109.542 182.32 109.035 182.92 108.693C183.526 108.351 184.216 108.18 184.99 108.18C185.758 108.18 186.442 108.351 187.042 108.693C187.648 109.035 188.122 109.542 188.464 110.214C188.812 110.88 188.986 111.708 188.986 112.698C188.986 113.682 188.812 114.51 188.464 115.182C188.122 115.854 187.648 116.361 187.042 116.703C186.442 117.045 185.758 117.216 184.99 117.216ZM184.954 115.992C185.512 115.992 185.986 115.86 186.376 115.596C186.766 115.326 187.06 114.945 187.258 114.453C187.462 113.961 187.564 113.376 187.564 112.698C187.564 111.672 187.351 110.865 186.925 110.277C186.499 109.683 185.866 109.386 185.026 109.386C184.462 109.386 183.985 109.521 183.595 109.791C183.211 110.055 182.917 110.436 182.713 110.934C182.515 111.426 182.416 112.014 182.416 112.698C182.416 113.712 182.629 114.516 183.055 115.11C183.487 115.698 184.12 115.992 184.954 115.992ZM189.956 108.396H191.414L193.61 115.578H193.43L195.572 108.81H196.742L198.866 115.596H198.704L200.9 108.396H202.304L199.478 117H198.11L196.022 110.646H196.238L194.168 117H192.8L189.956 108.396ZM211.338 117.216C210.564 117.216 209.874 117.045 209.268 116.703C208.668 116.361 208.194 115.854 207.846 115.182C207.498 114.51 207.324 113.682 207.324 112.698C207.324 111.708 207.498 110.88 207.846 110.214C208.194 109.542 208.668 109.035 209.268 108.693C209.874 108.351 210.564 108.18 211.338 108.18C212.106 108.18 212.79 108.351 213.39 108.693C213.996 109.035 214.47 109.542 214.812 110.214C215.16 110.88 215.334 111.708 215.334 112.698C215.334 113.682 215.16 114.51 214.812 115.182C214.47 115.854 213.996 116.361 213.39 116.703C212.79 117.045 212.106 117.216 211.338 117.216ZM211.302 115.992C211.86 115.992 212.334 115.86 212.724 115.596C213.114 115.326 213.408 114.945 213.606 114.453C213.81 113.961 213.912 113.376 213.912 112.698C213.912 111.672 213.699 110.865 213.273 110.277C212.847 109.683 212.214 109.386 211.374 109.386C210.81 109.386 210.333 109.521 209.943 109.791C209.559 110.055 209.265 110.436 209.061 110.934C208.863 111.426 208.764 112.014 208.764 112.698C208.764 113.712 208.977 114.516 209.403 115.11C209.835 115.698 210.468 115.992 211.302 115.992ZM223.648 108.378H225.052V117H223.648V108.378ZM217.546 108.378H218.95V113.742C218.95 114.462 219.124 115.008 219.472 115.38C219.826 115.752 220.33 115.938 220.984 115.938C221.524 115.938 221.992 115.794 222.388 115.506C222.79 115.218 223.099 114.822 223.315 114.318C223.537 113.808 223.648 113.226 223.648 112.572H224.17C224.17 113.538 224.029 114.363 223.747 115.047C223.471 115.731 223.078 116.256 222.568 116.622C222.064 116.982 221.47 117.162 220.786 117.162C220.138 117.162 219.571 117.042 219.085 116.802C218.599 116.562 218.221 116.199 217.951 115.713C217.681 115.221 217.546 114.6 217.546 113.85V108.378ZM228.426 117V108.378H229.83V117H228.426ZM229.398 113.112C229.398 112.02 229.503 111.114 229.713 110.394C229.923 109.668 230.229 109.128 230.631 108.774C231.039 108.414 231.534 108.234 232.116 108.234C232.308 108.234 232.482 108.249 232.638 108.279C232.8 108.303 232.962 108.342 233.124 108.396L233.034 109.782C232.866 109.728 232.683 109.683 232.485 109.647C232.287 109.605 232.11 109.584 231.954 109.584C231.444 109.584 231.033 109.731 230.721 110.025C230.409 110.313 230.181 110.721 230.037 111.249C229.899 111.777 229.83 112.398 229.83 113.112H229.398ZM242.64 117.216C241.74 117.216 240.921 116.982 240.183 116.514C239.445 116.046 238.857 115.383 238.419 114.525C237.981 113.667 237.762 112.65 237.762 111.474C237.762 110.496 237.903 109.635 238.185 108.891C238.467 108.147 238.854 107.523 239.346 107.019C239.838 106.515 240.402 106.137 241.038 105.885C241.68 105.627 242.358 105.498 243.072 105.498C243.954 105.498 244.728 105.681 245.394 106.047C246.06 106.407 246.63 106.98 247.104 107.766L245.772 108.234C245.37 107.736 244.938 107.37 244.476 107.136C244.02 106.896 243.534 106.776 243.018 106.776C242.34 106.776 241.716 106.965 241.146 107.343C240.576 107.721 240.117 108.261 239.769 108.963C239.427 109.665 239.256 110.502 239.256 111.474C239.256 112.338 239.397 113.106 239.679 113.778C239.961 114.444 240.36 114.969 240.876 115.353C241.398 115.731 242.016 115.92 242.73 115.92C243.276 115.92 243.765 115.794 244.197 115.542C244.635 115.29 244.98 114.912 245.232 114.408C245.484 113.898 245.61 113.256 245.61 112.482H246.042C246.042 113.442 245.928 114.276 245.7 114.984C245.472 115.692 245.106 116.241 244.602 116.631C244.104 117.021 243.45 117.216 242.64 117.216ZM245.862 117L245.61 114.336V112.446L242.766 112.356V111.402H246.978V117H245.862ZM249.976 117V108.378H251.38V117H249.976ZM250.948 113.112C250.948 112.02 251.053 111.114 251.263 110.394C251.473 109.668 251.779 109.128 252.181 108.774C252.589 108.414 253.084 108.234 253.666 108.234C253.858 108.234 254.032 108.249 254.188 108.279C254.35 108.303 254.512 108.342 254.674 108.396L254.584 109.782C254.416 109.728 254.233 109.683 254.035 109.647C253.837 109.605 253.66 109.584 253.504 109.584C252.994 109.584 252.583 109.731 252.271 110.025C251.959 110.313 251.731 110.721 251.587 111.249C251.449 111.777 251.38 112.398 251.38 113.112H250.948ZM261.538 117L261.358 115.11V111.42C261.358 110.646 261.193 110.091 260.863 109.755C260.533 109.413 260.038 109.242 259.378 109.242C259.006 109.242 258.667 109.296 258.361 109.404C258.061 109.512 257.821 109.68 257.641 109.908C257.467 110.13 257.38 110.418 257.38 110.772H255.814C255.814 110.148 255.967 109.647 256.273 109.269C256.579 108.885 256.999 108.609 257.533 108.441C258.073 108.267 258.688 108.18 259.378 108.18C260.038 108.18 260.623 108.291 261.133 108.513C261.643 108.735 262.042 109.089 262.33 109.575C262.618 110.055 262.762 110.682 262.762 111.456V117H261.538ZM258.604 117.216C257.896 117.216 257.311 117.09 256.849 116.838C256.387 116.586 256.042 116.259 255.814 115.857C255.586 115.455 255.472 115.032 255.472 114.588C255.472 114.006 255.616 113.532 255.904 113.166C256.198 112.8 256.597 112.533 257.101 112.365C257.605 112.191 258.172 112.104 258.802 112.104C259.252 112.104 259.702 112.149 260.152 112.239C260.608 112.329 261.052 112.452 261.484 112.608V113.49C261.124 113.346 260.716 113.232 260.26 113.148C259.81 113.064 259.396 113.022 259.018 113.022C258.442 113.022 257.956 113.142 257.56 113.382C257.164 113.616 256.966 114.018 256.966 114.588C256.966 115.008 257.116 115.368 257.416 115.668C257.722 115.968 258.208 116.118 258.874 116.118C259.342 116.118 259.762 116.01 260.134 115.794C260.512 115.572 260.809 115.296 261.025 114.966C261.247 114.636 261.358 114.306 261.358 113.976H261.7C261.7 114.552 261.574 115.086 261.322 115.578C261.076 116.07 260.722 116.466 260.26 116.766C259.798 117.066 259.246 117.216 258.604 117.216ZM269.76 117.216C269.13 117.216 268.581 117.072 268.113 116.784C267.651 116.496 267.294 116.076 267.042 115.524C266.79 114.966 266.664 114.288 266.664 113.49H267.258C267.258 114.024 267.369 114.474 267.591 114.84C267.813 115.206 268.101 115.485 268.455 115.677C268.815 115.863 269.196 115.956 269.598 115.956C270.03 115.956 270.444 115.833 270.84 115.587C271.236 115.335 271.56 114.966 271.812 114.48C272.064 113.994 272.19 113.394 272.19 112.68C272.19 111.996 272.073 111.411 271.839 110.925C271.611 110.439 271.302 110.067 270.912 109.809C270.522 109.551 270.09 109.422 269.616 109.422C269.208 109.422 268.824 109.521 268.464 109.719C268.104 109.917 267.813 110.208 267.591 110.592C267.369 110.97 267.258 111.438 267.258 111.996H266.664C266.664 111.162 266.802 110.463 267.078 109.899C267.354 109.329 267.729 108.9 268.203 108.612C268.677 108.324 269.208 108.18 269.796 108.18C270.468 108.18 271.095 108.36 271.677 108.72C272.259 109.08 272.73 109.596 273.09 110.268C273.45 110.94 273.63 111.744 273.63 112.68C273.63 113.628 273.447 114.441 273.081 115.119C272.721 115.797 272.247 116.316 271.659 116.676C271.071 117.036 270.438 117.216 269.76 117.216ZM265.854 121.23V108.396H267.024L267.258 110.412V121.23H265.854ZM279.101 117.216C278.357 117.216 277.691 117.027 277.103 116.649C276.521 116.265 276.059 115.734 275.717 115.056C275.381 114.378 275.213 113.598 275.213 112.716C275.213 111.774 275.381 110.964 275.717 110.286C276.053 109.608 276.512 109.089 277.094 108.729C277.682 108.363 278.351 108.18 279.101 108.18C279.755 108.18 280.313 108.312 280.775 108.576C281.237 108.84 281.609 109.197 281.891 109.647C282.173 110.097 282.368 110.607 282.476 111.177C282.59 111.741 282.623 112.326 282.575 112.932H276.347V112.068H281.648L281.234 112.338C281.252 111.984 281.231 111.63 281.171 111.276C281.117 110.922 281.012 110.598 280.856 110.304C280.7 110.004 280.481 109.764 280.199 109.584C279.917 109.404 279.557 109.314 279.119 109.314C278.567 109.314 278.105 109.455 277.733 109.737C277.361 110.019 277.082 110.391 276.896 110.853C276.71 111.309 276.617 111.804 276.617 112.338V112.914C276.617 113.514 276.707 114.051 276.887 114.525C277.073 114.999 277.349 115.374 277.715 115.65C278.081 115.926 278.543 116.064 279.101 116.064C279.659 116.064 280.118 115.929 280.478 115.659C280.838 115.389 281.057 114.99 281.135 114.462H282.593C282.503 115.032 282.299 115.524 281.981 115.938C281.663 116.346 281.258 116.661 280.766 116.883C280.274 117.105 279.719 117.216 279.101 117.216ZM283.595 108.396H285.197L287.897 115.794H287.699L290.399 108.396H292.001L288.563 117H287.033L283.595 108.396ZM294.664 106.362C294.376 106.362 294.148 106.281 293.98 106.119C293.812 105.951 293.728 105.732 293.728 105.462C293.728 105.198 293.812 104.988 293.98 104.832C294.148 104.676 294.376 104.598 294.664 104.598C294.952 104.598 295.18 104.676 295.348 104.832C295.516 104.988 295.6 105.198 295.6 105.462C295.6 105.732 295.516 105.951 295.348 106.119C295.18 106.281 294.952 106.362 294.664 106.362ZM293.962 117V108.378H295.366V117H293.962ZM305.083 117V111.942C305.083 111.12 304.885 110.496 304.489 110.07C304.099 109.638 303.565 109.422 302.887 109.422C302.371 109.422 301.924 109.563 301.546 109.845C301.168 110.127 300.877 110.532 300.673 111.06C300.469 111.582 300.367 112.206 300.367 112.932H299.827C299.827 111.93 299.959 111.075 300.223 110.367C300.487 109.659 300.871 109.119 301.375 108.747C301.885 108.369 302.503 108.18 303.229 108.18C303.907 108.18 304.486 108.333 304.966 108.639C305.452 108.939 305.824 109.371 306.082 109.935C306.34 110.499 306.469 111.168 306.469 111.942V117H305.083ZM298.963 117V108.396H300.169L300.367 110.376V117H298.963ZM312.544 117.216C311.8 117.216 311.134 117.027 310.546 116.649C309.964 116.265 309.502 115.734 309.16 115.056C308.824 114.378 308.656 113.598 308.656 112.716C308.656 111.774 308.824 110.964 309.16 110.286C309.496 109.608 309.955 109.089 310.537 108.729C311.125 108.363 311.794 108.18 312.544 108.18C313.198 108.18 313.756 108.312 314.218 108.576C314.68 108.84 315.052 109.197 315.334 109.647C315.616 110.097 315.811 110.607 315.919 111.177C316.033 111.741 316.066 112.326 316.018 112.932H309.79V112.068H315.091L314.677 112.338C314.695 111.984 314.674 111.63 314.614 111.276C314.56 110.922 314.455 110.598 314.299 110.304C314.143 110.004 313.924 109.764 313.642 109.584C313.36 109.404 313 109.314 312.562 109.314C312.01 109.314 311.548 109.455 311.176 109.737C310.804 110.019 310.525 110.391 310.339 110.853C310.153 111.309 310.06 111.804 310.06 112.338V112.914C310.06 113.514 310.15 114.051 310.33 114.525C310.516 114.999 310.792 115.374 311.158 115.65C311.524 115.926 311.986 116.064 312.544 116.064C313.102 116.064 313.561 115.929 313.921 115.659C314.281 115.389 314.5 114.99 314.578 114.462H316.036C315.946 115.032 315.742 115.524 315.424 115.938C315.106 116.346 314.701 116.661 314.209 116.883C313.717 117.105 313.162 117.216 312.544 117.216ZM39.782 146V134.696H43.418C44.66 134.696 45.608 135.011 46.262 135.641C46.922 136.265 47.252 137.114 47.252 138.188C47.252 139.25 46.922 140.093 46.262 140.717C45.608 141.335 44.66 141.644 43.418 141.644H41.204V146H39.782ZM41.204 140.42H43.418C44.204 140.42 44.798 140.219 45.2 139.817C45.608 139.415 45.812 138.872 45.812 138.188C45.812 137.492 45.608 136.937 45.2 136.523C44.798 136.109 44.204 135.902 43.418 135.902H41.204V140.42ZM49.5148 146V137.378H50.9188V146H49.5148ZM50.4868 142.112C50.4868 141.02 50.5918 140.114 50.8018 139.394C51.0118 138.668 51.3178 138.128 51.7198 137.774C52.1278 137.414 52.6228 137.234 53.2048 137.234C53.3968 137.234 53.5708 137.249 53.7268 137.279C53.8888 137.303 54.0508 137.342 54.2128 137.396L54.1228 138.782C53.9548 138.728 53.7718 138.683 53.5738 138.647C53.3758 138.605 53.1988 138.584 53.0428 138.584C52.5328 138.584 52.1218 138.731 51.8098 139.025C51.4978 139.313 51.2698 139.721 51.1258 140.249C50.9878 140.777 50.9188 141.398 50.9188 142.112H50.4868ZM58.8627 146.216C58.0887 146.216 57.3987 146.045 56.7927 145.703C56.1927 145.361 55.7187 144.854 55.3707 144.182C55.0227 143.51 54.8487 142.682 54.8487 141.698C54.8487 140.708 55.0227 139.88 55.3707 139.214C55.7187 138.542 56.1927 138.035 56.7927 137.693C57.3987 137.351 58.0887 137.18 58.8627 137.18C59.6307 137.18 60.3147 137.351 60.9147 137.693C61.5207 138.035 61.9947 138.542 62.3367 139.214C62.6847 139.88 62.8587 140.708 62.8587 141.698C62.8587 142.682 62.6847 143.51 62.3367 144.182C61.9947 144.854 61.5207 145.361 60.9147 145.703C60.3147 146.045 59.6307 146.216 58.8627 146.216ZM58.8267 144.992C59.3847 144.992 59.8587 144.86 60.2487 144.596C60.6387 144.326 60.9327 143.945 61.1307 143.453C61.3347 142.961 61.4367 142.376 61.4367 141.698C61.4367 140.672 61.2237 139.865 60.7977 139.277C60.3717 138.683 59.7387 138.386 58.8987 138.386C58.3347 138.386 57.8577 138.521 57.4677 138.791C57.0837 139.055 56.7897 139.436 56.5857 139.934C56.3877 140.426 56.2887 141.014 56.2887 141.698C56.2887 142.712 56.5017 143.516 56.9277 144.11C57.3597 144.698 57.9927 144.992 58.8267 144.992ZM69.2285 146.216C68.5985 146.216 68.0495 146.072 67.5815 145.784C67.1195 145.496 66.7625 145.076 66.5105 144.524C66.2585 143.966 66.1325 143.288 66.1325 142.49H66.7265C66.7265 143.024 66.8375 143.474 67.0595 143.84C67.2815 144.206 67.5695 144.485 67.9235 144.677C68.2835 144.863 68.6645 144.956 69.0665 144.956C69.4985 144.956 69.9125 144.833 70.3085 144.587C70.7045 144.335 71.0285 143.966 71.2805 143.48C71.5325 142.994 71.6585 142.394 71.6585 141.68C71.6585 140.996 71.5415 140.411 71.3075 139.925C71.0795 139.439 70.7705 139.067 70.3805 138.809C69.9905 138.551 69.5585 138.422 69.0845 138.422C68.6765 138.422 68.2925 138.521 67.9325 138.719C67.5725 138.917 67.2815 139.208 67.0595 139.592C66.8375 139.97 66.7265 140.438 66.7265 140.996H66.1325C66.1325 140.162 66.2705 139.463 66.5465 138.899C66.8225 138.329 67.1975 137.9 67.6715 137.612C68.1455 137.324 68.6765 137.18 69.2645 137.18C69.9365 137.18 70.5635 137.36 71.1455 137.72C71.7275 138.08 72.1985 138.596 72.5585 139.268C72.9185 139.94 73.0985 140.744 73.0985 141.68C73.0985 142.628 72.9155 143.441 72.5495 144.119C72.1895 144.797 71.7155 145.316 71.1275 145.676C70.5395 146.036 69.9065 146.216 69.2285 146.216ZM65.3225 150.23V137.396H66.4925L66.7265 139.412V150.23H65.3225ZM78.5697 146.216C77.8257 146.216 77.1597 146.027 76.5717 145.649C75.9897 145.265 75.5277 144.734 75.1857 144.056C74.8497 143.378 74.6817 142.598 74.6817 141.716C74.6817 140.774 74.8497 139.964 75.1857 139.286C75.5217 138.608 75.9807 138.089 76.5627 137.729C77.1507 137.363 77.8197 137.18 78.5697 137.18C79.2237 137.18 79.7817 137.312 80.2437 137.576C80.7057 137.84 81.0777 138.197 81.3597 138.647C81.6417 139.097 81.8367 139.607 81.9447 140.177C82.0587 140.741 82.0917 141.326 82.0437 141.932H75.8157V141.068H81.1167L80.7027 141.338C80.7207 140.984 80.6997 140.63 80.6397 140.276C80.5857 139.922 80.4807 139.598 80.3247 139.304C80.1687 139.004 79.9497 138.764 79.6677 138.584C79.3857 138.404 79.0257 138.314 78.5877 138.314C78.0357 138.314 77.5737 138.455 77.2017 138.737C76.8297 139.019 76.5507 139.391 76.3647 139.853C76.1787 140.309 76.0857 140.804 76.0857 141.338V141.914C76.0857 142.514 76.1757 143.051 76.3557 143.525C76.5417 143.999 76.8177 144.374 77.1837 144.65C77.5497 144.926 78.0117 145.064 78.5697 145.064C79.1277 145.064 79.5867 144.929 79.9467 144.659C80.3067 144.389 80.5257 143.99 80.6037 143.462H82.0617C81.9717 144.032 81.7677 144.524 81.4497 144.938C81.1317 145.346 80.7267 145.661 80.2347 145.883C79.7427 146.105 79.1877 146.216 78.5697 146.216ZM84.5578 146V137.378H85.9618V146H84.5578ZM85.5298 142.112C85.5298 141.02 85.6348 140.114 85.8448 139.394C86.0548 138.668 86.3608 138.128 86.7628 137.774C87.1708 137.414 87.6658 137.234 88.2478 137.234C88.4398 137.234 88.6138 137.249 88.7698 137.279C88.9318 137.303 89.0938 137.342 89.2558 137.396L89.1658 138.782C88.9978 138.728 88.8148 138.683 88.6168 138.647C88.4188 138.605 88.2418 138.584 88.0858 138.584C87.5758 138.584 87.1648 138.731 86.8528 139.025C86.5408 139.313 86.3128 139.721 86.1688 140.249C86.0308 140.777 85.9618 141.398 85.9618 142.112H85.5298ZM93.4378 146.216C92.9698 146.216 92.5498 146.126 92.1778 145.946C91.8058 145.766 91.5118 145.496 91.2958 145.136C91.0798 144.776 90.9718 144.326 90.9718 143.786V135.002H92.3578V143.75C92.3578 144.638 92.7718 145.082 93.5998 145.082C93.8458 145.082 94.0828 145.055 94.3108 145.001C94.5448 144.947 94.8058 144.866 95.0938 144.758L95.2918 145.766C94.9858 145.898 94.6798 146.006 94.3738 146.09C94.0738 146.174 93.7618 146.216 93.4378 146.216ZM89.5858 138.368V137.396H95.0758V138.368H89.5858ZM95.8673 137.396H97.4333L100.241 144.776H99.9173L102.095 137.396H103.535L100.295 147.728C100.025 148.592 99.6653 149.258 99.2153 149.726C98.7653 150.194 98.1893 150.428 97.4873 150.428C97.1093 150.428 96.7493 150.374 96.4073 150.266C96.0713 150.158 95.7233 150.002 95.3633 149.798V148.502C95.6813 148.754 95.9873 148.934 96.2813 149.042C96.5813 149.15 96.8933 149.204 97.2173 149.204C97.5773 149.204 97.8773 149.09 98.1173 148.862C98.3633 148.634 98.5673 148.34 98.7293 147.98C98.8913 147.626 99.0293 147.254 99.1433 146.864L99.3953 146L95.8673 137.396ZM113.024 146.216C112.268 146.216 111.575 146.081 110.945 145.811C110.315 145.535 109.808 145.13 109.424 144.596C109.04 144.062 108.842 143.402 108.83 142.616H110.198C110.198 143.144 110.327 143.579 110.585 143.921C110.843 144.257 111.185 144.509 111.611 144.677C112.037 144.839 112.502 144.92 113.006 144.92C113.552 144.92 114.026 144.833 114.428 144.659C114.83 144.485 115.139 144.257 115.355 143.975C115.577 143.687 115.688 143.372 115.688 143.03C115.688 142.55 115.541 142.163 115.247 141.869C114.953 141.569 114.518 141.326 113.942 141.14L111.944 140.438C111.008 140.102 110.3 139.718 109.82 139.286C109.34 138.854 109.1 138.248 109.1 137.468C109.1 136.592 109.436 135.878 110.108 135.326C110.786 134.774 111.746 134.498 112.988 134.498C114.14 134.498 115.04 134.765 115.688 135.299C116.336 135.827 116.708 136.538 116.804 137.432H115.418C115.328 136.91 115.082 136.505 114.68 136.217C114.284 135.923 113.72 135.776 112.988 135.776C112.244 135.776 111.665 135.941 111.251 136.271C110.837 136.601 110.63 137.018 110.63 137.522C110.63 137.936 110.759 138.266 111.017 138.512C111.281 138.752 111.692 138.968 112.25 139.16L114.59 139.97C115.4 140.24 116.039 140.618 116.507 141.104C116.981 141.59 117.218 142.22 117.218 142.994C117.218 143.594 117.056 144.137 116.732 144.623C116.414 145.109 115.943 145.496 115.319 145.784C114.695 146.072 113.93 146.216 113.024 146.216ZM123.004 146.216C122.26 146.216 121.594 146.027 121.006 145.649C120.424 145.265 119.962 144.734 119.62 144.056C119.284 143.378 119.116 142.598 119.116 141.716C119.116 140.774 119.284 139.964 119.62 139.286C119.956 138.608 120.415 138.089 120.997 137.729C121.585 137.363 122.254 137.18 123.004 137.18C123.658 137.18 124.216 137.312 124.678 137.576C125.14 137.84 125.512 138.197 125.794 138.647C126.076 139.097 126.271 139.607 126.379 140.177C126.493 140.741 126.526 141.326 126.478 141.932H120.25V141.068H125.551L125.137 141.338C125.155 140.984 125.134 140.63 125.074 140.276C125.02 139.922 124.915 139.598 124.759 139.304C124.603 139.004 124.384 138.764 124.102 138.584C123.82 138.404 123.46 138.314 123.022 138.314C122.47 138.314 122.008 138.455 121.636 138.737C121.264 139.019 120.985 139.391 120.799 139.853C120.613 140.309 120.52 140.804 120.52 141.338V141.914C120.52 142.514 120.61 143.051 120.79 143.525C120.976 143.999 121.252 144.374 121.618 144.65C121.984 144.926 122.446 145.064 123.004 145.064C123.562 145.064 124.021 144.929 124.381 144.659C124.741 144.389 124.96 143.99 125.038 143.462H126.496C126.406 144.032 126.202 144.524 125.884 144.938C125.566 145.346 125.161 145.661 124.669 145.883C124.177 146.105 123.622 146.216 123.004 146.216ZM128.993 146V137.378H130.397V146H128.993ZM129.965 142.112C129.965 141.02 130.07 140.114 130.28 139.394C130.49 138.668 130.796 138.128 131.198 137.774C131.606 137.414 132.101 137.234 132.683 137.234C132.875 137.234 133.049 137.249 133.205 137.279C133.367 137.303 133.529 137.342 133.691 137.396L133.601 138.782C133.433 138.728 133.25 138.683 133.052 138.647C132.854 138.605 132.677 138.584 132.521 138.584C132.011 138.584 131.6 138.731 131.288 139.025C130.976 139.313 130.748 139.721 130.604 140.249C130.466 140.777 130.397 141.398 130.397 142.112H129.965ZM133.732 137.396H135.334L138.034 144.794H137.836L140.536 137.396H142.138L138.7 146H137.17L133.732 137.396ZM144.801 135.362C144.513 135.362 144.285 135.281 144.117 135.119C143.949 134.951 143.865 134.732 143.865 134.462C143.865 134.198 143.949 133.988 144.117 133.832C144.285 133.676 144.513 133.598 144.801 133.598C145.089 133.598 145.317 133.676 145.485 133.832C145.653 133.988 145.737 134.198 145.737 134.462C145.737 134.732 145.653 134.951 145.485 135.119C145.317 135.281 145.089 135.362 144.801 135.362ZM144.099 146V137.378H145.503V146H144.099ZM152.125 146.216C151.435 146.216 150.79 146.03 150.19 145.658C149.596 145.286 149.116 144.761 148.75 144.083C148.384 143.405 148.201 142.604 148.201 141.68C148.201 140.732 148.384 139.922 148.75 139.25C149.116 138.578 149.596 138.065 150.19 137.711C150.79 137.357 151.435 137.18 152.125 137.18C152.611 137.18 153.046 137.255 153.43 137.405C153.82 137.549 154.159 137.75 154.447 138.008C154.735 138.266 154.972 138.56 155.158 138.89C155.35 139.214 155.491 139.556 155.581 139.916L154.141 140.042C153.991 139.544 153.739 139.151 153.385 138.863C153.037 138.569 152.611 138.422 152.107 138.422C151.681 138.422 151.279 138.545 150.901 138.791C150.529 139.031 150.226 139.394 149.992 139.88C149.758 140.36 149.641 140.96 149.641 141.68C149.641 142.346 149.746 142.925 149.956 143.417C150.172 143.903 150.466 144.281 150.838 144.551C151.21 144.821 151.633 144.956 152.107 144.956C152.773 144.956 153.277 144.794 153.619 144.47C153.967 144.14 154.141 143.684 154.141 143.102H155.581C155.581 143.702 155.44 144.236 155.158 144.704C154.876 145.172 154.474 145.541 153.952 145.811C153.436 146.081 152.827 146.216 152.125 146.216ZM161.1 146.216C160.356 146.216 159.69 146.027 159.102 145.649C158.52 145.265 158.058 144.734 157.716 144.056C157.38 143.378 157.212 142.598 157.212 141.716C157.212 140.774 157.38 139.964 157.716 139.286C158.052 138.608 158.511 138.089 159.093 137.729C159.681 137.363 160.35 137.18 161.1 137.18C161.754 137.18 162.312 137.312 162.774 137.576C163.236 137.84 163.608 138.197 163.89 138.647C164.172 139.097 164.367 139.607 164.475 140.177C164.589 140.741 164.622 141.326 164.574 141.932H158.346V141.068H163.647L163.233 141.338C163.251 140.984 163.23 140.63 163.17 140.276C163.116 139.922 163.011 139.598 162.855 139.304C162.699 139.004 162.48 138.764 162.198 138.584C161.916 138.404 161.556 138.314 161.118 138.314C160.566 138.314 160.104 138.455 159.732 138.737C159.36 139.019 159.081 139.391 158.895 139.853C158.709 140.309 158.616 140.804 158.616 141.338V141.914C158.616 142.514 158.706 143.051 158.886 143.525C159.072 143.999 159.348 144.374 159.714 144.65C160.08 144.926 160.542 145.064 161.1 145.064C161.658 145.064 162.117 144.929 162.477 144.659C162.837 144.389 163.056 143.99 163.134 143.462H164.592C164.502 144.032 164.298 144.524 163.98 144.938C163.662 145.346 163.257 145.661 162.765 145.883C162.273 146.105 161.718 146.216 161.1 146.216ZM170.184 146.216C169.35 146.216 168.654 146.099 168.096 145.865C167.538 145.625 167.115 145.298 166.827 144.884C166.539 144.464 166.386 143.984 166.368 143.444H167.718C167.748 143.99 167.967 144.401 168.375 144.677C168.789 144.947 169.35 145.082 170.058 145.082C170.43 145.082 170.772 145.022 171.084 144.902C171.396 144.782 171.645 144.617 171.831 144.407C172.017 144.197 172.11 143.96 172.11 143.696C172.11 143.36 171.987 143.096 171.741 142.904C171.495 142.712 171.102 142.544 170.562 142.4L168.888 141.86C168.162 141.632 167.604 141.32 167.214 140.924C166.83 140.522 166.638 140.042 166.638 139.484C166.638 138.788 166.944 138.23 167.556 137.81C168.168 137.39 168.972 137.18 169.968 137.18C171.024 137.18 171.843 137.396 172.425 137.828C173.007 138.26 173.31 138.8 173.334 139.448H171.948C171.894 139.07 171.702 138.785 171.372 138.593C171.042 138.395 170.574 138.296 169.968 138.296C169.386 138.296 168.93 138.428 168.6 138.692C168.276 138.95 168.114 139.238 168.114 139.556C168.114 140.15 168.624 140.588 169.644 140.87L171.354 141.446C172.092 141.668 172.656 141.959 173.046 142.319C173.442 142.679 173.64 143.138 173.64 143.696C173.64 144.128 173.499 144.536 173.217 144.92C172.935 145.304 172.536 145.616 172.02 145.856C171.504 146.096 170.892 146.216 170.184 146.216ZM180.744 146V136.064C180.744 135.494 180.852 135.029 181.068 134.669C181.29 134.303 181.584 134.033 181.95 133.859C182.322 133.685 182.736 133.598 183.192 133.598C183.438 133.598 183.687 133.616 183.939 133.652C184.197 133.688 184.452 133.742 184.704 133.814L184.434 134.93C184.254 134.858 184.074 134.804 183.894 134.768C183.72 134.732 183.552 134.714 183.39 134.714C183.198 134.714 183.006 134.75 182.814 134.822C182.622 134.894 182.463 135.029 182.337 135.227C182.211 135.425 182.148 135.71 182.148 136.082V146H180.744ZM179.34 138.368V137.396H183.93V138.368H179.34ZM191.504 146L191.324 144.11V140.42C191.324 139.646 191.159 139.091 190.829 138.755C190.499 138.413 190.004 138.242 189.344 138.242C188.972 138.242 188.633 138.296 188.327 138.404C188.027 138.512 187.787 138.68 187.607 138.908C187.433 139.13 187.346 139.418 187.346 139.772H185.78C185.78 139.148 185.933 138.647 186.239 138.269C186.545 137.885 186.965 137.609 187.499 137.441C188.039 137.267 188.654 137.18 189.344 137.18C190.004 137.18 190.589 137.291 191.099 137.513C191.609 137.735 192.008 138.089 192.296 138.575C192.584 139.055 192.728 139.682 192.728 140.456V146H191.504ZM188.57 146.216C187.862 146.216 187.277 146.09 186.815 145.838C186.353 145.586 186.008 145.259 185.78 144.857C185.552 144.455 185.438 144.032 185.438 143.588C185.438 143.006 185.582 142.532 185.87 142.166C186.164 141.8 186.563 141.533 187.067 141.365C187.571 141.191 188.138 141.104 188.768 141.104C189.218 141.104 189.668 141.149 190.118 141.239C190.574 141.329 191.018 141.452 191.45 141.608V142.49C191.09 142.346 190.682 142.232 190.226 142.148C189.776 142.064 189.362 142.022 188.984 142.022C188.408 142.022 187.922 142.142 187.526 142.382C187.13 142.616 186.932 143.018 186.932 143.588C186.932 144.008 187.082 144.368 187.382 144.668C187.688 144.968 188.174 145.118 188.84 145.118C189.308 145.118 189.728 145.01 190.1 144.794C190.478 144.572 190.775 144.296 190.991 143.966C191.213 143.636 191.324 143.306 191.324 142.976H191.666C191.666 143.552 191.54 144.086 191.288 144.578C191.042 145.07 190.688 145.466 190.226 145.766C189.764 146.066 189.212 146.216 188.57 146.216ZM207.916 146V140.942C207.916 140.12 207.718 139.496 207.322 139.07C206.932 138.638 206.404 138.422 205.738 138.422C204.958 138.422 204.361 138.725 203.947 139.331C203.533 139.931 203.326 140.762 203.326 141.824H202.678C202.678 141.05 202.753 140.372 202.903 139.79C203.059 139.208 203.284 138.725 203.578 138.341C203.872 137.951 204.229 137.66 204.649 137.468C205.069 137.276 205.546 137.18 206.08 137.18C206.758 137.18 207.337 137.333 207.817 137.639C208.303 137.939 208.675 138.371 208.933 138.935C209.191 139.499 209.32 140.168 209.32 140.942V146H207.916ZM195.82 146V137.396H197.026L197.188 139.124C197.458 138.5 197.836 138.02 198.322 137.684C198.814 137.348 199.402 137.18 200.086 137.18C200.764 137.18 201.343 137.333 201.823 137.639C202.309 137.939 202.681 138.371 202.939 138.935C203.197 139.499 203.326 140.168 203.326 140.942V146H201.94V140.942C201.94 140.12 201.742 139.496 201.346 139.07C200.956 138.638 200.422 138.422 199.744 138.422C199.228 138.422 198.781 138.563 198.403 138.845C198.025 139.127 197.734 139.532 197.53 140.06C197.326 140.582 197.224 141.206 197.224 141.932V146H195.82ZM213.182 135.362C212.894 135.362 212.666 135.281 212.498 135.119C212.33 134.951 212.246 134.732 212.246 134.462C212.246 134.198 212.33 133.988 212.498 133.832C212.666 133.676 212.894 133.598 213.182 133.598C213.47 133.598 213.698 133.676 213.866 133.832C214.034 133.988 214.118 134.198 214.118 134.462C214.118 134.732 214.034 134.951 213.866 135.119C213.698 135.281 213.47 135.362 213.182 135.362ZM212.48 146V137.378H213.884V146H212.48ZM217.482 146V133.724H218.886V146H217.482ZM220.834 137.396H222.4L225.208 144.776H224.884L227.062 137.396H228.502L225.262 147.728C224.992 148.592 224.632 149.258 224.182 149.726C223.732 150.194 223.156 150.428 222.454 150.428C222.076 150.428 221.716 150.374 221.374 150.266C221.038 150.158 220.69 150.002 220.33 149.798V148.502C220.648 148.754 220.954 148.934 221.248 149.042C221.548 149.15 221.86 149.204 222.184 149.204C222.544 149.204 222.844 149.09 223.084 148.862C223.33 148.634 223.534 148.34 223.696 147.98C223.858 147.626 223.996 147.254 224.11 146.864L224.362 146L220.834 137.396ZM229.093 145.163C229.093 144.881 229.192 144.638 229.39 144.434C229.588 144.23 229.837 144.128 230.137 144.128C230.437 144.128 230.692 144.23 230.902 144.434C231.112 144.638 231.217 144.881 231.217 145.163C231.217 145.445 231.112 145.682 230.902 145.874C230.692 146.066 230.437 146.162 230.137 146.162C229.837 146.162 229.588 146.066 229.39 145.874C229.192 145.676 229.093 145.439 229.093 145.163Z" fill="black"/>
</g>
<defs>
<filter id="filter0_d_2_458" x="0" y="0" width="420" height="260" filterUnits="userSpaceOnUse" color-interpolation-filters="sRGB">
<feFlood flood-opacity="0" result="BackgroundImageFix"/>
<feColorMatrix in="SourceAlpha" type="matrix" values="0 0 0 0 0 0 0 0 0 0 0 0 0 0 0 0 0 0 127 0" result="hardAlpha"/>
<feOffset dx="2" dy="2"/>
<feGaussianBlur stdDeviation="5"/>
<feComposite in2="hardAlpha" operator="out"/>
<feColorMatrix type="matrix" values="0 0 0 0 0 0 0 0 0 0 0 0 0 0 0 0 0 0 0.12 0"/>
<feBlend mode="normal" in2="BackgroundImageFix" result="effect1_dropShadow_2_458"/>
<feBlend mode="normal" in="SourceGraphic" in2="effect1_dropShadow_2_458" result="shape"/>
</filter>
</defs>
</svg>
