<svg width="40" height="40" viewBox="0 0 40 40" fill="none" xmlns="http://www.w3.org/2000/svg">
<path d="M19.9996 36.8001C19.4996 36.8001 18.9996 36.6833 18.583 36.45C15.4663 34.75 9.9996 32.95 6.56626 32.5L6.08297 32.4334C3.89963 32.1667 2.09961 30.1167 2.09961 27.9V7.76665C2.09961 6.44998 2.61628 5.25003 3.56628 4.38337C4.51628 3.5167 5.74956 3.10001 7.04956 3.21668C10.6996 3.51668 16.2329 5.35003 19.3663 7.30003L19.7662 7.53339C19.8829 7.58339 20.133 7.60006 20.233 7.53339L20.4996 7.36666C21.6162 6.66666 23.0162 5.98331 24.5496 5.36664C24.9329 5.21664 25.3662 5.26667 25.7162 5.50001C26.0662 5.73334 26.2663 6.11666 26.2663 6.53333V11L27.6496 10.0833C28.0663 9.8 28.6162 9.8 29.0329 10.0833L30.4163 11V4.63341C30.4163 4.03341 30.8496 3.51666 31.4329 3.39999C31.9162 3.31666 32.3996 3.25001 32.8329 3.21668C32.8663 3.21668 32.9996 3.21668 33.0329 3.21668C34.2496 3.11668 35.4996 3.53338 36.4329 4.40005C37.3829 5.26672 37.8996 6.46666 37.8996 7.78333V27.9C37.8996 30.1333 36.0996 32.1667 33.8996 32.4334L33.3496 32.5C29.9163 32.95 24.4163 34.7667 21.3663 36.45C20.9996 36.6833 20.4996 36.8001 19.9996 36.8001ZM6.63289 5.68331C6.09956 5.68331 5.61628 5.86666 5.23295 6.21666C4.81628 6.59999 4.58293 7.14998 4.58293 7.76665V27.9C4.58293 28.8833 5.43296 29.8333 6.38296 29.9667L6.88293 30.0334C10.6329 30.5334 16.383 32.4167 19.7163 34.25C19.8663 34.3167 20.0829 34.3334 20.1662 34.3001C23.5162 32.4501 29.283 30.5501 33.0496 30.0501L33.6162 29.9833C34.5662 29.8667 35.4163 28.9 35.4163 27.9167V7.80001C35.4163 7.18335 35.1829 6.65003 34.7662 6.25003C34.3496 5.86669 33.7663 5.68335 33.1663 5.71668C33.1163 5.71668 32.9663 5.71668 32.9329 5.71668V13.3334C32.9329 13.8 32.6829 14.2166 32.2662 14.4333C31.8496 14.65 31.3663 14.6334 30.983 14.3667L28.3496 12.6167L25.7162 14.3667C25.3329 14.6167 24.8496 14.65 24.4329 14.4333C24.0329 14.2166 23.7663 13.8 23.7663 13.3334V8.45004C23.0496 8.80004 22.3996 9.15003 21.8329 9.48336L21.5663 9.64999C20.6496 10.2167 19.3496 10.2167 18.4663 9.66667L18.0663 9.41673C15.2496 7.65007 10.1162 5.94998 6.84957 5.68331C6.76624 5.68331 6.69956 5.68331 6.63289 5.68331Z" fill="#292D32"/>
<path d="M20 35.4C19.3167 35.4 18.75 34.8333 18.75 34.15V9.14998C18.75 8.46665 19.3167 7.89998 20 7.89998C20.6833 7.89998 21.25 8.46665 21.25 9.14998V34.15C21.25 34.85 20.6833 35.4 20 35.4Z" fill="#292D32"/>
<path d="M31.6667 14.5833C31.4167 14.5833 31.1834 14.5166 30.9667 14.3666L28.3333 12.6167L25.7 14.3666C25.3166 14.6166 24.8334 14.6499 24.4167 14.4333C24.0167 14.2166 23.75 13.8 23.75 13.3333V6.53329C23.75 6.01662 24.0666 5.5666 24.5333 5.3666C26.8333 4.44993 29.35 3.73328 31.4667 3.39994C31.8333 3.33328 32.2 3.45002 32.4833 3.68335C32.7667 3.91668 32.9167 4.2667 32.9167 4.63336V13.3333C32.9167 13.8 32.6666 14.2166 32.25 14.4333C32.0666 14.5333 31.8667 14.5833 31.6667 14.5833ZM28.3333 9.86662C28.5667 9.86662 28.8166 9.93329 29.0333 10.0833L30.4167 10.9999V6.14999C29.0833 6.44999 27.6333 6.88332 26.25 7.39999V10.9999L27.6334 10.0833C27.85 9.93329 28.1 9.86662 28.3333 9.86662Z" fill="#292D32"/>
</svg>
