<svg width="35" height="35" viewBox="0 0 35 35" fill="none" xmlns="http://www.w3.org/2000/svg">
<path d="M21.5687 28.3208C21.4083 28.3208 21.2333 28.2771 21.0874 28.2042C20.5479 27.9271 20.3291 27.2709 20.5916 26.7313L23.7124 20.5042C23.902 20.1396 24.2812 19.9063 24.6895 19.9063C25.0978 19.9063 25.477 20.1396 25.6666 20.5188L28.7874 26.7459C29.0645 27.2854 28.8458 27.9416 28.2916 28.2187C27.752 28.4958 27.0958 28.2771 26.8187 27.7229L24.6895 23.45L22.5604 27.7229C22.3562 28.1021 21.9624 28.3208 21.5687 28.3208Z" fill="black"/>
<path d="M27.242 27.2124H22.1086C21.5107 27.2124 21.0149 26.7165 21.0149 26.1186C21.0149 25.5207 21.5107 25.0249 22.1086 25.0249H27.242C27.8399 25.0249 28.3357 25.5207 28.3357 26.1186C28.3357 26.7165 27.8545 27.2124 27.242 27.2124Z" fill="black"/>
<path d="M24.6747 33.1772C19.9934 33.1772 16.1726 29.3709 16.1726 24.6751C16.1726 19.9792 19.9789 16.173 24.6747 16.173C29.3559 16.173 33.1768 19.9792 33.1768 24.6751C33.1768 29.3709 29.3705 33.1772 24.6747 33.1772ZM24.6747 18.3751C21.1893 18.3751 18.3601 21.2042 18.3601 24.6897C18.3601 28.1751 21.1893 31.0043 24.6747 31.0043C28.1455 31.0043 30.9893 28.1751 30.9893 24.6897C30.9893 21.2042 28.1601 18.3751 24.6747 18.3751Z" fill="black"/>
<path d="M7.08758 18.5209C5.46883 18.5209 4.1855 18.0687 3.28133 17.1937C2.31883 16.2604 1.823 14.8458 1.823 13.0229V7.30626C1.823 3.76251 3.77717 1.80832 7.32092 1.80832H13.0376C14.8605 1.80832 16.2605 2.28957 17.2084 3.26665C18.1272 4.21457 18.5793 5.58546 18.5355 7.33546V13.0229C18.5793 14.8021 18.1272 16.2021 17.1792 17.15C16.2313 18.0979 14.8313 18.5354 13.023 18.5063H7.3355C7.23341 18.5208 7.1605 18.5209 7.08758 18.5209ZM7.32092 4.01042C4.973 4.01042 4.0105 4.97295 4.0105 7.32086V13.0375C4.0105 14.2479 4.27299 15.1229 4.79799 15.6333C5.30841 16.1291 6.12509 16.3479 7.27717 16.3334H13.023C14.248 16.3625 15.0938 16.1146 15.6042 15.6042C16.1147 15.0938 16.348 14.2334 16.3188 13.0521V7.30626C16.348 6.1396 16.1147 5.3083 15.6188 4.79788C15.1084 4.27288 14.2334 4.01042 13.023 4.01042H7.32092V4.01042Z" fill="black"/>
<path d="M13.1249 9.62479H7.2041C6.60618 9.62479 6.11035 9.12895 6.11035 8.53104C6.11035 7.93312 6.60618 7.43729 7.2041 7.43729H13.1249C13.7228 7.43729 14.2187 7.93312 14.2187 8.53104C14.2187 9.12895 13.7374 9.62479 13.1249 9.62479Z" fill="black"/>
<path d="M10.1792 9.62488C9.58128 9.62488 9.08545 9.12905 9.08545 8.53113V7.53947C9.08545 6.94156 9.58128 6.44572 10.1792 6.44572C10.7771 6.44572 11.2729 6.94156 11.2729 7.53947V8.53113C11.2729 9.12905 10.7771 9.62488 10.1792 9.62488Z" fill="black"/>
<path d="M7.2041 14.2333C6.60618 14.2333 6.11035 13.7374 6.11035 13.1395C6.11035 12.5416 6.60618 12.0458 7.2041 12.0458C9.05618 12.0458 10.5583 10.4708 10.5583 8.51662C10.5583 7.9187 11.0541 7.42287 11.652 7.42287C12.2499 7.42287 12.7458 7.9187 12.7458 8.51662C12.7458 11.6666 10.2666 14.2333 7.2041 14.2333Z" fill="black"/>
<path d="M13.1395 14.2332C11.7832 14.2332 10.4853 13.5478 9.56656 12.3374C9.20197 11.8562 9.30407 11.1707 9.78532 10.8061C10.2666 10.4415 10.952 10.5436 11.3166 11.0249C11.8124 11.6957 12.4686 12.0603 13.1395 12.0603C13.7374 12.0603 14.2332 12.5562 14.2332 13.1541C14.2332 13.752 13.7374 14.2332 13.1395 14.2332Z" fill="black"/>
<path d="M13.1251 33.1771C6.898 33.1771 1.823 28.1021 1.823 21.875C1.823 21.2771 2.31883 20.7812 2.91675 20.7812C3.51466 20.7812 4.0105 21.2771 4.0105 21.875C4.0105 26.1917 7.01467 29.8084 11.0543 30.7563L10.6605 30.1C10.3542 29.575 10.5147 28.9041 11.0397 28.5979C11.5501 28.2916 12.2355 28.4521 12.5418 28.9771L14.073 31.5292C14.2772 31.8646 14.2772 32.2875 14.0876 32.6229C13.8834 32.9583 13.5188 33.1771 13.1251 33.1771Z" fill="black"/>
<path d="M32.0832 14.2188C31.4853 14.2188 30.9895 13.7229 30.9895 13.125C30.9895 8.80834 27.9853 5.19163 23.9457 4.24372L24.3395 4.89998C24.6457 5.42498 24.4853 6.09586 23.9603 6.40211C23.4499 6.70836 22.7645 6.54793 22.4582 6.02293L20.927 3.47085C20.7228 3.13543 20.7228 2.71251 20.9124 2.3771C21.102 2.0271 21.4666 1.82292 21.8603 1.82292C28.0874 1.82292 33.1624 6.89792 33.1624 13.125C33.177 13.7229 32.6811 14.2188 32.0832 14.2188Z" fill="black"/>
</svg>
